M48
; DRILL file {KiCad 9.0.1-9.0.1-0~ubuntu24.04.1} date 2025-05-01T18:06:18+0200
; FORMAT={-:-/ absolute / metric / decimal}
; #@! TF.CreationDate,2025-05-01T18:06:18+02:00
; #@! TF.GenerationSoftware,Kicad,Pcbnew,9.0.1-9.0.1-0~ubuntu24.04.1
; #@! TF.FileFunction,Plated,1,2,PTH
FMAT,2
METRIC
; #@! TA.AperFunction,Plated,PTH,ViaDrill
T1C0.300
; #@! TA.AperFunction,Plated,PTH,ViaDrill
T2C0.400
; #@! TA.AperFunction,Plated,PTH,ComponentDrill
T3C0.700
; #@! TA.AperFunction,Plated,PTH,ComponentDrill
T4C0.800
; #@! TA.AperFunction,Plated,PTH,ComponentDrill
T5C1.000
; #@! TA.AperFunction,Plated,PTH,ComponentDrill
T6C1.300
%
G90
G05
T1
X110.0Y-93.5
X111.9Y-92.0
X112.1Y-93.7
X112.6Y-98.5
X113.8Y-99.7
X115.0Y-98.5
X119.6Y-97.5
X120.4Y-97.5
X121.3Y-97.1
X121.3Y-100.2
X149.8Y-93.2
X151.3Y-93.3
X151.5Y-94.8
T2
X91.6Y-83.8
X91.6Y-97.0
X92.8Y-83.8
X92.8Y-97.0
X94.0Y-83.8
X94.0Y-97.0
X95.2Y-83.8
X95.2Y-97.0
X96.4Y-83.8
X96.4Y-97.0
X97.6Y-83.8
X97.6Y-97.0
X98.8Y-83.8
X98.8Y-97.0
X100.0Y-83.8
X100.0Y-97.0
X101.2Y-83.8
X101.2Y-97.0
X102.4Y-83.8
X102.4Y-97.0
X103.6Y-83.8
X103.6Y-97.0
X104.8Y-83.8
X104.8Y-97.0
X106.0Y-83.8
X106.0Y-97.0
X107.2Y-83.8
X107.2Y-85.0
X107.2Y-86.2
X107.2Y-87.4
X107.2Y-88.6
X107.2Y-89.8
X107.2Y-91.0
X107.2Y-92.2
X107.2Y-93.4
X107.2Y-94.6
X107.2Y-95.8
X107.2Y-97.0
T3
X106.75Y-102.595
X106.75Y-104.495
X106.845Y-108.25
X108.745Y-108.25
X129.095Y-104.0
X130.995Y-104.0
X135.585Y-84.315
X137.485Y-84.315
T4
X96.195Y-106.69
X96.195Y-109.23
X96.195Y-111.77
X96.195Y-114.31
X103.815Y-106.69
X103.815Y-109.23
X103.815Y-111.77
X103.815Y-114.31
X108.75Y-111.25
X108.75Y-114.25
X113.75Y-111.25
X113.75Y-114.25
X126.38Y-90.195
X126.38Y-97.815
X126.58Y-84.315
X128.92Y-90.195
X128.92Y-97.815
X131.46Y-90.195
X131.46Y-97.815
X131.58Y-84.315
X134.0Y-90.195
X134.0Y-97.815
X134.0Y-104.0
X136.54Y-90.195
X136.54Y-97.815
X139.0Y-104.0
X139.08Y-90.195
X139.08Y-97.815
X141.62Y-90.195
X141.62Y-97.815
X146.5Y-81.295
X146.5Y-83.795
X151.595Y-83.19
X151.595Y-85.73
X151.595Y-88.27
X151.595Y-90.81
X152.06Y-101.67
X152.06Y-104.21
X152.06Y-106.75
X152.06Y-109.29
X159.215Y-83.19
X159.215Y-85.73
X159.215Y-88.27
X159.215Y-90.81
X159.68Y-101.67
X159.68Y-104.21
X159.68Y-106.75
X159.68Y-109.29
X162.875Y-88.13
X162.875Y-91.13
X163.06Y-106.21
X163.06Y-109.21
X163.795Y-82.13
X164.06Y-101.0
X166.335Y-82.13
X166.6Y-101.0
X167.875Y-88.13
X167.875Y-91.13
X168.06Y-106.21
X168.06Y-109.21
X168.875Y-82.13
X169.14Y-101.0
T5
X89.0Y-85.46
X89.0Y-88.0
X89.025Y-92.71
X89.025Y-95.25
X119.1Y-84.4
X141.0Y-81.5
X163.1Y-94.7
X167.9Y-94.7
T6
X128.5Y-119.0
X133.5Y-119.0
X138.5Y-119.0
X152.5Y-119.0
X157.5Y-119.0
X162.5Y-119.0
M30
