%TF.GenerationSoftware,KiCad,Pcbnew,9.0.1-9.0.1-0~ubuntu24.04.1*%
%TF.CreationDate,2025-05-01T18:06:16+02:00*%
%TF.ProjectId,Circuito_LED,43697263-7569-4746-9f5f-4c45442e6b69,rev?*%
%TF.SameCoordinates,Original*%
%TF.FileFunction,Copper,L1,Top*%
%TF.FilePolarity,Positive*%
%FSLAX46Y46*%
G04 Gerber Fmt 4.6, Leading zero omitted, Abs format (unit mm)*
G04 Created by KiCad (PCBNEW 9.0.1-9.0.1-0~ubuntu24.04.1) date 2025-05-01 18:06:16*
%MOMM*%
%LPD*%
G01*
G04 APERTURE LIST*
G04 Aperture macros list*
%AMRoundRect*
0 Rectangle with rounded corners*
0 $1 Rounding radius*
0 $2 $3 $4 $5 $6 $7 $8 $9 X,Y pos of 4 corners*
0 Add a 4 corners polygon primitive as box body*
4,1,4,$2,$3,$4,$5,$6,$7,$8,$9,$2,$3,0*
0 Add four circle primitives for the rounded corners*
1,1,$1+$1,$2,$3*
1,1,$1+$1,$4,$5*
1,1,$1+$1,$6,$7*
1,1,$1+$1,$8,$9*
0 Add four rect primitives between the rounded corners*
20,1,$1+$1,$2,$3,$4,$5,0*
20,1,$1+$1,$4,$5,$6,$7,0*
20,1,$1+$1,$6,$7,$8,$9,0*
20,1,$1+$1,$8,$9,$2,$3,0*%
G04 Aperture macros list end*
%TA.AperFunction,ComponentPad*%
%ADD10R,1.700000X1.700000*%
%TD*%
%TA.AperFunction,SMDPad,CuDef*%
%ADD11R,1.023099X0.354800*%
%TD*%
%TA.AperFunction,ComponentPad*%
%ADD12C,1.600000*%
%TD*%
%TA.AperFunction,ComponentPad*%
%ADD13C,1.400000*%
%TD*%
%TA.AperFunction,ComponentPad*%
%ADD14O,1.400000X1.400000*%
%TD*%
%TA.AperFunction,ComponentPad*%
%ADD15RoundRect,0.250000X-0.550000X0.550000X-0.550000X-0.550000X0.550000X-0.550000X0.550000X0.550000X0*%
%TD*%
%TA.AperFunction,SMDPad,CuDef*%
%ADD16RoundRect,0.250000X0.400000X0.625000X-0.400000X0.625000X-0.400000X-0.625000X0.400000X-0.625000X0*%
%TD*%
%TA.AperFunction,SMDPad,CuDef*%
%ADD17RoundRect,0.250000X-0.400000X-0.625000X0.400000X-0.625000X0.400000X0.625000X-0.400000X0.625000X0*%
%TD*%
%TA.AperFunction,SMDPad,CuDef*%
%ADD18RoundRect,0.250000X-0.625000X0.400000X-0.625000X-0.400000X0.625000X-0.400000X0.625000X0.400000X0*%
%TD*%
%TA.AperFunction,ComponentPad*%
%ADD19R,1.600000X1.600000*%
%TD*%
%TA.AperFunction,ComponentPad*%
%ADD20RoundRect,0.250000X-0.550000X-0.550000X0.550000X-0.550000X0.550000X0.550000X-0.550000X0.550000X0*%
%TD*%
%TA.AperFunction,SMDPad,CuDef*%
%ADD21R,1.100000X0.700000*%
%TD*%
%TA.AperFunction,SMDPad,CuDef*%
%ADD22R,1.800000X0.700000*%
%TD*%
%TA.AperFunction,SMDPad,CuDef*%
%ADD23R,2.800000X1.900000*%
%TD*%
%TA.AperFunction,SMDPad,CuDef*%
%ADD24RoundRect,0.250000X-0.650000X0.412500X-0.650000X-0.412500X0.650000X-0.412500X0.650000X0.412500X0*%
%TD*%
%TA.AperFunction,ComponentPad*%
%ADD25C,2.340000*%
%TD*%
%TA.AperFunction,SMDPad,CuDef*%
%ADD26RoundRect,0.063750X-0.671250X-0.191250X0.671250X-0.191250X0.671250X0.191250X-0.671250X0.191250X0*%
%TD*%
%TA.AperFunction,ComponentPad*%
%ADD27C,1.440000*%
%TD*%
%TA.AperFunction,ComponentPad*%
%ADD28C,1.700000*%
%TD*%
%TA.AperFunction,ViaPad*%
%ADD29C,0.800000*%
%TD*%
%TA.AperFunction,ViaPad*%
%ADD30C,0.700000*%
%TD*%
%TA.AperFunction,Conductor*%
%ADD31C,0.300000*%
%TD*%
%TA.AperFunction,Conductor*%
%ADD32C,0.500000*%
%TD*%
%TA.AperFunction,Conductor*%
%ADD33C,0.250000*%
%TD*%
G04 APERTURE END LIST*
D10*
%TO.P,GND,1,Pin_1*%
%TO.N,GND*%
X167900000Y-94700000D03*
%TD*%
D11*
%TO.P,U5,1,A*%
%TO.N,LED_ON*%
X113831304Y-96500000D03*
%TO.P,U5,2,B*%
%TO.N,LO*%
X113831304Y-97149998D03*
%TO.P,U5,3,~{Y}*%
%TO.N,unconnected-(U5-~{Y}-Pad3)*%
X113831304Y-97800000D03*
%TO.P,U5,4,GND*%
%TO.N,GND*%
X113831304Y-98449998D03*
%TO.P,U5,5,Y*%
%TO.N,Net-(U5-Y)*%
X117750000Y-98449998D03*
%TO.P,U5,6,~{A}/B*%
%TO.N,SCAN*%
X117750000Y-97800000D03*
%TO.P,U5,7,~{G}*%
%TO.N,GND*%
X117750000Y-97149998D03*
%TO.P,U5,8,VCC*%
%TO.N,+5V*%
X117750000Y-96500000D03*
%TD*%
D12*
%TO.P,C5,1*%
%TO.N,GND*%
X167875000Y-91130000D03*
%TO.P,C5,2*%
%TO.N,Net-(U7-CV)*%
X162875000Y-91130000D03*
%TD*%
D13*
%TO.P,R3,1*%
%TO.N,+5V*%
X106750000Y-102595000D03*
D14*
%TO.P,R3,2*%
%TO.N,Net-(U2-DIS)*%
X106750000Y-104495000D03*
%TD*%
D12*
%TO.P,C6,1*%
%TO.N,Net-(U7-DIS)*%
X162875000Y-88130000D03*
%TO.P,C6,2*%
%TO.N,GND*%
X167875000Y-88130000D03*
%TD*%
D10*
%TO.P,5V,1,Pin_1*%
%TO.N,+5V*%
X141000000Y-81500000D03*
%TD*%
D12*
%TO.P,C1,1*%
%TO.N,GND*%
X168060000Y-109210000D03*
%TO.P,C1,2*%
%TO.N,Net-(U1-CV)*%
X163060000Y-109210000D03*
%TD*%
D15*
%TO.P,U3,1*%
%TO.N,NDELAY*%
X141620000Y-90195000D03*
D12*
%TO.P,U3,2*%
%TO.N,Net-(U3-Pad2)*%
X139080000Y-90195000D03*
%TO.P,U3,3*%
%TO.N,Net-(U7-TR)*%
X136540000Y-90195000D03*
%TO.P,U3,4*%
%TO.N,Net-(U3-Pad2)*%
X134000000Y-90195000D03*
%TO.P,U3,5*%
%TO.N,Net-(C14-Pad2)*%
X131460000Y-90195000D03*
%TO.P,U3,6*%
X128920000Y-90195000D03*
%TO.P,U3,7,VSS*%
%TO.N,GND*%
X126380000Y-90195000D03*
%TO.P,U3,8*%
%TO.N,Net-(U5-Y)*%
X126380000Y-97815000D03*
%TO.P,U3,9*%
%TO.N,Net-(U3-Pad11)*%
X128920000Y-97815000D03*
%TO.P,U3,10*%
%TO.N,Net-(U1-TR)*%
X131460000Y-97815000D03*
%TO.P,U3,11*%
%TO.N,Net-(U3-Pad11)*%
X134000000Y-97815000D03*
%TO.P,U3,12*%
%TO.N,Net-(C13-Pad2)*%
X136540000Y-97815000D03*
%TO.P,U3,13*%
X139080000Y-97815000D03*
%TO.P,U3,14,VDD*%
%TO.N,+5V*%
X141620000Y-97815000D03*
%TD*%
D16*
%TO.P,R9,1*%
%TO.N,DELAY*%
X156900000Y-98000000D03*
%TO.P,R9,2*%
%TO.N,Net-(Q6-G)*%
X153800000Y-98000000D03*
%TD*%
D12*
%TO.P,C2,1*%
%TO.N,Net-(U1-DIS)*%
X163060000Y-106210000D03*
%TO.P,C2,2*%
%TO.N,GND*%
X168060000Y-106210000D03*
%TD*%
D13*
%TO.P,R4,1*%
%TO.N,Net-(U2-DIS)*%
X106845000Y-108250000D03*
D14*
%TO.P,R4,2*%
%TO.N,Net-(U2-THR)*%
X108745000Y-108250000D03*
%TD*%
D17*
%TO.P,R11,1*%
%TO.N,/LED+*%
X95600000Y-87600000D03*
%TO.P,R11,2*%
%TO.N,Net-(U9-IN1+)*%
X98700000Y-87600000D03*
%TD*%
D10*
%TO.P,GND,1,Pin_1*%
%TO.N,GND*%
X119100000Y-84400000D03*
%TD*%
D12*
%TO.P,C14,1*%
%TO.N,GND*%
X126580000Y-84315000D03*
%TO.P,C14,2*%
%TO.N,Net-(C14-Pad2)*%
X131580000Y-84315000D03*
%TD*%
D18*
%TO.P,R10,1*%
%TO.N,+5V*%
X146400000Y-89400000D03*
%TO.P,R10,2*%
%TO.N,NDELAY*%
X146400000Y-92500000D03*
%TD*%
D19*
%TO.P,C7,1*%
%TO.N,+5V*%
X146500000Y-81294888D03*
D12*
%TO.P,C7,2*%
%TO.N,GND*%
X146500000Y-83794888D03*
%TD*%
D20*
%TO.P,U2,1,GND*%
%TO.N,GND*%
X96195000Y-106690000D03*
D12*
%TO.P,U2,2,TR*%
%TO.N,Net-(U2-THR)*%
X96195000Y-109230000D03*
%TO.P,U2,3,Q*%
%TO.N,LO*%
X96195000Y-111770000D03*
%TO.P,U2,4,R*%
%TO.N,+5V*%
X96195000Y-114310000D03*
%TO.P,U2,5,CV*%
%TO.N,Net-(U2-CV)*%
X103815000Y-114310000D03*
%TO.P,U2,6,THR*%
%TO.N,Net-(U2-THR)*%
X103815000Y-111770000D03*
%TO.P,U2,7,DIS*%
%TO.N,Net-(U2-DIS)*%
X103815000Y-109230000D03*
%TO.P,U2,8,VCC*%
%TO.N,+5V*%
X103815000Y-106690000D03*
%TD*%
D21*
%TO.P,Q6,1,S*%
%TO.N,GND*%
X149250000Y-95300000D03*
D22*
%TO.P,Q6,2,D_1*%
%TO.N,NDELAY*%
X148900000Y-96800000D03*
D21*
%TO.P,Q6,3,G*%
%TO.N,Net-(Q6-G)*%
X149250000Y-98300000D03*
D23*
%TO.P,Q6,4,D_2*%
%TO.N,NDELAY*%
X146600000Y-96800000D03*
%TD*%
D13*
%TO.P,R14,1*%
%TO.N,NDELAY*%
X137485000Y-84315000D03*
D14*
%TO.P,R14,2*%
%TO.N,Net-(C14-Pad2)*%
X135585000Y-84315000D03*
%TD*%
D12*
%TO.P,C3,1*%
%TO.N,GND*%
X113750000Y-114250000D03*
%TO.P,C3,2*%
%TO.N,Net-(U2-CV)*%
X108750000Y-114250000D03*
%TD*%
D24*
%TO.P,C16,1*%
%TO.N,GND*%
X111750000Y-82187500D03*
%TO.P,C16,2*%
%TO.N,+5V*%
X111750000Y-85312500D03*
%TD*%
D13*
%TO.P,R13,1*%
%TO.N,Net-(U5-Y)*%
X129095000Y-104000000D03*
D14*
%TO.P,R13,2*%
%TO.N,Net-(C13-Pad2)*%
X130995000Y-104000000D03*
%TD*%
D25*
%TO.P,RV2,1,1*%
%TO.N,+5V*%
X128500000Y-119000000D03*
%TO.P,RV2,2,2*%
%TO.N,Net-(RV2-Pad2)*%
X133500000Y-119000000D03*
%TO.P,RV2,3,3*%
%TO.N,unconnected-(RV2-Pad3)*%
X138500000Y-119000000D03*
%TD*%
D20*
%TO.P,U1,1,GND*%
%TO.N,GND*%
X152060000Y-101670000D03*
D12*
%TO.P,U1,2,TR*%
%TO.N,Net-(U1-TR)*%
X152060000Y-104210000D03*
%TO.P,U1,3,Q*%
%TO.N,DELAY*%
X152060000Y-106750000D03*
%TO.P,U1,4,R*%
%TO.N,+5V*%
X152060000Y-109290000D03*
%TO.P,U1,5,CV*%
%TO.N,Net-(U1-CV)*%
X159680000Y-109290000D03*
%TO.P,U1,6,THR*%
%TO.N,Net-(U1-DIS)*%
X159680000Y-106750000D03*
%TO.P,U1,7,DIS*%
X159680000Y-104210000D03*
%TO.P,U1,8,VCC*%
%TO.N,+5V*%
X159680000Y-101670000D03*
%TD*%
D25*
%TO.P,RV1,1,1*%
%TO.N,+5V*%
X152500000Y-119000000D03*
%TO.P,RV1,2,2*%
%TO.N,Net-(RV1-Pad2)*%
X157500000Y-119000000D03*
%TO.P,RV1,3,3*%
%TO.N,unconnected-(RV1-Pad3)*%
X162500000Y-119000000D03*
%TD*%
D17*
%TO.P,R12,1*%
%TO.N,/SCAN+*%
X95500000Y-92700000D03*
%TO.P,R12,2*%
%TO.N,Net-(U9-IN2+)*%
X98600000Y-92700000D03*
%TD*%
D26*
%TO.P,U9,1,IN1+*%
%TO.N,Net-(U9-IN1+)*%
X104480000Y-88190000D03*
%TO.P,U9,2,IN1-*%
%TO.N,/LED-*%
X104480000Y-89460000D03*
%TO.P,U9,3,IN2+*%
%TO.N,Net-(U9-IN2+)*%
X104480000Y-90730000D03*
%TO.P,U9,4,IN2-*%
%TO.N,/SCAN-*%
X104480000Y-92000000D03*
%TO.P,U9,5,GND*%
%TO.N,GND*%
X110000000Y-92000000D03*
%TO.P,U9,6,OUT2*%
%TO.N,SCAN*%
X110000000Y-90730000D03*
%TO.P,U9,7,OUT1*%
%TO.N,LED_ON*%
X110000000Y-89460000D03*
%TO.P,U9,8,VDD*%
%TO.N,+5V*%
X110000000Y-88190000D03*
%TD*%
D10*
%TO.P,OUT,1,Pin_1*%
%TO.N,MONO*%
X163100000Y-94700000D03*
%TD*%
D12*
%TO.P,C4,1*%
%TO.N,Net-(U2-THR)*%
X108750000Y-111250000D03*
%TO.P,C4,2*%
%TO.N,GND*%
X113750000Y-111250000D03*
%TD*%
%TO.P,C13,1*%
%TO.N,GND*%
X139000000Y-104000000D03*
%TO.P,C13,2*%
%TO.N,Net-(C13-Pad2)*%
X134000000Y-104000000D03*
%TD*%
D27*
%TO.P,RV3,1,1*%
%TO.N,Net-(RV2-Pad2)*%
X164060000Y-101000000D03*
%TO.P,RV3,2,2*%
%TO.N,Net-(U1-DIS)*%
X166600000Y-101000000D03*
%TO.P,RV3,3,3*%
%TO.N,unconnected-(RV3-Pad3)*%
X169140000Y-101000000D03*
%TD*%
D10*
%TO.P,SCAN,1,In*%
%TO.N,/LED-*%
X89000000Y-88000000D03*
D28*
%TO.P,SCAN,2,Ext*%
%TO.N,/LED+*%
X89000000Y-85460000D03*
%TD*%
D24*
%TO.P,C15,1*%
%TO.N,GND*%
X117750000Y-90187500D03*
%TO.P,C15,2*%
%TO.N,+5V*%
X117750000Y-93312500D03*
%TD*%
D20*
%TO.P,U7,1,GND*%
%TO.N,GND*%
X151595000Y-83190000D03*
D12*
%TO.P,U7,2,TR*%
%TO.N,Net-(U7-TR)*%
X151595000Y-85730000D03*
%TO.P,U7,3,Q*%
%TO.N,MONO*%
X151595000Y-88270000D03*
%TO.P,U7,4,R*%
%TO.N,+5V*%
X151595000Y-90810000D03*
%TO.P,U7,5,CV*%
%TO.N,Net-(U7-CV)*%
X159215000Y-90810000D03*
%TO.P,U7,6,THR*%
%TO.N,Net-(U7-DIS)*%
X159215000Y-88270000D03*
%TO.P,U7,7,DIS*%
X159215000Y-85730000D03*
%TO.P,U7,8,VCC*%
%TO.N,+5V*%
X159215000Y-83190000D03*
%TD*%
D10*
%TO.P,FRAME,1,In*%
%TO.N,/SCAN-*%
X89025000Y-95250000D03*
D28*
%TO.P,FRAME,2,Ext*%
%TO.N,/SCAN+*%
X89025000Y-92710000D03*
%TD*%
D27*
%TO.P,RV4,1,1*%
%TO.N,Net-(RV1-Pad2)*%
X163795000Y-82130000D03*
%TO.P,RV4,2,2*%
%TO.N,Net-(U7-DIS)*%
X166335000Y-82130000D03*
%TO.P,RV4,3,3*%
%TO.N,unconnected-(RV4-Pad3)*%
X168875000Y-82130000D03*
%TD*%
D29*
%TO.N,GND*%
X91600000Y-83800000D03*
X107200000Y-93400000D03*
D30*
X112600000Y-98500000D03*
X120400000Y-97500000D03*
D29*
X97600000Y-83800000D03*
X92800000Y-97000000D03*
X100000000Y-97000000D03*
X96400000Y-97000000D03*
X104800000Y-83800000D03*
X107200000Y-97000000D03*
D30*
X115000000Y-98500000D03*
D29*
X102400000Y-97000000D03*
X94000000Y-97000000D03*
X96400000Y-83800000D03*
X101200000Y-83800000D03*
X107200000Y-91000000D03*
X97600000Y-97000000D03*
X103600000Y-83800000D03*
X98800000Y-83800000D03*
X95200000Y-83800000D03*
X106000000Y-83800000D03*
X103600000Y-97000000D03*
X107200000Y-94600000D03*
D30*
X112100000Y-93700000D03*
D29*
X107200000Y-92200000D03*
X91600000Y-97000000D03*
X107200000Y-88600000D03*
X104800000Y-97000000D03*
X106000000Y-97000000D03*
D30*
X110000000Y-93500000D03*
X111900000Y-92000000D03*
D29*
X92800000Y-83800000D03*
X107200000Y-89800000D03*
X101200000Y-97000000D03*
X100000000Y-83800000D03*
D30*
X149800000Y-93200000D03*
X151500000Y-94800000D03*
D29*
X98800000Y-97000000D03*
X107200000Y-85000000D03*
X107200000Y-87400000D03*
X94000000Y-83800000D03*
X102400000Y-83800000D03*
X107200000Y-86200000D03*
X95200000Y-97000000D03*
X107200000Y-95800000D03*
D30*
X113800000Y-99700000D03*
X119600000Y-97500000D03*
D29*
X107200000Y-83800000D03*
D30*
X151300000Y-93300000D03*
%TO.N,+5V*%
X121300000Y-100200000D03*
X121300000Y-97100000D03*
%TD*%
D31*
%TO.N,MONO*%
X152670000Y-88270000D02*
X159100000Y-94700000D01*
X159100000Y-94700000D02*
X163100000Y-94700000D01*
%TO.N,Net-(U1-CV)*%
X159680000Y-109290000D02*
X162980000Y-109290000D01*
X162980000Y-109290000D02*
X163060000Y-109210000D01*
%TO.N,GND*%
X113831304Y-99668696D02*
X113800000Y-99700000D01*
X112650002Y-98449998D02*
X112600000Y-98500000D01*
X113831304Y-98449998D02*
X114949998Y-98449998D01*
X119249998Y-97149998D02*
X117750000Y-97149998D01*
D32*
X146500000Y-83794888D02*
X150990112Y-83794888D01*
D31*
X119600000Y-97500000D02*
X119249998Y-97149998D01*
X113831304Y-98449998D02*
X113831304Y-99668696D01*
X114949998Y-98449998D02*
X115000000Y-98500000D01*
X112650002Y-98449998D02*
X113831304Y-98449998D01*
D32*
X150990112Y-83794888D02*
X151595000Y-83190000D01*
D31*
%TO.N,Net-(U1-DIS)*%
X159680000Y-106750000D02*
X159680000Y-104210000D01*
X163060000Y-104745000D02*
X166600000Y-101205000D01*
X159680000Y-106750000D02*
X162520000Y-106750000D01*
X162520000Y-106750000D02*
X163060000Y-106210000D01*
X163060000Y-106210000D02*
X163060000Y-104745000D01*
D32*
%TO.N,Net-(U2-CV)*%
X108690000Y-114310000D02*
X108750000Y-114250000D01*
X103815000Y-114310000D02*
X108690000Y-114310000D01*
D31*
%TO.N,Net-(U2-THR)*%
X103815000Y-111770000D02*
X108230000Y-111770000D01*
X108745000Y-108250000D02*
X108745000Y-111245000D01*
X98480000Y-109230000D02*
X101020000Y-111770000D01*
X108230000Y-111770000D02*
X108750000Y-111250000D01*
X96195000Y-109230000D02*
X98480000Y-109230000D01*
X101020000Y-111770000D02*
X103815000Y-111770000D01*
X108745000Y-111245000D02*
X108750000Y-111250000D01*
%TO.N,Net-(U7-CV)*%
X159535000Y-91130000D02*
X159215000Y-90810000D01*
X162875000Y-91130000D02*
X159535000Y-91130000D01*
%TO.N,Net-(U7-DIS)*%
X159215000Y-88270000D02*
X159215000Y-85730000D01*
X166335000Y-82130000D02*
X166335000Y-84670000D01*
X166335000Y-84670000D02*
X162875000Y-88130000D01*
X162875000Y-88130000D02*
X159355000Y-88130000D01*
X159355000Y-88130000D02*
X159215000Y-88270000D01*
D32*
%TO.N,+5V*%
X117750000Y-93312500D02*
X117750000Y-96500000D01*
X152500000Y-119000000D02*
X150879000Y-120621000D01*
X106750000Y-102595000D02*
X103815000Y-105530000D01*
X117750000Y-93312500D02*
X138248870Y-93312500D01*
X120700000Y-96500000D02*
X117750000Y-96500000D01*
X157319888Y-81294888D02*
X159215000Y-83190000D01*
X146294888Y-81500000D02*
X146500000Y-81294888D01*
X152359942Y-109290000D02*
X152060000Y-109290000D01*
X103815000Y-105530000D02*
X103815000Y-106690000D01*
X110900000Y-104900000D02*
X108595000Y-102595000D01*
D31*
X146400000Y-89400000D02*
X148800000Y-87000000D01*
X155405000Y-87000000D02*
X159215000Y-83190000D01*
D32*
X97446000Y-115561000D02*
X110639000Y-115561000D01*
X130121000Y-120621000D02*
X128500000Y-119000000D01*
X96195000Y-114310000D02*
X97446000Y-115561000D01*
X141000000Y-81500000D02*
X146294888Y-81500000D01*
X117750000Y-93312500D02*
X112627500Y-88190000D01*
X114600000Y-119000000D02*
X110900000Y-115300000D01*
X152060000Y-118560000D02*
X152500000Y-119000000D01*
X159680000Y-101670000D02*
X159680000Y-101969942D01*
D31*
X148800000Y-87000000D02*
X155405000Y-87000000D01*
D32*
X146500000Y-81294888D02*
X157319888Y-81294888D01*
X159680000Y-101969942D02*
X152359942Y-109290000D01*
D31*
X146400000Y-89400000D02*
X148500000Y-89400000D01*
X149910000Y-90810000D02*
X151595000Y-90810000D01*
D32*
X116600000Y-104900000D02*
X121300000Y-100200000D01*
X110900000Y-104900000D02*
X116600000Y-104900000D01*
X152060000Y-109290000D02*
X152060000Y-118560000D01*
X112627500Y-88190000D02*
X110000000Y-88190000D01*
D31*
X148500000Y-89400000D02*
X149910000Y-90810000D01*
D32*
X111750000Y-85312500D02*
X111750000Y-86440000D01*
X110900000Y-115300000D02*
X110900000Y-104900000D01*
X150879000Y-120621000D02*
X130121000Y-120621000D01*
X128500000Y-119000000D02*
X114600000Y-119000000D01*
X141620000Y-96683630D02*
X141620000Y-97815000D01*
X111750000Y-86440000D02*
X110000000Y-88190000D01*
X121300000Y-97100000D02*
X120700000Y-96500000D01*
X115562500Y-81500000D02*
X141000000Y-81500000D01*
X108595000Y-102595000D02*
X106750000Y-102595000D01*
X110639000Y-115561000D02*
X110900000Y-115300000D01*
X138248870Y-93312500D02*
X141620000Y-96683630D01*
X111750000Y-85312500D02*
X115562500Y-81500000D01*
D31*
%TO.N,Net-(C13-Pad2)*%
X134000000Y-102200000D02*
X136540000Y-99660000D01*
X134000000Y-104000000D02*
X130995000Y-104000000D01*
X136540000Y-99660000D02*
X136540000Y-97815000D01*
X134000000Y-104000000D02*
X134000000Y-102200000D01*
X136540000Y-97815000D02*
X139080000Y-97815000D01*
%TO.N,Net-(C14-Pad2)*%
X128920000Y-90195000D02*
X131460000Y-90195000D01*
X131460000Y-90195000D02*
X131460000Y-84435000D01*
X131460000Y-84435000D02*
X131580000Y-84315000D01*
X131580000Y-84315000D02*
X135585000Y-84315000D01*
%TO.N,/LED+*%
X89000000Y-85460000D02*
X91060000Y-85460000D01*
X93200000Y-87600000D02*
X95600000Y-87600000D01*
X91060000Y-85460000D02*
X93200000Y-87600000D01*
%TO.N,/LED-*%
X92160000Y-89460000D02*
X104480000Y-89460000D01*
X90700000Y-88000000D02*
X92160000Y-89460000D01*
X89000000Y-88000000D02*
X90700000Y-88000000D01*
%TO.N,/SCAN-*%
X101230000Y-95250000D02*
X104480000Y-92000000D01*
X89025000Y-95250000D02*
X101230000Y-95250000D01*
%TO.N,/SCAN+*%
X95490000Y-92710000D02*
X95500000Y-92700000D01*
X89025000Y-92710000D02*
X95490000Y-92710000D01*
%TO.N,Net-(U2-DIS)*%
X106750000Y-108155000D02*
X106845000Y-108250000D01*
X105865000Y-109230000D02*
X106845000Y-108250000D01*
X106750000Y-104495000D02*
X106750000Y-108155000D01*
X103815000Y-109230000D02*
X105865000Y-109230000D01*
%TO.N,MONO*%
X152670000Y-88270000D02*
X151595000Y-88270000D01*
%TO.N,Net-(U9-IN1+)*%
X101800000Y-87600000D02*
X102390000Y-88190000D01*
D33*
X104470000Y-88200000D02*
X104480000Y-88190000D01*
D31*
X102390000Y-88190000D02*
X104480000Y-88190000D01*
X98700000Y-87600000D02*
X101800000Y-87600000D01*
%TO.N,Net-(U9-IN2+)*%
X98600000Y-92700000D02*
X100600000Y-92700000D01*
X100600000Y-92700000D02*
X102600000Y-90700000D01*
X102600000Y-90700000D02*
X104450000Y-90700000D01*
X104450000Y-90700000D02*
X104480000Y-90730000D01*
%TO.N,DELAY*%
X152060000Y-106750000D02*
X156900000Y-101910000D01*
X156900000Y-101910000D02*
X156900000Y-98000000D01*
%TO.N,Net-(RV1-Pad2)*%
X168715963Y-111800000D02*
X164700000Y-111800000D01*
X164700000Y-111800000D02*
X157500000Y-119000000D01*
X171400000Y-81800000D02*
X171400000Y-109115963D01*
X163795000Y-82130000D02*
X165525000Y-80400000D01*
X171400000Y-109115963D02*
X168715963Y-111800000D01*
X170000000Y-80400000D02*
X171400000Y-81800000D01*
X165525000Y-80400000D02*
X170000000Y-80400000D01*
%TO.N,Net-(RV2-Pad2)*%
X164060000Y-101205000D02*
X162455000Y-99600000D01*
X144500000Y-108000000D02*
X133500000Y-119000000D01*
X152800000Y-108000000D02*
X144500000Y-108000000D01*
X159200000Y-99600000D02*
X157800000Y-101000000D01*
X162455000Y-99600000D02*
X159200000Y-99600000D01*
X157800000Y-103000000D02*
X152800000Y-108000000D01*
X157800000Y-101000000D02*
X157800000Y-103000000D01*
%TO.N,Net-(U1-TR)*%
X131460000Y-97815000D02*
X132975000Y-96300000D01*
X140400000Y-99400000D02*
X145210000Y-104210000D01*
X139430760Y-96300000D02*
X140400000Y-97269240D01*
X140400000Y-97269240D02*
X140400000Y-99400000D01*
X145210000Y-104210000D02*
X152060000Y-104210000D01*
X132975000Y-96300000D02*
X139430760Y-96300000D01*
%TO.N,LO*%
X109250000Y-99250000D02*
X111350002Y-97149998D01*
X94250000Y-109825000D02*
X94250000Y-103500000D01*
X96195000Y-111770000D02*
X94250000Y-109825000D01*
X94250000Y-103500000D02*
X98500000Y-99250000D01*
X98500000Y-99250000D02*
X109250000Y-99250000D01*
X111350002Y-97149998D02*
X113831304Y-97149998D01*
%TO.N,Net-(U3-Pad2)*%
X135795000Y-88400000D02*
X137285000Y-88400000D01*
X134000000Y-90195000D02*
X135795000Y-88400000D01*
X137285000Y-88400000D02*
X139080000Y-90195000D01*
%TO.N,Net-(U3-Pad11)*%
X134000000Y-99000000D02*
X134000000Y-97815000D01*
X129400000Y-99600000D02*
X133400000Y-99600000D01*
X128920000Y-99120000D02*
X129400000Y-99600000D01*
X133400000Y-99600000D02*
X134000000Y-99000000D01*
X128920000Y-97815000D02*
X128920000Y-99120000D01*
%TO.N,Net-(U7-TR)*%
X127600000Y-85800000D02*
X131000000Y-82400000D01*
X138400000Y-82400000D02*
X141730000Y-85730000D01*
X127600000Y-91400000D02*
X127600000Y-85800000D01*
X141730000Y-85730000D02*
X151595000Y-85730000D01*
X131000000Y-82400000D02*
X138400000Y-82400000D01*
X128600000Y-92400000D02*
X127600000Y-91400000D01*
X136540000Y-90195000D02*
X134335000Y-92400000D01*
X134335000Y-92400000D02*
X128600000Y-92400000D01*
%TO.N,LED_ON*%
X108500000Y-89750000D02*
X108500000Y-94500000D01*
X110000000Y-89460000D02*
X108790000Y-89460000D01*
X110500000Y-96500000D02*
X113831304Y-96500000D01*
X108500000Y-94500000D02*
X110500000Y-96500000D01*
X108790000Y-89460000D02*
X108500000Y-89750000D01*
%TO.N,SCAN*%
X116938451Y-97800000D02*
X115500000Y-96361549D01*
X117750000Y-97800000D02*
X116938451Y-97800000D01*
X115500000Y-93750000D02*
X112480000Y-90730000D01*
X115500000Y-96361549D02*
X115500000Y-93750000D01*
X112480000Y-90730000D02*
X110000000Y-90730000D01*
%TO.N,Net-(Q6-G)*%
X153800000Y-98000000D02*
X151200000Y-98000000D01*
X150900000Y-98300000D02*
X149250000Y-98300000D01*
X151200000Y-98000000D02*
X150900000Y-98300000D01*
%TO.N,NDELAY*%
X141620000Y-90195000D02*
X144095000Y-90195000D01*
X141620000Y-88450000D02*
X141620000Y-90195000D01*
X137485000Y-84315000D02*
X141620000Y-88450000D01*
X144095000Y-90195000D02*
X146400000Y-92500000D01*
X146400000Y-96600000D02*
X146600000Y-96800000D01*
X146400000Y-92500000D02*
X146400000Y-96600000D01*
%TO.N,Net-(U5-Y)*%
X126380000Y-97815000D02*
X126380000Y-99980000D01*
X126380000Y-99980000D02*
X129095000Y-102695000D01*
X117750000Y-98449998D02*
X125745002Y-98449998D01*
X125745002Y-98449998D02*
X126380000Y-97815000D01*
X129095000Y-102695000D02*
X129095000Y-104000000D01*
%TD*%
%TA.AperFunction,Conductor*%
%TO.N,GND*%
G36*
X173692539Y-77319685D02*
G01*
X173738294Y-77372489D01*
X173749500Y-77424000D01*
X173749500Y-121076000D01*
X173729815Y-121143039D01*
X173677011Y-121188794D01*
X173625500Y-121200000D01*
X151660730Y-121200000D01*
X151593691Y-121180315D01*
X151547936Y-121127511D01*
X151537992Y-121058353D01*
X151567017Y-120994797D01*
X151573049Y-120988319D01*
X151658485Y-120902881D01*
X151922495Y-120638871D01*
X151983816Y-120605388D01*
X152042263Y-120606778D01*
X152173402Y-120641917D01*
X152390510Y-120670500D01*
X152390517Y-120670500D01*
X152609483Y-120670500D01*
X152609490Y-120670500D01*
X152826598Y-120641917D01*
X153038117Y-120585241D01*
X153240428Y-120501440D01*
X153430071Y-120391950D01*
X153603800Y-120258643D01*
X153758643Y-120103800D01*
X153891950Y-119930071D01*
X154001440Y-119740428D01*
X154085241Y-119538117D01*
X154141917Y-119326598D01*
X154170500Y-119109490D01*
X154170500Y-118890510D01*
X154141917Y-118673402D01*
X154085241Y-118461883D01*
X154001440Y-118259572D01*
X153974656Y-118213181D01*
X153891950Y-118069929D01*
X153758644Y-117896201D01*
X153758638Y-117896194D01*
X153603805Y-117741361D01*
X153603798Y-117741355D01*
X153430070Y-117608049D01*
X153240438Y-117498565D01*
X153240433Y-117498562D01*
X153240428Y-117498560D01*
X153038117Y-117414759D01*
X153038113Y-117414758D01*
X152902406Y-117378395D01*
X152842746Y-117342029D01*
X152812217Y-117279182D01*
X152810500Y-117258620D01*
X152810500Y-110415416D01*
X152830185Y-110348377D01*
X152861613Y-110315099D01*
X152907219Y-110281966D01*
X153051966Y-110137219D01*
X153051968Y-110137215D01*
X153051971Y-110137213D01*
X153110093Y-110057213D01*
X153172287Y-109971610D01*
X153265220Y-109789219D01*
X153328477Y-109594534D01*
X153360500Y-109392352D01*
X153360500Y-109392351D01*
X153361262Y-109387540D01*
X153362418Y-109387723D01*
X153385344Y-109327575D01*
X153396389Y-109314919D01*
X158215778Y-104495529D01*
X158277099Y-104462046D01*
X158346791Y-104467030D01*
X158402724Y-104508902D01*
X158421386Y-104544891D01*
X158474780Y-104709219D01*
X158539123Y-104835500D01*
X158567715Y-104891613D01*
X158688028Y-105057213D01*
X158832784Y-105201969D01*
X158901863Y-105252157D01*
X158978385Y-105307753D01*
X158981725Y-105312083D01*
X158986703Y-105314357D01*
X159002833Y-105339456D01*
X159021051Y-105363081D01*
X159022304Y-105369754D01*
X159024477Y-105373135D01*
X159029500Y-105408070D01*
X159029500Y-105551928D01*
X159009815Y-105618967D01*
X158978385Y-105652246D01*
X158832787Y-105758028D01*
X158832782Y-105758032D01*
X158688028Y-105902786D01*
X158567715Y-106068386D01*
X158474781Y-106250776D01*
X158411522Y-106445465D01*
X158379500Y-106647648D01*
X158379500Y-106852351D01*
X158411522Y-107054534D01*
X158474781Y-107249223D01*
X158525876Y-107349500D01*
X158563600Y-107423538D01*
X158567715Y-107431613D01*
X158688028Y-107597213D01*
X158832786Y-107741971D01*
X158980811Y-107849515D01*
X158998390Y-107862287D01*
X159089840Y-107908883D01*
X159091080Y-107909515D01*
X159141876Y-107957490D01*
X159158671Y-108025311D01*
X159136134Y-108091446D01*
X159091080Y-108130485D01*
X158998386Y-108177715D01*
X158832786Y-108298028D01*
X158688028Y-108442786D01*
X158567715Y-108608386D01*
X158474781Y-108790776D01*
X158411522Y-108985465D01*
X158379500Y-109187648D01*
X158379500Y-109392351D01*
X158411522Y-109594534D01*
X158474781Y-109789223D01*
X158521290Y-109880500D01*
X158547334Y-109931615D01*
X158567715Y-109971613D01*
X158688028Y-110137213D01*
X158832786Y-110281971D01*
X158954535Y-110370425D01*
X158998390Y-110402287D01*
X159063025Y-110435220D01*
X159180776Y-110495218D01*
X159180778Y-110495218D01*
X159180781Y-110495220D01*
X159233385Y-110512312D01*
X159375465Y-110558477D01*
X159457348Y-110571446D01*
X159577648Y-110590500D01*
X159577649Y-110590500D01*
X159782351Y-110590500D01*
X159782352Y-110590500D01*
X159984534Y-110558477D01*
X160179219Y-110495220D01*
X160361610Y-110402287D01*
X160454590Y-110334732D01*
X160527213Y-110281971D01*
X160527215Y-110281968D01*
X160527219Y-110281966D01*
X160671966Y-110137219D01*
X160777753Y-109991613D01*
X160833082Y-109948949D01*
X160878071Y-109940500D01*
X161920052Y-109940500D01*
X161987091Y-109960185D01*
X162020371Y-109991616D01*
X162068030Y-110057215D01*
X162212786Y-110201971D01*
X162322892Y-110281966D01*
X162378390Y-110322287D01*
X162472866Y-110370425D01*
X162560776Y-110415218D01*
X162560778Y-110415218D01*
X162560781Y-110415220D01*
X162622335Y-110435220D01*
X162755465Y-110478477D01*
X162856557Y-110494488D01*
X162957648Y-110510500D01*
X162957649Y-110510500D01*
X163162351Y-110510500D01*
X163162352Y-110510500D01*
X163364534Y-110478477D01*
X163559219Y-110415220D01*
X163741610Y-110322287D01*
X163855318Y-110239674D01*
X163907213Y-110201971D01*
X163907215Y-110201968D01*
X163907219Y-110201966D01*
X164051966Y-110057219D01*
X164051968Y-110057215D01*
X164051971Y-110057213D01*
X164122465Y-109960185D01*
X164172287Y-109891610D01*
X164265220Y-109709219D01*
X164328477Y-109514534D01*
X164360500Y-109312352D01*
X164360500Y-109107682D01*
X166760000Y-109107682D01*
X166760000Y-109312317D01*
X166792009Y-109514417D01*
X166855244Y-109709031D01*
X166948141Y-109891350D01*
X166948147Y-109891359D01*
X166980523Y-109935921D01*
X166980524Y-109935922D01*
X167660000Y-109256446D01*
X167660000Y-109262661D01*
X167687259Y-109364394D01*
X167739920Y-109455606D01*
X167814394Y-109530080D01*
X167905606Y-109582741D01*
X168007339Y-109610000D01*
X168013553Y-109610000D01*
X167334076Y-110289474D01*
X167378650Y-110321859D01*
X167560968Y-110414755D01*
X167755582Y-110477990D01*
X167957683Y-110510000D01*
X168162317Y-110510000D01*
X168364417Y-110477990D01*
X168559031Y-110414755D01*
X168741349Y-110321859D01*
X168785921Y-110289474D01*
X168106447Y-109610000D01*
X168112661Y-109610000D01*
X168214394Y-109582741D01*
X168305606Y-109530080D01*
X168380080Y-109455606D01*
X168432741Y-109364394D01*
X168460000Y-109262661D01*
X168460000Y-109256448D01*
X169139474Y-109935922D01*
X169139474Y-109935921D01*
X169171859Y-109891349D01*
X169264755Y-109709031D01*
X169327990Y-109514417D01*
X169360000Y-109312317D01*
X169360000Y-109107682D01*
X169327990Y-108905582D01*
X169264755Y-108710968D01*
X169171859Y-108528650D01*
X169139474Y-108484077D01*
X169139474Y-108484076D01*
X168460000Y-109163551D01*
X168460000Y-109157339D01*
X168432741Y-109055606D01*
X168380080Y-108964394D01*
X168305606Y-108889920D01*
X168214394Y-108837259D01*
X168112661Y-108810000D01*
X168106446Y-108810000D01*
X168785922Y-108130524D01*
X168785921Y-108130523D01*
X168741359Y-108098147D01*
X168741350Y-108098141D01*
X168559031Y-108005244D01*
X168364417Y-107942009D01*
X168162317Y-107910000D01*
X167957683Y-107910000D01*
X167755582Y-107942009D01*
X167560968Y-108005244D01*
X167378644Y-108098143D01*
X167334077Y-108130523D01*
X167334077Y-108130524D01*
X168013554Y-108810000D01*
X168007339Y-108810000D01*
X167905606Y-108837259D01*
X167814394Y-108889920D01*
X167739920Y-108964394D01*
X167687259Y-109055606D01*
X167660000Y-109157339D01*
X167660000Y-109163553D01*
X166980524Y-108484077D01*
X166980523Y-108484077D01*
X166948143Y-108528644D01*
X166855244Y-108710968D01*
X166792009Y-108905582D01*
X166760000Y-109107682D01*
X164360500Y-109107682D01*
X164360500Y-109107648D01*
X164341050Y-108984849D01*
X164328477Y-108905465D01*
X164291657Y-108792147D01*
X164265220Y-108710781D01*
X164265218Y-108710778D01*
X164265218Y-108710776D01*
X164213047Y-108608386D01*
X164172287Y-108528390D01*
X164172285Y-108528387D01*
X164172284Y-108528385D01*
X164051971Y-108362786D01*
X163907213Y-108218028D01*
X163741613Y-108097715D01*
X163741612Y-108097714D01*
X163741610Y-108097713D01*
X163684653Y-108068691D01*
X163559223Y-108004781D01*
X163364534Y-107941522D01*
X163189995Y-107913878D01*
X163162352Y-107909500D01*
X162957648Y-107909500D01*
X162933329Y-107913351D01*
X162755465Y-107941522D01*
X162560776Y-108004781D01*
X162378386Y-108097715D01*
X162212786Y-108218028D01*
X162068034Y-108362780D01*
X161947711Y-108528393D01*
X161934145Y-108555018D01*
X161932195Y-108558847D01*
X161925598Y-108571794D01*
X161877624Y-108622591D01*
X161815113Y-108639500D01*
X160878071Y-108639500D01*
X160811032Y-108619815D01*
X160777754Y-108588386D01*
X160671966Y-108442781D01*
X160527219Y-108298034D01*
X160527213Y-108298028D01*
X160361614Y-108177715D01*
X160345719Y-108169616D01*
X160268917Y-108130483D01*
X160218123Y-108082511D01*
X160201328Y-108014690D01*
X160223865Y-107948555D01*
X160268917Y-107909516D01*
X160361610Y-107862287D01*
X160444198Y-107802284D01*
X160527213Y-107741971D01*
X160527215Y-107741968D01*
X160527219Y-107741966D01*
X160671966Y-107597219D01*
X160777753Y-107451613D01*
X160833082Y-107408949D01*
X160878071Y-107400500D01*
X162502122Y-107400500D01*
X162556227Y-107413490D01*
X162556283Y-107413357D01*
X162557123Y-107413705D01*
X162558417Y-107414015D01*
X162560781Y-107415220D01*
X162755466Y-107478477D01*
X162957648Y-107510500D01*
X162957649Y-107510500D01*
X163162351Y-107510500D01*
X163162352Y-107510500D01*
X163364534Y-107478477D01*
X163559219Y-107415220D01*
X163741610Y-107322287D01*
X163877942Y-107223237D01*
X163907213Y-107201971D01*
X163907215Y-107201968D01*
X163907219Y-107201966D01*
X164051966Y-107057219D01*
X164051968Y-107057215D01*
X164051971Y-107057213D01*
X164137130Y-106940000D01*
X164172287Y-106891610D01*
X164265220Y-106709219D01*
X164328477Y-106514534D01*
X164360500Y-106312352D01*
X164360500Y-106107682D01*
X166760000Y-106107682D01*
X166760000Y-106312317D01*
X166792009Y-106514417D01*
X166855244Y-106709031D01*
X166948141Y-106891350D01*
X166948147Y-106891359D01*
X166980523Y-106935921D01*
X166980524Y-106935922D01*
X167660000Y-106256446D01*
X167660000Y-106262661D01*
X167687259Y-106364394D01*
X167739920Y-106455606D01*
X167814394Y-106530080D01*
X167905606Y-106582741D01*
X168007339Y-106610000D01*
X168013553Y-106610000D01*
X167334076Y-107289474D01*
X167378650Y-107321859D01*
X167560968Y-107414755D01*
X167755582Y-107477990D01*
X167957683Y-107510000D01*
X168162317Y-107510000D01*
X168364417Y-107477990D01*
X168559031Y-107414755D01*
X168741349Y-107321859D01*
X168785921Y-107289474D01*
X168106447Y-106610000D01*
X168112661Y-106610000D01*
X168214394Y-106582741D01*
X168305606Y-106530080D01*
X168380080Y-106455606D01*
X168432741Y-106364394D01*
X168460000Y-106262661D01*
X168460000Y-106256448D01*
X169139474Y-106935922D01*
X169139474Y-106935921D01*
X169171859Y-106891349D01*
X169264755Y-106709031D01*
X169327990Y-106514417D01*
X169360000Y-106312317D01*
X169360000Y-106107682D01*
X169327990Y-105905582D01*
X169264755Y-105710968D01*
X169171859Y-105528650D01*
X169139474Y-105484077D01*
X169139474Y-105484076D01*
X168460000Y-106163551D01*
X168460000Y-106157339D01*
X168432741Y-106055606D01*
X168380080Y-105964394D01*
X168305606Y-105889920D01*
X168214394Y-105837259D01*
X168112661Y-105810000D01*
X168106446Y-105810000D01*
X168785922Y-105130524D01*
X168785921Y-105130523D01*
X168741359Y-105098147D01*
X168741350Y-105098141D01*
X168559031Y-105005244D01*
X168364417Y-104942009D01*
X168162317Y-104910000D01*
X167957683Y-104910000D01*
X167755582Y-104942009D01*
X167560968Y-105005244D01*
X167378644Y-105098143D01*
X167334077Y-105130523D01*
X167334077Y-105130524D01*
X168013554Y-105810000D01*
X168007339Y-105810000D01*
X167905606Y-105837259D01*
X167814394Y-105889920D01*
X167739920Y-105964394D01*
X167687259Y-106055606D01*
X167660000Y-106157339D01*
X167660000Y-106163553D01*
X166980524Y-105484077D01*
X166980523Y-105484077D01*
X166948143Y-105528644D01*
X166855244Y-105710968D01*
X166792009Y-105905582D01*
X166760000Y-106107682D01*
X164360500Y-106107682D01*
X164360500Y-106107648D01*
X164341439Y-105987302D01*
X164328477Y-105905465D01*
X164297059Y-105808772D01*
X164265220Y-105710781D01*
X164265218Y-105710778D01*
X164265218Y-105710776D01*
X164208156Y-105598787D01*
X164172287Y-105528390D01*
X164164556Y-105517749D01*
X164051971Y-105362786D01*
X163959225Y-105270040D01*
X163907219Y-105218034D01*
X163790165Y-105132990D01*
X163787619Y-105130926D01*
X163769565Y-105104762D01*
X163750155Y-105079590D01*
X163749864Y-105076210D01*
X163747938Y-105073418D01*
X163746895Y-105041638D01*
X163744176Y-105009976D01*
X163745758Y-105006977D01*
X163745647Y-105003586D01*
X163761945Y-104976298D01*
X163776781Y-104948181D01*
X163777951Y-104946994D01*
X166468127Y-102256819D01*
X166529450Y-102223334D01*
X166555808Y-102220500D01*
X166696054Y-102220500D01*
X166696055Y-102220500D01*
X166885801Y-102190447D01*
X167068509Y-102131082D01*
X167239681Y-102043865D01*
X167395102Y-101930945D01*
X167530945Y-101795102D01*
X167643865Y-101639681D01*
X167731082Y-101468509D01*
X167745416Y-101424394D01*
X167752069Y-101403919D01*
X167791506Y-101346243D01*
X167855864Y-101319044D01*
X167924711Y-101330958D01*
X167976187Y-101378202D01*
X167987931Y-101403919D01*
X168008915Y-101468504D01*
X168016023Y-101482454D01*
X168096135Y-101639681D01*
X168209055Y-101795102D01*
X168344898Y-101930945D01*
X168500319Y-102043865D01*
X168551612Y-102070000D01*
X168671493Y-102131083D01*
X168762845Y-102160764D01*
X168854199Y-102190447D01*
X169043945Y-102220500D01*
X169043946Y-102220500D01*
X169236054Y-102220500D01*
X169236055Y-102220500D01*
X169425801Y-102190447D01*
X169608509Y-102131082D01*
X169779681Y-102043865D01*
X169935102Y-101930945D01*
X170070945Y-101795102D01*
X170183865Y-101639681D01*
X170271082Y-101468509D01*
X170330447Y-101285801D01*
X170360500Y-101096055D01*
X170360500Y-100903945D01*
X170330447Y-100714199D01*
X170294271Y-100602860D01*
X170271083Y-100531493D01*
X170237091Y-100464780D01*
X170183865Y-100360319D01*
X170070945Y-100204898D01*
X169935102Y-100069055D01*
X169779681Y-99956135D01*
X169608506Y-99868916D01*
X169425802Y-99809553D01*
X169330928Y-99794526D01*
X169236055Y-99779500D01*
X169043945Y-99779500D01*
X168980696Y-99789517D01*
X168854197Y-99809553D01*
X168671493Y-99868916D01*
X168500318Y-99956135D01*
X168411645Y-100020560D01*
X168344898Y-100069055D01*
X168344896Y-100069057D01*
X168344895Y-100069057D01*
X168209057Y-100204895D01*
X168209057Y-100204896D01*
X168209055Y-100204898D01*
X168161621Y-100270185D01*
X168096135Y-100360318D01*
X168008916Y-100531493D01*
X167987931Y-100596081D01*
X167948494Y-100653756D01*
X167884135Y-100680955D01*
X167815289Y-100669041D01*
X167763813Y-100621797D01*
X167752069Y-100596081D01*
X167731083Y-100531493D01*
X167697091Y-100464780D01*
X167643865Y-100360319D01*
X167530945Y-100204898D01*
X167395102Y-100069055D01*
X167239681Y-99956135D01*
X167068506Y-99868916D01*
X166885802Y-99809553D01*
X166790928Y-99794526D01*
X166696055Y-99779500D01*
X166503945Y-99779500D01*
X166440696Y-99789517D01*
X166314197Y-99809553D01*
X166131493Y-99868916D01*
X165960318Y-99956135D01*
X165871645Y-100020560D01*
X165804898Y-100069055D01*
X165804896Y-100069057D01*
X165804895Y-100069057D01*
X165669057Y-100204895D01*
X165669057Y-100204896D01*
X165669055Y-100204898D01*
X165621621Y-100270185D01*
X165556135Y-100360318D01*
X165468916Y-100531493D01*
X165447931Y-100596081D01*
X165408494Y-100653756D01*
X165344135Y-100680955D01*
X165275289Y-100669041D01*
X165223813Y-100621797D01*
X165212069Y-100596081D01*
X165191083Y-100531493D01*
X165157091Y-100464780D01*
X165103865Y-100360319D01*
X164990945Y-100204898D01*
X164855102Y-100069055D01*
X164699681Y-99956135D01*
X164528506Y-99868916D01*
X164345802Y-99809553D01*
X164250928Y-99794526D01*
X164156055Y-99779500D01*
X163963945Y-99779500D01*
X163938001Y-99783608D01*
X163774199Y-99809552D01*
X163703285Y-99832593D01*
X163633444Y-99834587D01*
X163577288Y-99802342D01*
X162869674Y-99094727D01*
X162869673Y-99094726D01*
X162868283Y-99093797D01*
X162763127Y-99023535D01*
X162754677Y-99020035D01*
X162644744Y-98974499D01*
X162644738Y-98974497D01*
X162519071Y-98949500D01*
X162519069Y-98949500D01*
X159135931Y-98949500D01*
X159135929Y-98949500D01*
X159010261Y-98974497D01*
X159010255Y-98974499D01*
X158891874Y-99023534D01*
X158785326Y-99094726D01*
X158785325Y-99094727D01*
X157762181Y-100117872D01*
X157700858Y-100151357D01*
X157631166Y-100146373D01*
X157575233Y-100104501D01*
X157550816Y-100039037D01*
X157550500Y-100030191D01*
X157550500Y-99420908D01*
X157570185Y-99353869D01*
X157614271Y-99315363D01*
X157613187Y-99313605D01*
X157619332Y-99309814D01*
X157619334Y-99309814D01*
X157768656Y-99217712D01*
X157892712Y-99093656D01*
X157984814Y-98944334D01*
X158039999Y-98777797D01*
X158050500Y-98675009D01*
X158050499Y-97324992D01*
X158039999Y-97222203D01*
X157984814Y-97055666D01*
X157892712Y-96906344D01*
X157768656Y-96782288D01*
X157630607Y-96697139D01*
X157619336Y-96690187D01*
X157619331Y-96690185D01*
X157617511Y-96689582D01*
X157452797Y-96635001D01*
X157452795Y-96635000D01*
X157350010Y-96624500D01*
X156449998Y-96624500D01*
X156449980Y-96624501D01*
X156347203Y-96635000D01*
X156347200Y-96635001D01*
X156180668Y-96690185D01*
X156180663Y-96690187D01*
X156031342Y-96782289D01*
X155907289Y-96906342D01*
X155815187Y-97055663D01*
X155815186Y-97055666D01*
X155760001Y-97222203D01*
X155760001Y-97222204D01*
X155760000Y-97222204D01*
X155749500Y-97324983D01*
X155749500Y-98675001D01*
X155749501Y-98675018D01*
X155760000Y-98777796D01*
X155760001Y-98777799D01*
X155815185Y-98944331D01*
X155815187Y-98944336D01*
X155833792Y-98974499D01*
X155907288Y-99093656D01*
X156031344Y-99217712D01*
X156180666Y-99309814D01*
X156180667Y-99309814D01*
X156186813Y-99313605D01*
X156185706Y-99315399D01*
X156230337Y-99354687D01*
X156249500Y-99420908D01*
X156249500Y-101589191D01*
X156229815Y-101656230D01*
X156213181Y-101676872D01*
X153572181Y-104317872D01*
X153510858Y-104351357D01*
X153441166Y-104346373D01*
X153385233Y-104304501D01*
X153360816Y-104239037D01*
X153360500Y-104230191D01*
X153360500Y-104107648D01*
X153328477Y-103905465D01*
X153279391Y-103754394D01*
X153265220Y-103710781D01*
X153265218Y-103710778D01*
X153265218Y-103710776D01*
X153183833Y-103551051D01*
X153172287Y-103528390D01*
X153152228Y-103500781D01*
X153051971Y-103362786D01*
X152907217Y-103218032D01*
X152907212Y-103218028D01*
X152813051Y-103149616D01*
X152770385Y-103094286D01*
X152764406Y-103024673D01*
X152797012Y-102962878D01*
X152846933Y-102931592D01*
X152929117Y-102904359D01*
X152929124Y-102904356D01*
X153078345Y-102812315D01*
X153202315Y-102688345D01*
X153294356Y-102539124D01*
X153294358Y-102539119D01*
X153349505Y-102372697D01*
X153349506Y-102372690D01*
X153359999Y-102269986D01*
X153360000Y-102269973D01*
X153360000Y-101920000D01*
X152375686Y-101920000D01*
X152380080Y-101915606D01*
X152432741Y-101824394D01*
X152460000Y-101722661D01*
X152460000Y-101617339D01*
X152432741Y-101515606D01*
X152380080Y-101424394D01*
X152375686Y-101420000D01*
X153359999Y-101420000D01*
X153359999Y-101070028D01*
X153359998Y-101070013D01*
X153349505Y-100967302D01*
X153294358Y-100800880D01*
X153294356Y-100800875D01*
X153202315Y-100651654D01*
X153078345Y-100527684D01*
X152929124Y-100435643D01*
X152929119Y-100435641D01*
X152762697Y-100380494D01*
X152762690Y-100380493D01*
X152659986Y-100370000D01*
X152310000Y-100370000D01*
X152310000Y-101354314D01*
X152305606Y-101349920D01*
X152214394Y-101297259D01*
X152112661Y-101270000D01*
X152007339Y-101270000D01*
X151905606Y-101297259D01*
X151814394Y-101349920D01*
X151810000Y-101354314D01*
X151810000Y-100370000D01*
X151460028Y-100370000D01*
X151460012Y-100370001D01*
X151357302Y-100380494D01*
X151190880Y-100435641D01*
X151190875Y-100435643D01*
X151041654Y-100527684D01*
X150917684Y-100651654D01*
X150825643Y-100800875D01*
X150825641Y-100800880D01*
X150770494Y-100967302D01*
X150770493Y-100967309D01*
X150760000Y-101070013D01*
X150760000Y-101420000D01*
X151744314Y-101420000D01*
X151739920Y-101424394D01*
X151687259Y-101515606D01*
X151660000Y-101617339D01*
X151660000Y-101722661D01*
X151687259Y-101824394D01*
X151739920Y-101915606D01*
X151744314Y-101920000D01*
X150760001Y-101920000D01*
X150760001Y-102269986D01*
X150770494Y-102372697D01*
X150825641Y-102539119D01*
X150825643Y-102539124D01*
X150917684Y-102688345D01*
X151041654Y-102812315D01*
X151190875Y-102904356D01*
X151190882Y-102904359D01*
X151273067Y-102931592D01*
X151330512Y-102971364D01*
X151357336Y-103035880D01*
X151345021Y-103104656D01*
X151306949Y-103149616D01*
X151212787Y-103218028D01*
X151212782Y-103218032D01*
X151068034Y-103362780D01*
X151062207Y-103370801D01*
X150962246Y-103508386D01*
X150906918Y-103551051D01*
X150861929Y-103559500D01*
X145530808Y-103559500D01*
X145463769Y-103539815D01*
X145443127Y-103523181D01*
X141214553Y-99294607D01*
X141181068Y-99233284D01*
X141186052Y-99163592D01*
X141227924Y-99107659D01*
X141293388Y-99083242D01*
X141321626Y-99084452D01*
X141517648Y-99115500D01*
X141517649Y-99115500D01*
X141722351Y-99115500D01*
X141722352Y-99115500D01*
X141924534Y-99083477D01*
X142119219Y-99020220D01*
X142301610Y-98927287D01*
X142397538Y-98857592D01*
X142467213Y-98806971D01*
X142467215Y-98806968D01*
X142467219Y-98806966D01*
X142611966Y-98662219D01*
X142611968Y-98662215D01*
X142611971Y-98662213D01*
X142683757Y-98563406D01*
X142732287Y-98496610D01*
X142825220Y-98314219D01*
X142888477Y-98119534D01*
X142920500Y-97917352D01*
X142920500Y-97712648D01*
X142904746Y-97613181D01*
X142888477Y-97510465D01*
X142844549Y-97375271D01*
X142825220Y-97315781D01*
X142825218Y-97315778D01*
X142825218Y-97315776D01*
X142779515Y-97226080D01*
X142732287Y-97133390D01*
X142690926Y-97076461D01*
X142611971Y-96967786D01*
X142467217Y-96823032D01*
X142467212Y-96823028D01*
X142421615Y-96789900D01*
X142378949Y-96734571D01*
X142370500Y-96689582D01*
X142370500Y-96609709D01*
X142341659Y-96464722D01*
X142341658Y-96464721D01*
X142341658Y-96464717D01*
X142285084Y-96328135D01*
X142232542Y-96249500D01*
X142204594Y-96207671D01*
X142202954Y-96205216D01*
X142202952Y-96205214D01*
X138727291Y-92729552D01*
X138727284Y-92729546D01*
X138653599Y-92680312D01*
X138653599Y-92680313D01*
X138604361Y-92647413D01*
X138467787Y-92590843D01*
X138467777Y-92590840D01*
X138322790Y-92562000D01*
X138322788Y-92562000D01*
X135392308Y-92562000D01*
X135325269Y-92542315D01*
X135279514Y-92489511D01*
X135269570Y-92420353D01*
X135298595Y-92356797D01*
X135304627Y-92350319D01*
X135505446Y-92149500D01*
X136152809Y-91502135D01*
X136214130Y-91468652D01*
X136259886Y-91467345D01*
X136340954Y-91480185D01*
X136437648Y-91495500D01*
X136437649Y-91495500D01*
X136642351Y-91495500D01*
X136642352Y-91495500D01*
X136844534Y-91463477D01*
X137039219Y-91400220D01*
X137221610Y-91307287D01*
X137324750Y-91232352D01*
X137387213Y-91186971D01*
X137387215Y-91186968D01*
X137387219Y-91186966D01*
X137531966Y-91042219D01*
X137531968Y-91042215D01*
X137531971Y-91042213D01*
X137652284Y-90876614D01*
X137652283Y-90876614D01*
X137652287Y-90876610D01*
X137699516Y-90783917D01*
X137747489Y-90733123D01*
X137815310Y-90716328D01*
X137881445Y-90738865D01*
X137920483Y-90783917D01*
X137941654Y-90825466D01*
X137967715Y-90876614D01*
X138088028Y-91042213D01*
X138232786Y-91186971D01*
X138366880Y-91284394D01*
X138398390Y-91307287D01*
X138500864Y-91359500D01*
X138580776Y-91400218D01*
X138580778Y-91400218D01*
X138580781Y-91400220D01*
X138671856Y-91429812D01*
X138775465Y-91463477D01*
X138876557Y-91479488D01*
X138977648Y-91495500D01*
X138977649Y-91495500D01*
X139182351Y-91495500D01*
X139182352Y-91495500D01*
X139384534Y-91463477D01*
X139579219Y-91400220D01*
X139761610Y-91307287D01*
X139864750Y-91232352D01*
X139927213Y-91186971D01*
X139927215Y-91186968D01*
X139927219Y-91186966D01*
X140071966Y-91042219D01*
X140140021Y-90948547D01*
X140195349Y-90905882D01*
X140264963Y-90899902D01*
X140326758Y-90932507D01*
X140358044Y-90982427D01*
X140377856Y-91042215D01*
X140385186Y-91064333D01*
X140385187Y-91064336D01*
X140416149Y-91114534D01*
X140477288Y-91213656D01*
X140601344Y-91337712D01*
X140750666Y-91429814D01*
X140917203Y-91484999D01*
X141019991Y-91495500D01*
X142220008Y-91495499D01*
X142322797Y-91484999D01*
X142489334Y-91429814D01*
X142638656Y-91337712D01*
X142762712Y-91213656D01*
X142854814Y-91064334D01*
X142899164Y-90930494D01*
X142938936Y-90873051D01*
X143003451Y-90846228D01*
X143016869Y-90845500D01*
X143774192Y-90845500D01*
X143841231Y-90865185D01*
X143861873Y-90881819D01*
X144988181Y-92008127D01*
X145021666Y-92069450D01*
X145024500Y-92095808D01*
X145024500Y-92950001D01*
X145024501Y-92950019D01*
X145035000Y-93052796D01*
X145035001Y-93052799D01*
X145090185Y-93219331D01*
X145090187Y-93219336D01*
X145105847Y-93244725D01*
X145182288Y-93368656D01*
X145306344Y-93492712D01*
X145455666Y-93584814D01*
X145622203Y-93639999D01*
X145638101Y-93641623D01*
X145702793Y-93668018D01*
X145742945Y-93725198D01*
X145749500Y-93764981D01*
X145749500Y-95225500D01*
X145729815Y-95292539D01*
X145677011Y-95338294D01*
X145625500Y-95349500D01*
X145152129Y-95349500D01*
X145152123Y-95349501D01*
X145092516Y-95355908D01*
X144957671Y-95406202D01*
X144957664Y-95406206D01*
X144842455Y-95492452D01*
X144842452Y-95492455D01*
X144756206Y-95607664D01*
X144756202Y-95607671D01*
X144705908Y-95742517D01*
X144699501Y-95802116D01*
X144699500Y-95802129D01*
X144699500Y-97797870D01*
X144699501Y-97797876D01*
X144705908Y-97857483D01*
X144756202Y-97992328D01*
X144756206Y-97992335D01*
X144842452Y-98107544D01*
X144842455Y-98107547D01*
X144957664Y-98193793D01*
X144957671Y-98193797D01*
X145092517Y-98244091D01*
X145092516Y-98244091D01*
X145099444Y-98244835D01*
X145152127Y-98250500D01*
X148047872Y-98250499D01*
X148062242Y-98248954D01*
X148131001Y-98261357D01*
X148182140Y-98308966D01*
X148199500Y-98372243D01*
X148199500Y-98697869D01*
X148199501Y-98697876D01*
X148205908Y-98757483D01*
X148256202Y-98892328D01*
X148256206Y-98892335D01*
X148342452Y-99007544D01*
X148342455Y-99007547D01*
X148457664Y-99093793D01*
X148457671Y-99093797D01*
X148592517Y-99144091D01*
X148592516Y-99144091D01*
X148599444Y-99144835D01*
X148652127Y-99150500D01*
X149847872Y-99150499D01*
X149907483Y-99144091D01*
X150042331Y-99093796D01*
X150157546Y-99007546D01*
X150163052Y-99000191D01*
X150218985Y-98958319D01*
X150262320Y-98950500D01*
X150964071Y-98950500D01*
X151049748Y-98933457D01*
X151089744Y-98925501D01*
X151208127Y-98876465D01*
X151225783Y-98864668D01*
X151225784Y-98864668D01*
X151292296Y-98820225D01*
X151314669Y-98805277D01*
X151433128Y-98686817D01*
X151494449Y-98653334D01*
X151520808Y-98650500D01*
X152535019Y-98650500D01*
X152602058Y-98670185D01*
X152647813Y-98722989D01*
X152658377Y-98761899D01*
X152660000Y-98777796D01*
X152660001Y-98777799D01*
X152715185Y-98944331D01*
X152715187Y-98944336D01*
X152733792Y-98974499D01*
X152807288Y-99093656D01*
X152931344Y-99217712D01*
X153080666Y-99309814D01*
X153247203Y-99364999D01*
X153349991Y-99375500D01*
X154250008Y-99375499D01*
X154250016Y-99375498D01*
X154250019Y-99375498D01*
X154306302Y-99369748D01*
X154352797Y-99364999D01*
X154519334Y-99309814D01*
X154668656Y-99217712D01*
X154792712Y-99093656D01*
X154884814Y-98944334D01*
X154939999Y-98777797D01*
X154950500Y-98675009D01*
X154950499Y-97324992D01*
X154939999Y-97222203D01*
X154884814Y-97055666D01*
X154792712Y-96906344D01*
X154668656Y-96782288D01*
X154530607Y-96697139D01*
X154519336Y-96690187D01*
X154519331Y-96690185D01*
X154517511Y-96689582D01*
X154352797Y-96635001D01*
X154352795Y-96635000D01*
X154250010Y-96624500D01*
X153349998Y-96624500D01*
X153349980Y-96624501D01*
X153247203Y-96635000D01*
X153247200Y-96635001D01*
X153080668Y-96690185D01*
X153080663Y-96690187D01*
X152931342Y-96782289D01*
X152807289Y-96906342D01*
X152715187Y-97055663D01*
X152715186Y-97055666D01*
X152672738Y-97183767D01*
X152660001Y-97222204D01*
X152660000Y-97222205D01*
X152658377Y-97238101D01*
X152631982Y-97302793D01*
X152574802Y-97342945D01*
X152535019Y-97349500D01*
X151135929Y-97349500D01*
X151010261Y-97374497D01*
X151010255Y-97374499D01*
X150891874Y-97423534D01*
X150785328Y-97494725D01*
X150730054Y-97550000D01*
X150666871Y-97613182D01*
X150605551Y-97646666D01*
X150579192Y-97649500D01*
X150299002Y-97649500D01*
X150231963Y-97629815D01*
X150186208Y-97577011D01*
X150176264Y-97507853D01*
X150199735Y-97451189D01*
X150208598Y-97439349D01*
X150243796Y-97392331D01*
X150294091Y-97257483D01*
X150300500Y-97197873D01*
X150300499Y-96402128D01*
X150294091Y-96342517D01*
X150271588Y-96282184D01*
X150243797Y-96207671D01*
X150243795Y-96207668D01*
X150243656Y-96207482D01*
X150181081Y-96123893D01*
X150156664Y-96058431D01*
X150171515Y-95990158D01*
X150181082Y-95975271D01*
X150243352Y-95892089D01*
X150243354Y-95892086D01*
X150293596Y-95757379D01*
X150293598Y-95757372D01*
X150299999Y-95697844D01*
X150300000Y-95697827D01*
X150300000Y-95550000D01*
X148462694Y-95550000D01*
X148395655Y-95530315D01*
X148363429Y-95500313D01*
X148357546Y-95492454D01*
X148357544Y-95492452D01*
X148357543Y-95492451D01*
X148242335Y-95406206D01*
X148242328Y-95406202D01*
X148107482Y-95355908D01*
X148107483Y-95355908D01*
X148047883Y-95349501D01*
X148047881Y-95349500D01*
X148047873Y-95349500D01*
X148047865Y-95349500D01*
X147174500Y-95349500D01*
X147107461Y-95329815D01*
X147061706Y-95277011D01*
X147050500Y-95225500D01*
X147050500Y-94902155D01*
X148200000Y-94902155D01*
X148200000Y-95050000D01*
X149000000Y-95050000D01*
X149500000Y-95050000D01*
X150300000Y-95050000D01*
X150300000Y-94902172D01*
X150299999Y-94902155D01*
X150293598Y-94842627D01*
X150293596Y-94842620D01*
X150243354Y-94707913D01*
X150243350Y-94707906D01*
X150157190Y-94592812D01*
X150157187Y-94592809D01*
X150042093Y-94506649D01*
X150042086Y-94506645D01*
X149907379Y-94456403D01*
X149907372Y-94456401D01*
X149847844Y-94450000D01*
X149500000Y-94450000D01*
X149500000Y-95050000D01*
X149000000Y-95050000D01*
X149000000Y-94450000D01*
X148652155Y-94450000D01*
X148592627Y-94456401D01*
X148592620Y-94456403D01*
X148457913Y-94506645D01*
X148457906Y-94506649D01*
X148342812Y-94592809D01*
X148342809Y-94592812D01*
X148256649Y-94707906D01*
X148256645Y-94707913D01*
X148206403Y-94842620D01*
X148206401Y-94842627D01*
X148200000Y-94902155D01*
X147050500Y-94902155D01*
X147050500Y-93764981D01*
X147070185Y-93697942D01*
X147122989Y-93652187D01*
X147161899Y-93641623D01*
X147162391Y-93641572D01*
X147177797Y-93639999D01*
X147344334Y-93584814D01*
X147493656Y-93492712D01*
X147617712Y-93368656D01*
X147709814Y-93219334D01*
X147764999Y-93052797D01*
X147775500Y-92950009D01*
X147775499Y-92049992D01*
X147774459Y-92039815D01*
X147764999Y-91947203D01*
X147764998Y-91947200D01*
X147734751Y-91855921D01*
X147709814Y-91780666D01*
X147617712Y-91631344D01*
X147493656Y-91507288D01*
X147377270Y-91435501D01*
X147344336Y-91415187D01*
X147344331Y-91415185D01*
X147317584Y-91406322D01*
X147177797Y-91360001D01*
X147177795Y-91360000D01*
X147075016Y-91349500D01*
X147075009Y-91349500D01*
X146220808Y-91349500D01*
X146153769Y-91329815D01*
X146133127Y-91313181D01*
X145576567Y-90756621D01*
X145543082Y-90695298D01*
X145548066Y-90625606D01*
X145589938Y-90569673D01*
X145655402Y-90545256D01*
X145676851Y-90545582D01*
X145680524Y-90545957D01*
X145724991Y-90550500D01*
X147075008Y-90550499D01*
X147177797Y-90539999D01*
X147344334Y-90484814D01*
X147493656Y-90392712D01*
X147617712Y-90268656D01*
X147709814Y-90119334D01*
X147709814Y-90119332D01*
X147713605Y-90113187D01*
X147715399Y-90114293D01*
X147754687Y-90069663D01*
X147820908Y-90050500D01*
X148179192Y-90050500D01*
X148246231Y-90070185D01*
X148266873Y-90086819D01*
X148844620Y-90664565D01*
X149404724Y-91224669D01*
X149454529Y-91274474D01*
X149495332Y-91315277D01*
X149601866Y-91386461D01*
X149601875Y-91386466D01*
X149617056Y-91392754D01*
X149720256Y-91435501D01*
X149720260Y-91435501D01*
X149720261Y-91435502D01*
X149845928Y-91460500D01*
X149845931Y-91460500D01*
X150396929Y-91460500D01*
X150463968Y-91480185D01*
X150497245Y-91511613D01*
X150584235Y-91631344D01*
X150603034Y-91657219D01*
X150747786Y-91801971D01*
X150902749Y-91914556D01*
X150913390Y-91922287D01*
X151020792Y-91977011D01*
X151095776Y-92015218D01*
X151095778Y-92015218D01*
X151095781Y-92015220D01*
X151125875Y-92024998D01*
X151290465Y-92078477D01*
X151391557Y-92094488D01*
X151492648Y-92110500D01*
X151492649Y-92110500D01*
X151697351Y-92110500D01*
X151697352Y-92110500D01*
X151899534Y-92078477D01*
X152094219Y-92015220D01*
X152276610Y-91922287D01*
X152369590Y-91854732D01*
X152442213Y-91801971D01*
X152442215Y-91801968D01*
X152442219Y-91801966D01*
X152586966Y-91657219D01*
X152586968Y-91657215D01*
X152586971Y-91657213D01*
X152651795Y-91567989D01*
X152707287Y-91491610D01*
X152800220Y-91309219D01*
X152863477Y-91114534D01*
X152895500Y-90912352D01*
X152895500Y-90707648D01*
X152883325Y-90630781D01*
X152863477Y-90505465D01*
X152801819Y-90315703D01*
X152800220Y-90310781D01*
X152800218Y-90310778D01*
X152800218Y-90310776D01*
X152741227Y-90195001D01*
X152707287Y-90128390D01*
X152697045Y-90114293D01*
X152586971Y-89962786D01*
X152442213Y-89818028D01*
X152276614Y-89697715D01*
X152258006Y-89688234D01*
X152183917Y-89650483D01*
X152133123Y-89602511D01*
X152116328Y-89534690D01*
X152138865Y-89468555D01*
X152183917Y-89429516D01*
X152276610Y-89382287D01*
X152398407Y-89293797D01*
X152442211Y-89261972D01*
X152442211Y-89261971D01*
X152442219Y-89261966D01*
X152504441Y-89199743D01*
X152565760Y-89166261D01*
X152635452Y-89171245D01*
X152679800Y-89199746D01*
X155640055Y-92160000D01*
X158594724Y-95114669D01*
X158645980Y-95165925D01*
X158685332Y-95205277D01*
X158791866Y-95276461D01*
X158791872Y-95276464D01*
X158791873Y-95276465D01*
X158910256Y-95325501D01*
X158910260Y-95325501D01*
X158910261Y-95325502D01*
X159035928Y-95350500D01*
X159035931Y-95350500D01*
X161625501Y-95350500D01*
X161692540Y-95370185D01*
X161738295Y-95422989D01*
X161749501Y-95474500D01*
X161749501Y-95597876D01*
X161755908Y-95657483D01*
X161806202Y-95792328D01*
X161806206Y-95792335D01*
X161892452Y-95907544D01*
X161892455Y-95907547D01*
X162007664Y-95993793D01*
X162007671Y-95993797D01*
X162142517Y-96044091D01*
X162142516Y-96044091D01*
X162149444Y-96044835D01*
X162202127Y-96050500D01*
X163997872Y-96050499D01*
X164057483Y-96044091D01*
X164192331Y-95993796D01*
X164307546Y-95907546D01*
X164393796Y-95792331D01*
X164444091Y-95657483D01*
X164450500Y-95597873D01*
X164450499Y-94689744D01*
X164450499Y-93802155D01*
X166550000Y-93802155D01*
X166550000Y-94450000D01*
X167466988Y-94450000D01*
X167434075Y-94507007D01*
X167400000Y-94634174D01*
X167400000Y-94765826D01*
X167434075Y-94892993D01*
X167466988Y-94950000D01*
X166550000Y-94950000D01*
X166550000Y-95597844D01*
X166556401Y-95657372D01*
X166556403Y-95657379D01*
X166606645Y-95792086D01*
X166606649Y-95792093D01*
X166692809Y-95907187D01*
X166692812Y-95907190D01*
X166807906Y-95993350D01*
X166807913Y-95993354D01*
X166942620Y-96043596D01*
X166942627Y-96043598D01*
X167002155Y-96049999D01*
X167002172Y-96050000D01*
X167650000Y-96050000D01*
X167650000Y-95133012D01*
X167707007Y-95165925D01*
X167834174Y-95200000D01*
X167965826Y-95200000D01*
X168092993Y-95165925D01*
X168150000Y-95133012D01*
X168150000Y-96050000D01*
X168797828Y-96050000D01*
X168797844Y-96049999D01*
X168857372Y-96043598D01*
X168857379Y-96043596D01*
X168992086Y-95993354D01*
X168992093Y-95993350D01*
X169107187Y-95907190D01*
X169107190Y-95907187D01*
X169193350Y-95792093D01*
X169193354Y-95792086D01*
X169243596Y-95657379D01*
X169243598Y-95657372D01*
X169249999Y-95597844D01*
X169250000Y-95597827D01*
X169250000Y-94950000D01*
X168333012Y-94950000D01*
X168365925Y-94892993D01*
X168400000Y-94765826D01*
X168400000Y-94634174D01*
X168365925Y-94507007D01*
X168333012Y-94450000D01*
X169250000Y-94450000D01*
X169250000Y-93802172D01*
X169249999Y-93802155D01*
X169243598Y-93742627D01*
X169243596Y-93742620D01*
X169193354Y-93607913D01*
X169193350Y-93607906D01*
X169107190Y-93492812D01*
X169107187Y-93492809D01*
X168992093Y-93406649D01*
X168992086Y-93406645D01*
X168857379Y-93356403D01*
X168857372Y-93356401D01*
X168797844Y-93350000D01*
X168150000Y-93350000D01*
X168150000Y-94266988D01*
X168092993Y-94234075D01*
X167965826Y-94200000D01*
X167834174Y-94200000D01*
X167707007Y-94234075D01*
X167650000Y-94266988D01*
X167650000Y-93350000D01*
X167002155Y-93350000D01*
X166942627Y-93356401D01*
X166942620Y-93356403D01*
X166807913Y-93406645D01*
X166807906Y-93406649D01*
X166692812Y-93492809D01*
X166692809Y-93492812D01*
X166606649Y-93607906D01*
X166606645Y-93607913D01*
X166556403Y-93742620D01*
X166556401Y-93742627D01*
X166550000Y-93802155D01*
X164450499Y-93802155D01*
X164450499Y-93802129D01*
X164450498Y-93802123D01*
X164450497Y-93802116D01*
X164444091Y-93742517D01*
X164437631Y-93725198D01*
X164393797Y-93607671D01*
X164393793Y-93607664D01*
X164307547Y-93492455D01*
X164307544Y-93492452D01*
X164192335Y-93406206D01*
X164192328Y-93406202D01*
X164057482Y-93355908D01*
X164057483Y-93355908D01*
X163997883Y-93349501D01*
X163997881Y-93349500D01*
X163997873Y-93349500D01*
X163997864Y-93349500D01*
X162202129Y-93349500D01*
X162202123Y-93349501D01*
X162142516Y-93355908D01*
X162007671Y-93406202D01*
X162007664Y-93406206D01*
X161892455Y-93492452D01*
X161892452Y-93492455D01*
X161806206Y-93607664D01*
X161806202Y-93607671D01*
X161755908Y-93742517D01*
X161749744Y-93799853D01*
X161749501Y-93802123D01*
X161749500Y-93802135D01*
X161749500Y-93925500D01*
X161729815Y-93992539D01*
X161677011Y-94038294D01*
X161625500Y-94049500D01*
X159420807Y-94049500D01*
X159353768Y-94029815D01*
X159333126Y-94013181D01*
X153182128Y-87862181D01*
X153148643Y-87800858D01*
X153153627Y-87731166D01*
X153195499Y-87675233D01*
X153260963Y-87650816D01*
X153269809Y-87650500D01*
X155469071Y-87650500D01*
X155567260Y-87630968D01*
X155594744Y-87625501D01*
X155713127Y-87576465D01*
X155819669Y-87505277D01*
X157702819Y-85622125D01*
X157764142Y-85588641D01*
X157833833Y-85593625D01*
X157889767Y-85635497D01*
X157914184Y-85700961D01*
X157914500Y-85709807D01*
X157914500Y-85832351D01*
X157946522Y-86034534D01*
X158009781Y-86229223D01*
X158102715Y-86411613D01*
X158223028Y-86577213D01*
X158367784Y-86721969D01*
X158436863Y-86772157D01*
X158513385Y-86827753D01*
X158516725Y-86832083D01*
X158521703Y-86834357D01*
X158537833Y-86859456D01*
X158556051Y-86883081D01*
X158557304Y-86889754D01*
X158559477Y-86893135D01*
X158564500Y-86928070D01*
X158564500Y-87071928D01*
X158544815Y-87138967D01*
X158513385Y-87172246D01*
X158367787Y-87278028D01*
X158367782Y-87278032D01*
X158223028Y-87422786D01*
X158102715Y-87588386D01*
X158009781Y-87770776D01*
X157946522Y-87965465D01*
X157922667Y-88116082D01*
X157914500Y-88167648D01*
X157914500Y-88372352D01*
X157915363Y-88377799D01*
X157946522Y-88574534D01*
X158009781Y-88769223D01*
X158061033Y-88869808D01*
X158101888Y-88949991D01*
X158102715Y-88951613D01*
X158223028Y-89117213D01*
X158367786Y-89261971D01*
X158522749Y-89374556D01*
X158533390Y-89382287D01*
X158583013Y-89407571D01*
X158626080Y-89429515D01*
X158676876Y-89477490D01*
X158693671Y-89545311D01*
X158671134Y-89611446D01*
X158626080Y-89650485D01*
X158533386Y-89697715D01*
X158367786Y-89818028D01*
X158223028Y-89962786D01*
X158102715Y-90128386D01*
X158009781Y-90310776D01*
X157946522Y-90505465D01*
X157914500Y-90707648D01*
X157914500Y-90912351D01*
X157946522Y-91114534D01*
X158009781Y-91309223D01*
X158068178Y-91423831D01*
X158099715Y-91485727D01*
X158102715Y-91491613D01*
X158223028Y-91657213D01*
X158367786Y-91801971D01*
X158522749Y-91914556D01*
X158533390Y-91922287D01*
X158640792Y-91977011D01*
X158715776Y-92015218D01*
X158715778Y-92015218D01*
X158715781Y-92015220D01*
X158745875Y-92024998D01*
X158910465Y-92078477D01*
X159011557Y-92094488D01*
X159112648Y-92110500D01*
X159112649Y-92110500D01*
X159317351Y-92110500D01*
X159317352Y-92110500D01*
X159519534Y-92078477D01*
X159714219Y-92015220D01*
X159896610Y-91922287D01*
X159987956Y-91855921D01*
X160059170Y-91804182D01*
X160124977Y-91780702D01*
X160132055Y-91780500D01*
X161676929Y-91780500D01*
X161743968Y-91800185D01*
X161777245Y-91831613D01*
X161861224Y-91947200D01*
X161883034Y-91977219D01*
X162027786Y-92121971D01*
X162182749Y-92234556D01*
X162193390Y-92242287D01*
X162309607Y-92301503D01*
X162375776Y-92335218D01*
X162375778Y-92335218D01*
X162375781Y-92335220D01*
X162480137Y-92369127D01*
X162570465Y-92398477D01*
X162653585Y-92411642D01*
X162772648Y-92430500D01*
X162772649Y-92430500D01*
X162977351Y-92430500D01*
X162977352Y-92430500D01*
X163179534Y-92398477D01*
X163374219Y-92335220D01*
X163556610Y-92242287D01*
X163669868Y-92160001D01*
X163722213Y-92121971D01*
X163722215Y-92121968D01*
X163722219Y-92121966D01*
X163866966Y-91977219D01*
X163866968Y-91977215D01*
X163866971Y-91977213D01*
X163941958Y-91874000D01*
X163987287Y-91811610D01*
X164080220Y-91629219D01*
X164143477Y-91434534D01*
X164175500Y-91232352D01*
X164175500Y-91027682D01*
X166575000Y-91027682D01*
X166575000Y-91232317D01*
X166607009Y-91434417D01*
X166670244Y-91629031D01*
X166763141Y-91811350D01*
X166763147Y-91811359D01*
X166795523Y-91855921D01*
X166795524Y-91855922D01*
X167475000Y-91176446D01*
X167475000Y-91182661D01*
X167502259Y-91284394D01*
X167554920Y-91375606D01*
X167629394Y-91450080D01*
X167720606Y-91502741D01*
X167822339Y-91530000D01*
X167828553Y-91530000D01*
X167149076Y-92209474D01*
X167193650Y-92241859D01*
X167375968Y-92334755D01*
X167570582Y-92397990D01*
X167772683Y-92430000D01*
X167977317Y-92430000D01*
X168179417Y-92397990D01*
X168374031Y-92334755D01*
X168556349Y-92241859D01*
X168600921Y-92209474D01*
X167921447Y-91530000D01*
X167927661Y-91530000D01*
X168029394Y-91502741D01*
X168120606Y-91450080D01*
X168195080Y-91375606D01*
X168247741Y-91284394D01*
X168275000Y-91182661D01*
X168275000Y-91176447D01*
X168954474Y-91855921D01*
X168986859Y-91811349D01*
X169079755Y-91629031D01*
X169142990Y-91434417D01*
X169175000Y-91232317D01*
X169175000Y-91027682D01*
X169142990Y-90825582D01*
X169079755Y-90630968D01*
X168986859Y-90448650D01*
X168954474Y-90404077D01*
X168954474Y-90404076D01*
X168275000Y-91083551D01*
X168275000Y-91077339D01*
X168247741Y-90975606D01*
X168195080Y-90884394D01*
X168120606Y-90809920D01*
X168029394Y-90757259D01*
X167927661Y-90730000D01*
X167921446Y-90730000D01*
X168600922Y-90050524D01*
X168600921Y-90050523D01*
X168556359Y-90018147D01*
X168556350Y-90018141D01*
X168374031Y-89925244D01*
X168179417Y-89862009D01*
X167977317Y-89830000D01*
X167772683Y-89830000D01*
X167570582Y-89862009D01*
X167375968Y-89925244D01*
X167193644Y-90018143D01*
X167149077Y-90050523D01*
X167149077Y-90050524D01*
X167828554Y-90730000D01*
X167822339Y-90730000D01*
X167720606Y-90757259D01*
X167629394Y-90809920D01*
X167554920Y-90884394D01*
X167502259Y-90975606D01*
X167475000Y-91077339D01*
X167475000Y-91083553D01*
X166795524Y-90404077D01*
X166795523Y-90404077D01*
X166763143Y-90448644D01*
X166670244Y-90630968D01*
X166607009Y-90825582D01*
X166575000Y-91027682D01*
X164175500Y-91027682D01*
X164175500Y-91027648D01*
X164158311Y-90919124D01*
X164143477Y-90825465D01*
X164083037Y-90639452D01*
X164080220Y-90630781D01*
X164080218Y-90630778D01*
X164080218Y-90630776D01*
X164033964Y-90539999D01*
X163987287Y-90448390D01*
X163955092Y-90404077D01*
X163866971Y-90282786D01*
X163722213Y-90138028D01*
X163556613Y-90017715D01*
X163556612Y-90017714D01*
X163556610Y-90017713D01*
X163499653Y-89988691D01*
X163374223Y-89924781D01*
X163179534Y-89861522D01*
X163004995Y-89833878D01*
X162977352Y-89829500D01*
X162772648Y-89829500D01*
X162748329Y-89833351D01*
X162570465Y-89861522D01*
X162375776Y-89924781D01*
X162193386Y-90017715D01*
X162027786Y-90138028D01*
X161883034Y-90282780D01*
X161859115Y-90315703D01*
X161777246Y-90428386D01*
X161721918Y-90471051D01*
X161676929Y-90479500D01*
X160565132Y-90479500D01*
X160498093Y-90459815D01*
X160452338Y-90407011D01*
X160447201Y-90393818D01*
X160420221Y-90310783D01*
X160405953Y-90282780D01*
X160327287Y-90128390D01*
X160317045Y-90114293D01*
X160206971Y-89962786D01*
X160062213Y-89818028D01*
X159896614Y-89697715D01*
X159878006Y-89688234D01*
X159803917Y-89650483D01*
X159753123Y-89602511D01*
X159736328Y-89534690D01*
X159758865Y-89468555D01*
X159803917Y-89429516D01*
X159896610Y-89382287D01*
X159917770Y-89366913D01*
X160062213Y-89261971D01*
X160062215Y-89261968D01*
X160062219Y-89261966D01*
X160206966Y-89117219D01*
X160206968Y-89117215D01*
X160206971Y-89117213D01*
X160327284Y-88951614D01*
X160327285Y-88951613D01*
X160327287Y-88951610D01*
X160379975Y-88848203D01*
X160427948Y-88797409D01*
X160490459Y-88780500D01*
X161676929Y-88780500D01*
X161743968Y-88800185D01*
X161777245Y-88831613D01*
X161882743Y-88976819D01*
X161883034Y-88977219D01*
X162027786Y-89121971D01*
X162145574Y-89207547D01*
X162193390Y-89242287D01*
X162294476Y-89293793D01*
X162375776Y-89335218D01*
X162375778Y-89335218D01*
X162375781Y-89335220D01*
X162480137Y-89369127D01*
X162570465Y-89398477D01*
X162627882Y-89407571D01*
X162772648Y-89430500D01*
X162772649Y-89430500D01*
X162977351Y-89430500D01*
X162977352Y-89430500D01*
X163179534Y-89398477D01*
X163374219Y-89335220D01*
X163556610Y-89242287D01*
X163661252Y-89166261D01*
X163722213Y-89121971D01*
X163722215Y-89121968D01*
X163722219Y-89121966D01*
X163866966Y-88977219D01*
X163866968Y-88977215D01*
X163866971Y-88977213D01*
X163923317Y-88899658D01*
X163987287Y-88811610D01*
X164080220Y-88629219D01*
X164143477Y-88434534D01*
X164175500Y-88232352D01*
X164175500Y-88027682D01*
X166575000Y-88027682D01*
X166575000Y-88232317D01*
X166607009Y-88434417D01*
X166670244Y-88629031D01*
X166763141Y-88811350D01*
X166763147Y-88811359D01*
X166795523Y-88855921D01*
X166795524Y-88855922D01*
X167475000Y-88176446D01*
X167475000Y-88182661D01*
X167502259Y-88284394D01*
X167554920Y-88375606D01*
X167629394Y-88450080D01*
X167720606Y-88502741D01*
X167822339Y-88530000D01*
X167828553Y-88530000D01*
X167149076Y-89209474D01*
X167193650Y-89241859D01*
X167375968Y-89334755D01*
X167570582Y-89397990D01*
X167772683Y-89430000D01*
X167977317Y-89430000D01*
X168179417Y-89397990D01*
X168374031Y-89334755D01*
X168556349Y-89241859D01*
X168600921Y-89209474D01*
X167921447Y-88530000D01*
X167927661Y-88530000D01*
X168029394Y-88502741D01*
X168120606Y-88450080D01*
X168195080Y-88375606D01*
X168247741Y-88284394D01*
X168275000Y-88182661D01*
X168275000Y-88176447D01*
X168954474Y-88855921D01*
X168986859Y-88811349D01*
X169079755Y-88629031D01*
X169142990Y-88434417D01*
X169175000Y-88232317D01*
X169175000Y-88027682D01*
X169142990Y-87825582D01*
X169079755Y-87630968D01*
X168986859Y-87448650D01*
X168954474Y-87404077D01*
X168954474Y-87404076D01*
X168275000Y-88083551D01*
X168275000Y-88077339D01*
X168247741Y-87975606D01*
X168195080Y-87884394D01*
X168120606Y-87809920D01*
X168029394Y-87757259D01*
X167927661Y-87730000D01*
X167921446Y-87730000D01*
X168600922Y-87050524D01*
X168600921Y-87050523D01*
X168556359Y-87018147D01*
X168556350Y-87018141D01*
X168374031Y-86925244D01*
X168179417Y-86862009D01*
X167977317Y-86830000D01*
X167772683Y-86830000D01*
X167570582Y-86862009D01*
X167375968Y-86925244D01*
X167193644Y-87018143D01*
X167149077Y-87050523D01*
X167149077Y-87050524D01*
X167828554Y-87730000D01*
X167822339Y-87730000D01*
X167720606Y-87757259D01*
X167629394Y-87809920D01*
X167554920Y-87884394D01*
X167502259Y-87975606D01*
X167475000Y-88077339D01*
X167475000Y-88083553D01*
X166795524Y-87404077D01*
X166795523Y-87404077D01*
X166763143Y-87448644D01*
X166670244Y-87630968D01*
X166607009Y-87825582D01*
X166575000Y-88027682D01*
X164175500Y-88027682D01*
X164175500Y-88027648D01*
X164147307Y-87849649D01*
X164147269Y-87849401D01*
X164151862Y-87814933D01*
X164156300Y-87780593D01*
X164156471Y-87780342D01*
X164156498Y-87780144D01*
X164157059Y-87779482D01*
X164182134Y-87742810D01*
X166840277Y-85084669D01*
X166911465Y-84978127D01*
X166960501Y-84859744D01*
X166962505Y-84849669D01*
X166969594Y-84814031D01*
X166985500Y-84734071D01*
X166985500Y-83229185D01*
X167005185Y-83162146D01*
X167036616Y-83128866D01*
X167056390Y-83114500D01*
X167130102Y-83060945D01*
X167265945Y-82925102D01*
X167378865Y-82769681D01*
X167466082Y-82598509D01*
X167466981Y-82595742D01*
X167487069Y-82533919D01*
X167526506Y-82476243D01*
X167590864Y-82449044D01*
X167659711Y-82460958D01*
X167711187Y-82508202D01*
X167722931Y-82533919D01*
X167743915Y-82598504D01*
X167790933Y-82690781D01*
X167831135Y-82769681D01*
X167944055Y-82925102D01*
X168079898Y-83060945D01*
X168235319Y-83173865D01*
X168370338Y-83242661D01*
X168406493Y-83261083D01*
X168480060Y-83284986D01*
X168589199Y-83320447D01*
X168778945Y-83350500D01*
X168778946Y-83350500D01*
X168971054Y-83350500D01*
X168971055Y-83350500D01*
X169160801Y-83320447D01*
X169343509Y-83261082D01*
X169514681Y-83173865D01*
X169670102Y-83060945D01*
X169805945Y-82925102D01*
X169918865Y-82769681D01*
X170006082Y-82598509D01*
X170065447Y-82415801D01*
X170095500Y-82226055D01*
X170095500Y-82033945D01*
X170065447Y-81844199D01*
X170030268Y-81735928D01*
X170004577Y-81656857D01*
X170006526Y-81656223D01*
X169999959Y-81595325D01*
X170031215Y-81532836D01*
X170091293Y-81497165D01*
X170161119Y-81499638D01*
X170209677Y-81529623D01*
X170713181Y-82033127D01*
X170746666Y-82094450D01*
X170749500Y-82120808D01*
X170749500Y-108795155D01*
X170729815Y-108862194D01*
X170713181Y-108882836D01*
X168482836Y-111113181D01*
X168421513Y-111146666D01*
X168395155Y-111149500D01*
X164635929Y-111149500D01*
X164510261Y-111174497D01*
X164510255Y-111174499D01*
X164482657Y-111185931D01*
X164482656Y-111185931D01*
X164391881Y-111223530D01*
X164391863Y-111223540D01*
X164285332Y-111294721D01*
X164285325Y-111294727D01*
X158186631Y-117393421D01*
X158125308Y-117426906D01*
X158055616Y-117421922D01*
X158051497Y-117420301D01*
X158038126Y-117414762D01*
X158038119Y-117414760D01*
X158038117Y-117414759D01*
X157826598Y-117358083D01*
X157790314Y-117353306D01*
X157609497Y-117329500D01*
X157609490Y-117329500D01*
X157390510Y-117329500D01*
X157390502Y-117329500D01*
X157189505Y-117355963D01*
X157173402Y-117358083D01*
X157128699Y-117370060D01*
X156961884Y-117414758D01*
X156871957Y-117452008D01*
X156759572Y-117498560D01*
X156759569Y-117498561D01*
X156759561Y-117498565D01*
X156569929Y-117608049D01*
X156396201Y-117741355D01*
X156396194Y-117741361D01*
X156241361Y-117896194D01*
X156241355Y-117896201D01*
X156108049Y-118069929D01*
X155998565Y-118259561D01*
X155998560Y-118259573D01*
X155914758Y-118461884D01*
X155858084Y-118673399D01*
X155858082Y-118673410D01*
X155829500Y-118890502D01*
X155829500Y-119109497D01*
X155853306Y-119290314D01*
X155858083Y-119326598D01*
X155858084Y-119326600D01*
X155914757Y-119538112D01*
X155914759Y-119538117D01*
X155998560Y-119740428D01*
X155998562Y-119740433D01*
X155998565Y-119740438D01*
X156108049Y-119930070D01*
X156241355Y-120103798D01*
X156241361Y-120103805D01*
X156396194Y-120258638D01*
X156396201Y-120258644D01*
X156569929Y-120391950D01*
X156759561Y-120501434D01*
X156759563Y-120501434D01*
X156759572Y-120501440D01*
X156961883Y-120585241D01*
X157173402Y-120641917D01*
X157390510Y-120670500D01*
X157390517Y-120670500D01*
X157609483Y-120670500D01*
X157609490Y-120670500D01*
X157826598Y-120641917D01*
X158038117Y-120585241D01*
X158240428Y-120501440D01*
X158430071Y-120391950D01*
X158603800Y-120258643D01*
X158758643Y-120103800D01*
X158891950Y-119930071D01*
X159001440Y-119740428D01*
X159085241Y-119538117D01*
X159141917Y-119326598D01*
X159170500Y-119109490D01*
X159170500Y-118890510D01*
X159170499Y-118890502D01*
X160829500Y-118890502D01*
X160829500Y-119109497D01*
X160853306Y-119290314D01*
X160858083Y-119326598D01*
X160858084Y-119326600D01*
X160914757Y-119538112D01*
X160914759Y-119538117D01*
X160998560Y-119740428D01*
X160998562Y-119740433D01*
X160998565Y-119740438D01*
X161108049Y-119930070D01*
X161241355Y-120103798D01*
X161241361Y-120103805D01*
X161396194Y-120258638D01*
X161396201Y-120258644D01*
X161569929Y-120391950D01*
X161759561Y-120501434D01*
X161759563Y-120501434D01*
X161759572Y-120501440D01*
X161961883Y-120585241D01*
X162173402Y-120641917D01*
X162390510Y-120670500D01*
X162390517Y-120670500D01*
X162609483Y-120670500D01*
X162609490Y-120670500D01*
X162826598Y-120641917D01*
X163038117Y-120585241D01*
X163240428Y-120501440D01*
X163430071Y-120391950D01*
X163603800Y-120258643D01*
X163758643Y-120103800D01*
X163891950Y-119930071D01*
X164001440Y-119740428D01*
X164085241Y-119538117D01*
X164141917Y-119326598D01*
X164170500Y-119109490D01*
X164170500Y-118890510D01*
X164141917Y-118673402D01*
X164085241Y-118461883D01*
X164001440Y-118259572D01*
X163974656Y-118213181D01*
X163891950Y-118069929D01*
X163758644Y-117896201D01*
X163758638Y-117896194D01*
X163603805Y-117741361D01*
X163603798Y-117741355D01*
X163430070Y-117608049D01*
X163240438Y-117498565D01*
X163240433Y-117498562D01*
X163240428Y-117498560D01*
X163055410Y-117421922D01*
X163038115Y-117414758D01*
X162932357Y-117386421D01*
X162826598Y-117358083D01*
X162790314Y-117353306D01*
X162609497Y-117329500D01*
X162609490Y-117329500D01*
X162390510Y-117329500D01*
X162390502Y-117329500D01*
X162189505Y-117355963D01*
X162173402Y-117358083D01*
X162128699Y-117370060D01*
X161961884Y-117414758D01*
X161871957Y-117452008D01*
X161759572Y-117498560D01*
X161759569Y-117498561D01*
X161759561Y-117498565D01*
X161569929Y-117608049D01*
X161396201Y-117741355D01*
X161396194Y-117741361D01*
X161241361Y-117896194D01*
X161241355Y-117896201D01*
X161108049Y-118069929D01*
X160998565Y-118259561D01*
X160998560Y-118259573D01*
X160914758Y-118461884D01*
X160858084Y-118673399D01*
X160858082Y-118673410D01*
X160829500Y-118890502D01*
X159170499Y-118890502D01*
X159141917Y-118673402D01*
X159085241Y-118461883D01*
X159079698Y-118448502D01*
X159072227Y-118379036D01*
X159103500Y-118316555D01*
X159106549Y-118313396D01*
X164933127Y-112486819D01*
X164994450Y-112453334D01*
X165020808Y-112450500D01*
X168780034Y-112450500D01*
X168888373Y-112428949D01*
X168905707Y-112425501D01*
X169024090Y-112376465D01*
X169045309Y-112362287D01*
X169130632Y-112305277D01*
X171905277Y-109530632D01*
X171976466Y-109424089D01*
X172020123Y-109318691D01*
X172025501Y-109305707D01*
X172050500Y-109180032D01*
X172050500Y-81735931D01*
X172050500Y-81735928D01*
X172025502Y-81610261D01*
X172025501Y-81610260D01*
X172025501Y-81610256D01*
X171976465Y-81491873D01*
X171976461Y-81491866D01*
X171968200Y-81479503D01*
X171968198Y-81479500D01*
X171905277Y-81385331D01*
X171905275Y-81385329D01*
X171905273Y-81385326D01*
X170414673Y-79894726D01*
X170414669Y-79894723D01*
X170308127Y-79823535D01*
X170189744Y-79774499D01*
X170189738Y-79774497D01*
X170064071Y-79749500D01*
X170064069Y-79749500D01*
X165460931Y-79749500D01*
X165460929Y-79749500D01*
X165335261Y-79774497D01*
X165335255Y-79774499D01*
X165216870Y-79823535D01*
X165110331Y-79894722D01*
X165110324Y-79894728D01*
X164112267Y-80892785D01*
X164050944Y-80926270D01*
X164005188Y-80927577D01*
X163891055Y-80909500D01*
X163698945Y-80909500D01*
X163651289Y-80917048D01*
X163509197Y-80939553D01*
X163326493Y-80998916D01*
X163155318Y-81086135D01*
X163093339Y-81131166D01*
X162999898Y-81199055D01*
X162999896Y-81199057D01*
X162999895Y-81199057D01*
X162864057Y-81334895D01*
X162864057Y-81334896D01*
X162864055Y-81334898D01*
X162827417Y-81385326D01*
X162751135Y-81490318D01*
X162663916Y-81661493D01*
X162604553Y-81844197D01*
X162574500Y-82033945D01*
X162574500Y-82226054D01*
X162604553Y-82415802D01*
X162663916Y-82598506D01*
X162710933Y-82690781D01*
X162751135Y-82769681D01*
X162864055Y-82925102D01*
X162999898Y-83060945D01*
X163155319Y-83173865D01*
X163290338Y-83242661D01*
X163326493Y-83261083D01*
X163400060Y-83284986D01*
X163509199Y-83320447D01*
X163698945Y-83350500D01*
X163698946Y-83350500D01*
X163891054Y-83350500D01*
X163891055Y-83350500D01*
X164080801Y-83320447D01*
X164263509Y-83261082D01*
X164434681Y-83173865D01*
X164590102Y-83060945D01*
X164725945Y-82925102D01*
X164838865Y-82769681D01*
X164926082Y-82598509D01*
X164926981Y-82595742D01*
X164947069Y-82533919D01*
X164986506Y-82476243D01*
X165050864Y-82449044D01*
X165119711Y-82460958D01*
X165171187Y-82508202D01*
X165182931Y-82533919D01*
X165203915Y-82598504D01*
X165250933Y-82690781D01*
X165291135Y-82769681D01*
X165404055Y-82925102D01*
X165404057Y-82925104D01*
X165539901Y-83060948D01*
X165633384Y-83128866D01*
X165676051Y-83184196D01*
X165684500Y-83229185D01*
X165684500Y-84349191D01*
X165664815Y-84416230D01*
X165648181Y-84436872D01*
X163262190Y-86822862D01*
X163200867Y-86856347D01*
X163155111Y-86857654D01*
X162993660Y-86832083D01*
X162977352Y-86829500D01*
X162772648Y-86829500D01*
X162756340Y-86832083D01*
X162570465Y-86861522D01*
X162375776Y-86924781D01*
X162193386Y-87017715D01*
X162027786Y-87138028D01*
X161883034Y-87282780D01*
X161848862Y-87329815D01*
X161777246Y-87428386D01*
X161721918Y-87471051D01*
X161676929Y-87479500D01*
X160311356Y-87479500D01*
X160244317Y-87459815D01*
X160211039Y-87428386D01*
X160206971Y-87422787D01*
X160206964Y-87422779D01*
X160062217Y-87278032D01*
X160062212Y-87278028D01*
X159916615Y-87172246D01*
X159913274Y-87167914D01*
X159908297Y-87165641D01*
X159892164Y-87140538D01*
X159873949Y-87116916D01*
X159872696Y-87110244D01*
X159870523Y-87106863D01*
X159865500Y-87071928D01*
X159865500Y-86928070D01*
X159885185Y-86861031D01*
X159916613Y-86827753D01*
X160062219Y-86721966D01*
X160206966Y-86577219D01*
X160206968Y-86577215D01*
X160206971Y-86577213D01*
X160280427Y-86476108D01*
X160327287Y-86411610D01*
X160420220Y-86229219D01*
X160483477Y-86034534D01*
X160515500Y-85832352D01*
X160515500Y-85627648D01*
X160505781Y-85566286D01*
X160483477Y-85425465D01*
X160454127Y-85335137D01*
X160420220Y-85230781D01*
X160420218Y-85230778D01*
X160420218Y-85230776D01*
X160379286Y-85150444D01*
X160327287Y-85048390D01*
X160312753Y-85028385D01*
X160206971Y-84882786D01*
X160062213Y-84738028D01*
X159896614Y-84617715D01*
X159848094Y-84592993D01*
X159803917Y-84570483D01*
X159753123Y-84522511D01*
X159736328Y-84454690D01*
X159758865Y-84388555D01*
X159803917Y-84349516D01*
X159896610Y-84302287D01*
X159951594Y-84262339D01*
X160062213Y-84181971D01*
X160062215Y-84181968D01*
X160062219Y-84181966D01*
X160206966Y-84037219D01*
X160206968Y-84037215D01*
X160206971Y-84037213D01*
X160281904Y-83934075D01*
X160327287Y-83871610D01*
X160420220Y-83689219D01*
X160483477Y-83494534D01*
X160515500Y-83292352D01*
X160515500Y-83087648D01*
X160507257Y-83035606D01*
X160483477Y-82885465D01*
X160440338Y-82752697D01*
X160420220Y-82690781D01*
X160420218Y-82690778D01*
X160420218Y-82690776D01*
X160372536Y-82597196D01*
X160327287Y-82508390D01*
X160303931Y-82476243D01*
X160206971Y-82342786D01*
X160062213Y-82198028D01*
X159896613Y-82077715D01*
X159896612Y-82077714D01*
X159896610Y-82077713D01*
X159810711Y-82033945D01*
X159714223Y-81984781D01*
X159519534Y-81921522D01*
X159344995Y-81893878D01*
X159317352Y-81889500D01*
X159112648Y-81889500D01*
X159056971Y-81898318D01*
X158987678Y-81889363D01*
X158949893Y-81863526D01*
X157798309Y-80711940D01*
X157798302Y-80711934D01*
X157724617Y-80662700D01*
X157724617Y-80662701D01*
X157675379Y-80629801D01*
X157538805Y-80573231D01*
X157538795Y-80573228D01*
X157393808Y-80544388D01*
X157393806Y-80544388D01*
X147922351Y-80544388D01*
X147855312Y-80524703D01*
X147809557Y-80471899D01*
X147799061Y-80433640D01*
X147794091Y-80387404D01*
X147743797Y-80252559D01*
X147743793Y-80252552D01*
X147657547Y-80137343D01*
X147657544Y-80137340D01*
X147542335Y-80051094D01*
X147542328Y-80051090D01*
X147407482Y-80000796D01*
X147407483Y-80000796D01*
X147347883Y-79994389D01*
X147347881Y-79994388D01*
X147347873Y-79994388D01*
X147347864Y-79994388D01*
X145652129Y-79994388D01*
X145652123Y-79994389D01*
X145592516Y-80000796D01*
X145457671Y-80051090D01*
X145457664Y-80051094D01*
X145342455Y-80137340D01*
X145342452Y-80137343D01*
X145256206Y-80252552D01*
X145256202Y-80252559D01*
X145205908Y-80387405D01*
X145199501Y-80447004D01*
X145199500Y-80447023D01*
X145199500Y-80625500D01*
X145179815Y-80692539D01*
X145127011Y-80738294D01*
X145075500Y-80749500D01*
X142474499Y-80749500D01*
X142407460Y-80729815D01*
X142361705Y-80677011D01*
X142350499Y-80625500D01*
X142350499Y-80602129D01*
X142350498Y-80602123D01*
X142350497Y-80602116D01*
X142344091Y-80542517D01*
X142317752Y-80471899D01*
X142293797Y-80407671D01*
X142293793Y-80407664D01*
X142207547Y-80292455D01*
X142207544Y-80292452D01*
X142092335Y-80206206D01*
X142092328Y-80206202D01*
X141957482Y-80155908D01*
X141957483Y-80155908D01*
X141897883Y-80149501D01*
X141897881Y-80149500D01*
X141897873Y-80149500D01*
X141897864Y-80149500D01*
X140102129Y-80149500D01*
X140102123Y-80149501D01*
X140042516Y-80155908D01*
X139907671Y-80206202D01*
X139907664Y-80206206D01*
X139792455Y-80292452D01*
X139792452Y-80292455D01*
X139706206Y-80407664D01*
X139706202Y-80407671D01*
X139655908Y-80542517D01*
X139649501Y-80602116D01*
X139649501Y-80602123D01*
X139649500Y-80602135D01*
X139649500Y-80625500D01*
X139629815Y-80692539D01*
X139577011Y-80738294D01*
X139525500Y-80749500D01*
X115488580Y-80749500D01*
X115343592Y-80778340D01*
X115343582Y-80778343D01*
X115207011Y-80834912D01*
X115206998Y-80834919D01*
X115084084Y-80917048D01*
X115084080Y-80917051D01*
X113361681Y-82639450D01*
X113300358Y-82672935D01*
X113230666Y-82667951D01*
X113174733Y-82626079D01*
X113150316Y-82560615D01*
X113150000Y-82551769D01*
X113150000Y-82437500D01*
X112000000Y-82437500D01*
X112000000Y-83349999D01*
X112351769Y-83349999D01*
X112418808Y-83369684D01*
X112464563Y-83422488D01*
X112474507Y-83491646D01*
X112445482Y-83555202D01*
X112439450Y-83561680D01*
X111887949Y-84113181D01*
X111826626Y-84146666D01*
X111800268Y-84149500D01*
X111049998Y-84149500D01*
X111049980Y-84149501D01*
X110947203Y-84160000D01*
X110947200Y-84160001D01*
X110780668Y-84215185D01*
X110780663Y-84215187D01*
X110631342Y-84307289D01*
X110507289Y-84431342D01*
X110415187Y-84580663D01*
X110415186Y-84580666D01*
X110360001Y-84747203D01*
X110360001Y-84747204D01*
X110360000Y-84747204D01*
X110349500Y-84849983D01*
X110349500Y-85775001D01*
X110349501Y-85775019D01*
X110360000Y-85877796D01*
X110360001Y-85877799D01*
X110393342Y-85978414D01*
X110415186Y-86044334D01*
X110491352Y-86167820D01*
X110507289Y-86193657D01*
X110633450Y-86319818D01*
X110666935Y-86381141D01*
X110661951Y-86450833D01*
X110633450Y-86495180D01*
X109730451Y-87398181D01*
X109669128Y-87431666D01*
X109642770Y-87434500D01*
X109291765Y-87434500D01*
X109181452Y-87449022D01*
X109181447Y-87449024D01*
X109044191Y-87505876D01*
X109044188Y-87505878D01*
X108926322Y-87596321D01*
X108926321Y-87596322D01*
X108835878Y-87714188D01*
X108835876Y-87714191D01*
X108779024Y-87851447D01*
X108779022Y-87851452D01*
X108764500Y-87961765D01*
X108764500Y-88418234D01*
X108779022Y-88528547D01*
X108779024Y-88528552D01*
X108824771Y-88638996D01*
X108832240Y-88708465D01*
X108800965Y-88770944D01*
X108740876Y-88806596D01*
X108731879Y-88808178D01*
X108731906Y-88808311D01*
X108600261Y-88834497D01*
X108600255Y-88834499D01*
X108481874Y-88883534D01*
X108375326Y-88954726D01*
X107994724Y-89335328D01*
X107952530Y-89398476D01*
X107952531Y-89398477D01*
X107923534Y-89441874D01*
X107874499Y-89560255D01*
X107874497Y-89560261D01*
X107849500Y-89685928D01*
X107849500Y-94564069D01*
X107856938Y-94601458D01*
X107856938Y-94601461D01*
X107874497Y-94689736D01*
X107874499Y-94689744D01*
X107923534Y-94808125D01*
X107994726Y-94914673D01*
X107994727Y-94914674D01*
X109994724Y-96914669D01*
X110047836Y-96967781D01*
X110085332Y-97005277D01*
X110191866Y-97076461D01*
X110191879Y-97076468D01*
X110240835Y-97096746D01*
X110295239Y-97140586D01*
X110317304Y-97206881D01*
X110300025Y-97274580D01*
X110281064Y-97298988D01*
X109016873Y-98563181D01*
X108955550Y-98596666D01*
X108929192Y-98599500D01*
X98435929Y-98599500D01*
X98310261Y-98624497D01*
X98310251Y-98624500D01*
X98261220Y-98644810D01*
X98191881Y-98673530D01*
X98191863Y-98673540D01*
X98085332Y-98744721D01*
X98085325Y-98744727D01*
X93744724Y-103085328D01*
X93699654Y-103152782D01*
X93673535Y-103191872D01*
X93624499Y-103310255D01*
X93624497Y-103310261D01*
X93599500Y-103435928D01*
X93599500Y-103435931D01*
X93599500Y-109889069D01*
X93599500Y-109889071D01*
X93599499Y-109889071D01*
X93623160Y-110008014D01*
X93623161Y-110008016D01*
X93624499Y-110014744D01*
X93669174Y-110122600D01*
X93673535Y-110133127D01*
X93732898Y-110221971D01*
X93744726Y-110239673D01*
X93744727Y-110239674D01*
X94887862Y-111382808D01*
X94921347Y-111444131D01*
X94922654Y-111489886D01*
X94897295Y-111650000D01*
X94894500Y-111667648D01*
X94894500Y-111872352D01*
X94898878Y-111899995D01*
X94926522Y-112074534D01*
X94989781Y-112269223D01*
X95044425Y-112376465D01*
X95082147Y-112450500D01*
X95082715Y-112451613D01*
X95203028Y-112617213D01*
X95347786Y-112761971D01*
X95502749Y-112874556D01*
X95513390Y-112882287D01*
X95604840Y-112928883D01*
X95606080Y-112929515D01*
X95656876Y-112977490D01*
X95673671Y-113045311D01*
X95651134Y-113111446D01*
X95606080Y-113150485D01*
X95513386Y-113197715D01*
X95347786Y-113318028D01*
X95203028Y-113462786D01*
X95082715Y-113628386D01*
X94989781Y-113810776D01*
X94926522Y-114005465D01*
X94894500Y-114207648D01*
X94894500Y-114412351D01*
X94926522Y-114614534D01*
X94989781Y-114809223D01*
X95052008Y-114931349D01*
X95081450Y-114989132D01*
X95082715Y-114991613D01*
X95203028Y-115157213D01*
X95347786Y-115301971D01*
X95441279Y-115369896D01*
X95513390Y-115422287D01*
X95629607Y-115481503D01*
X95695776Y-115515218D01*
X95695778Y-115515218D01*
X95695781Y-115515220D01*
X95800137Y-115549127D01*
X95890465Y-115578477D01*
X95974564Y-115591797D01*
X96092648Y-115610500D01*
X96092649Y-115610500D01*
X96297350Y-115610500D01*
X96297352Y-115610500D01*
X96353027Y-115601681D01*
X96422319Y-115610635D01*
X96460106Y-115636473D01*
X96967580Y-116143948D01*
X96967584Y-116143951D01*
X97090498Y-116226080D01*
X97090511Y-116226087D01*
X97227082Y-116282656D01*
X97227087Y-116282658D01*
X97227091Y-116282658D01*
X97227092Y-116282659D01*
X97372079Y-116311500D01*
X97372082Y-116311500D01*
X110712919Y-116311500D01*
X110737909Y-116306528D01*
X110762359Y-116301665D01*
X110831951Y-116307892D01*
X110874233Y-116335601D01*
X112608562Y-118069929D01*
X114017049Y-119478416D01*
X114076745Y-119538112D01*
X114121585Y-119582952D01*
X114244498Y-119665080D01*
X114244511Y-119665087D01*
X114381082Y-119721656D01*
X114381087Y-119721658D01*
X114381091Y-119721658D01*
X114381092Y-119721659D01*
X114526079Y-119750500D01*
X114526082Y-119750500D01*
X126932783Y-119750500D01*
X126999822Y-119770185D01*
X127040170Y-119812500D01*
X127108049Y-119930070D01*
X127241355Y-120103798D01*
X127241361Y-120103805D01*
X127396194Y-120258638D01*
X127396201Y-120258644D01*
X127569929Y-120391950D01*
X127759561Y-120501434D01*
X127759563Y-120501434D01*
X127759572Y-120501440D01*
X127961883Y-120585241D01*
X128173402Y-120641917D01*
X128390510Y-120670500D01*
X128390517Y-120670500D01*
X128609483Y-120670500D01*
X128609490Y-120670500D01*
X128826598Y-120641917D01*
X128957732Y-120606779D01*
X129027581Y-120608442D01*
X129077506Y-120638873D01*
X129426952Y-120988319D01*
X129460437Y-121049642D01*
X129455453Y-121119334D01*
X129413581Y-121175267D01*
X129348117Y-121199684D01*
X129339271Y-121200000D01*
X86374500Y-121200000D01*
X86307461Y-121180315D01*
X86261706Y-121127511D01*
X86250500Y-121076000D01*
X86250500Y-85353713D01*
X87649500Y-85353713D01*
X87649500Y-85566287D01*
X87656464Y-85610256D01*
X87682559Y-85775016D01*
X87682754Y-85776243D01*
X87715750Y-85877795D01*
X87748444Y-85978414D01*
X87844951Y-86167820D01*
X87969890Y-86339786D01*
X88083430Y-86453326D01*
X88116915Y-86514649D01*
X88111931Y-86584341D01*
X88070059Y-86640274D01*
X88039083Y-86657189D01*
X87907669Y-86706203D01*
X87907664Y-86706206D01*
X87792455Y-86792452D01*
X87792452Y-86792455D01*
X87706206Y-86907664D01*
X87706202Y-86907671D01*
X87655908Y-87042517D01*
X87649501Y-87102116D01*
X87649501Y-87102123D01*
X87649500Y-87102135D01*
X87649500Y-88897870D01*
X87649501Y-88897876D01*
X87655908Y-88957483D01*
X87706202Y-89092328D01*
X87706206Y-89092335D01*
X87792452Y-89207544D01*
X87792455Y-89207547D01*
X87907664Y-89293793D01*
X87907671Y-89293797D01*
X88042517Y-89344091D01*
X88042516Y-89344091D01*
X88049444Y-89344835D01*
X88102127Y-89350500D01*
X89897872Y-89350499D01*
X89957483Y-89344091D01*
X90092331Y-89293796D01*
X90207546Y-89207546D01*
X90293796Y-89092331D01*
X90344091Y-88957483D01*
X90350500Y-88897873D01*
X90350500Y-88869808D01*
X90370185Y-88802769D01*
X90422989Y-88757014D01*
X90492147Y-88747070D01*
X90555703Y-88776095D01*
X90562181Y-88782127D01*
X91745325Y-89965272D01*
X91745328Y-89965275D01*
X91835465Y-90025502D01*
X91835464Y-90025502D01*
X91851871Y-90036464D01*
X91851872Y-90036464D01*
X91851873Y-90036465D01*
X91970256Y-90085501D01*
X91970260Y-90085501D01*
X91970261Y-90085502D01*
X92095928Y-90110500D01*
X92095931Y-90110500D01*
X101970192Y-90110500D01*
X102037231Y-90130185D01*
X102082986Y-90182989D01*
X102092930Y-90252147D01*
X102063905Y-90315703D01*
X102057873Y-90322181D01*
X100366873Y-92013181D01*
X100305550Y-92046666D01*
X100279192Y-92049500D01*
X99864981Y-92049500D01*
X99797942Y-92029815D01*
X99752187Y-91977011D01*
X99741623Y-91938101D01*
X99739999Y-91922203D01*
X99739998Y-91922200D01*
X99724026Y-91874000D01*
X99684814Y-91755666D01*
X99592712Y-91606344D01*
X99468656Y-91482288D01*
X99334848Y-91399755D01*
X99319336Y-91390187D01*
X99319331Y-91390185D01*
X99301728Y-91384352D01*
X99152797Y-91335001D01*
X99152795Y-91335000D01*
X99050010Y-91324500D01*
X98149998Y-91324500D01*
X98149980Y-91324501D01*
X98047203Y-91335000D01*
X98047200Y-91335001D01*
X97880668Y-91390185D01*
X97880663Y-91390187D01*
X97731342Y-91482289D01*
X97607289Y-91606342D01*
X97515187Y-91755663D01*
X97515185Y-91755668D01*
X97490019Y-91831615D01*
X97460001Y-91922203D01*
X97460001Y-91922204D01*
X97460000Y-91922204D01*
X97449500Y-92024983D01*
X97449500Y-93375001D01*
X97449501Y-93375018D01*
X97460000Y-93477796D01*
X97460001Y-93477799D01*
X97515185Y-93644331D01*
X97515187Y-93644336D01*
X97518989Y-93650500D01*
X97607288Y-93793656D01*
X97731344Y-93917712D01*
X97880666Y-94009814D01*
X98047203Y-94064999D01*
X98149991Y-94075500D01*
X99050008Y-94075499D01*
X99050016Y-94075498D01*
X99050019Y-94075498D01*
X99106302Y-94069748D01*
X99152797Y-94064999D01*
X99319334Y-94009814D01*
X99468656Y-93917712D01*
X99592712Y-93793656D01*
X99684814Y-93644334D01*
X99739999Y-93477797D01*
X99741623Y-93461898D01*
X99768018Y-93397207D01*
X99825198Y-93357055D01*
X99864981Y-93350500D01*
X100664071Y-93350500D01*
X100748615Y-93333682D01*
X100789744Y-93325501D01*
X100908127Y-93276465D01*
X100955631Y-93244724D01*
X100955631Y-93244723D01*
X100955633Y-93244723D01*
X100993635Y-93219331D01*
X101014669Y-93205277D01*
X102833126Y-91386818D01*
X102894449Y-91353334D01*
X102920807Y-91350500D01*
X103202244Y-91350500D01*
X103269283Y-91370185D01*
X103315038Y-91422989D01*
X103324982Y-91492147D01*
X103316805Y-91521953D01*
X103315878Y-91524188D01*
X103315878Y-91524190D01*
X103301952Y-91557810D01*
X103259023Y-91661450D01*
X103259022Y-91661452D01*
X103244500Y-91771765D01*
X103244500Y-92228232D01*
X103246677Y-92244772D01*
X103235909Y-92313806D01*
X103211418Y-92348634D01*
X100996873Y-94563181D01*
X100935550Y-94596666D01*
X100909192Y-94599500D01*
X90499499Y-94599500D01*
X90432460Y-94579815D01*
X90386705Y-94527011D01*
X90375499Y-94475500D01*
X90375499Y-94352129D01*
X90375498Y-94352123D01*
X90375497Y-94352116D01*
X90369091Y-94292517D01*
X90359526Y-94266873D01*
X90318797Y-94157671D01*
X90318793Y-94157664D01*
X90232547Y-94042455D01*
X90232544Y-94042452D01*
X90117335Y-93956206D01*
X90117328Y-93956202D01*
X89985917Y-93907189D01*
X89929983Y-93865318D01*
X89905566Y-93799853D01*
X89920418Y-93731580D01*
X89941563Y-93703332D01*
X90055104Y-93589792D01*
X90087874Y-93544688D01*
X90182915Y-93413875D01*
X90184259Y-93414851D01*
X90230705Y-93372834D01*
X90284618Y-93360500D01*
X94236040Y-93360500D01*
X94303079Y-93380185D01*
X94348834Y-93432989D01*
X94359398Y-93471894D01*
X94360001Y-93477798D01*
X94360001Y-93477799D01*
X94415185Y-93644331D01*
X94415187Y-93644336D01*
X94418989Y-93650500D01*
X94507288Y-93793656D01*
X94631344Y-93917712D01*
X94780666Y-94009814D01*
X94947203Y-94064999D01*
X95049991Y-94075500D01*
X95950008Y-94075499D01*
X95950016Y-94075498D01*
X95950019Y-94075498D01*
X96006302Y-94069748D01*
X96052797Y-94064999D01*
X96219334Y-94009814D01*
X96368656Y-93917712D01*
X96492712Y-93793656D01*
X96584814Y-93644334D01*
X96639999Y-93477797D01*
X96650500Y-93375009D01*
X96650499Y-92024992D01*
X96649292Y-92013181D01*
X96639999Y-91922203D01*
X96639998Y-91922200D01*
X96624026Y-91874000D01*
X96584814Y-91755666D01*
X96492712Y-91606344D01*
X96368656Y-91482288D01*
X96234848Y-91399755D01*
X96219336Y-91390187D01*
X96219331Y-91390185D01*
X96201728Y-91384352D01*
X96052797Y-91335001D01*
X96052795Y-91335000D01*
X95950010Y-91324500D01*
X95049998Y-91324500D01*
X95049980Y-91324501D01*
X94947203Y-91335000D01*
X94947200Y-91335001D01*
X94780668Y-91390185D01*
X94780663Y-91390187D01*
X94631342Y-91482289D01*
X94507289Y-91606342D01*
X94415187Y-91755663D01*
X94415185Y-91755668D01*
X94390019Y-91831615D01*
X94360001Y-91922203D01*
X94360001Y-91922204D01*
X94360000Y-91922204D01*
X94357355Y-91948103D01*
X94330959Y-92012794D01*
X94273778Y-92052946D01*
X94233997Y-92059500D01*
X90284618Y-92059500D01*
X90217579Y-92039815D01*
X90183900Y-92005408D01*
X90182915Y-92006125D01*
X90055109Y-91830213D01*
X89904786Y-91679890D01*
X89732820Y-91554951D01*
X89543414Y-91458444D01*
X89543413Y-91458443D01*
X89543412Y-91458443D01*
X89341243Y-91392754D01*
X89341241Y-91392753D01*
X89341240Y-91392753D01*
X89166012Y-91365000D01*
X89131287Y-91359500D01*
X88918713Y-91359500D01*
X88883988Y-91365000D01*
X88708760Y-91392753D01*
X88708757Y-91392754D01*
X88592080Y-91430665D01*
X88506585Y-91458444D01*
X88317179Y-91554951D01*
X88145213Y-91679890D01*
X87994890Y-91830213D01*
X87869951Y-92002179D01*
X87773444Y-92191585D01*
X87707753Y-92393760D01*
X87674500Y-92603713D01*
X87674500Y-92816286D01*
X87703339Y-92998372D01*
X87707754Y-93026243D01*
X87770493Y-93219334D01*
X87773444Y-93228414D01*
X87869951Y-93417820D01*
X87994890Y-93589786D01*
X88108430Y-93703326D01*
X88141915Y-93764649D01*
X88136931Y-93834341D01*
X88095059Y-93890274D01*
X88064083Y-93907189D01*
X87932669Y-93956203D01*
X87932664Y-93956206D01*
X87817455Y-94042452D01*
X87817452Y-94042455D01*
X87731206Y-94157664D01*
X87731202Y-94157671D01*
X87680908Y-94292517D01*
X87674501Y-94352116D01*
X87674501Y-94352123D01*
X87674500Y-94352135D01*
X87674500Y-96147870D01*
X87674501Y-96147876D01*
X87680908Y-96207483D01*
X87731202Y-96342328D01*
X87731206Y-96342335D01*
X87817452Y-96457544D01*
X87817455Y-96457547D01*
X87932664Y-96543793D01*
X87932671Y-96543797D01*
X88067517Y-96594091D01*
X88067516Y-96594091D01*
X88074444Y-96594835D01*
X88127127Y-96600500D01*
X89922872Y-96600499D01*
X89982483Y-96594091D01*
X90117331Y-96543796D01*
X90232546Y-96457546D01*
X90318796Y-96342331D01*
X90369091Y-96207483D01*
X90375500Y-96147873D01*
X90375500Y-96024500D01*
X90395185Y-95957461D01*
X90447989Y-95911706D01*
X90499500Y-95900500D01*
X101294071Y-95900500D01*
X101409483Y-95877542D01*
X101419744Y-95875501D01*
X101538127Y-95826465D01*
X101544660Y-95822100D01*
X101574549Y-95802129D01*
X101574550Y-95802129D01*
X101641523Y-95757379D01*
X101644669Y-95755277D01*
X104608127Y-92791819D01*
X104669450Y-92758334D01*
X104695808Y-92755500D01*
X105188235Y-92755500D01*
X105225005Y-92750659D01*
X105298549Y-92740977D01*
X105435810Y-92684122D01*
X105553678Y-92593678D01*
X105644122Y-92475810D01*
X105700977Y-92338549D01*
X105715500Y-92228234D01*
X105715500Y-91771766D01*
X105713380Y-91755666D01*
X105706997Y-91707181D01*
X105700977Y-91661451D01*
X105655622Y-91551953D01*
X105644123Y-91524191D01*
X105644121Y-91524188D01*
X105579894Y-91440487D01*
X105554699Y-91375318D01*
X105568737Y-91306873D01*
X105579894Y-91289513D01*
X105638101Y-91213657D01*
X105644122Y-91205810D01*
X105700977Y-91068549D01*
X105715500Y-90958234D01*
X105715500Y-90501766D01*
X105700977Y-90391451D01*
X105672285Y-90322181D01*
X105644123Y-90254191D01*
X105644121Y-90254188D01*
X105579894Y-90170487D01*
X105554699Y-90105318D01*
X105568737Y-90036873D01*
X105579894Y-90019513D01*
X105601109Y-89991865D01*
X105644122Y-89935810D01*
X105700977Y-89798549D01*
X105715500Y-89688234D01*
X105715500Y-89231766D01*
X105712311Y-89207546D01*
X105700977Y-89121452D01*
X105700975Y-89121447D01*
X105699221Y-89117213D01*
X105672329Y-89052288D01*
X105644123Y-88984191D01*
X105644121Y-88984188D01*
X105579894Y-88900487D01*
X105554699Y-88835318D01*
X105568737Y-88766873D01*
X105579894Y-88749513D01*
X105632721Y-88680668D01*
X105644122Y-88665810D01*
X105700977Y-88528549D01*
X105715500Y-88418234D01*
X105715500Y-87961766D01*
X105700977Y-87851451D01*
X105667561Y-87770776D01*
X105644123Y-87714191D01*
X105644121Y-87714188D01*
X105553678Y-87596322D01*
X105553677Y-87596321D01*
X105435811Y-87505878D01*
X105435808Y-87505876D01*
X105298552Y-87449024D01*
X105298547Y-87449022D01*
X105188235Y-87434500D01*
X105188234Y-87434500D01*
X103771766Y-87434500D01*
X103771765Y-87434500D01*
X103661452Y-87449022D01*
X103661447Y-87449024D01*
X103524191Y-87505876D01*
X103524188Y-87505878D01*
X103513768Y-87513875D01*
X103448599Y-87539070D01*
X103438281Y-87539500D01*
X102710808Y-87539500D01*
X102643769Y-87519815D01*
X102623127Y-87503181D01*
X102214674Y-87094727D01*
X102214673Y-87094726D01*
X102180553Y-87071928D01*
X102108127Y-87023535D01*
X102095119Y-87018147D01*
X101989744Y-86974499D01*
X101989738Y-86974497D01*
X101864071Y-86949500D01*
X101864069Y-86949500D01*
X99964981Y-86949500D01*
X99897942Y-86929815D01*
X99852187Y-86877011D01*
X99841623Y-86838101D01*
X99839999Y-86822203D01*
X99839998Y-86822200D01*
X99830140Y-86792452D01*
X99784814Y-86655666D01*
X99692712Y-86506344D01*
X99568656Y-86382288D01*
X99419334Y-86290186D01*
X99252797Y-86235001D01*
X99252795Y-86235000D01*
X99150010Y-86224500D01*
X98249998Y-86224500D01*
X98249980Y-86224501D01*
X98147203Y-86235000D01*
X98147200Y-86235001D01*
X97980668Y-86290185D01*
X97980663Y-86290187D01*
X97831342Y-86382289D01*
X97707289Y-86506342D01*
X97615187Y-86655663D01*
X97615185Y-86655668D01*
X97594283Y-86718747D01*
X97560001Y-86822203D01*
X97560001Y-86822204D01*
X97560000Y-86822204D01*
X97549500Y-86924983D01*
X97549500Y-88275001D01*
X97549501Y-88275018D01*
X97560000Y-88377796D01*
X97560001Y-88377799D01*
X97613027Y-88537819D01*
X97615186Y-88544334D01*
X97662106Y-88620404D01*
X97680546Y-88687796D01*
X97659623Y-88754459D01*
X97605981Y-88799229D01*
X97556567Y-88809500D01*
X96743433Y-88809500D01*
X96676394Y-88789815D01*
X96630639Y-88737011D01*
X96620695Y-88667853D01*
X96637893Y-88620405D01*
X96684814Y-88544334D01*
X96739999Y-88377797D01*
X96750500Y-88275009D01*
X96750499Y-86924992D01*
X96750477Y-86924781D01*
X96739999Y-86822203D01*
X96739998Y-86822200D01*
X96730140Y-86792452D01*
X96684814Y-86655666D01*
X96592712Y-86506344D01*
X96468656Y-86382288D01*
X96319334Y-86290186D01*
X96152797Y-86235001D01*
X96152795Y-86235000D01*
X96050010Y-86224500D01*
X95149998Y-86224500D01*
X95149980Y-86224501D01*
X95047203Y-86235000D01*
X95047200Y-86235001D01*
X94880668Y-86290185D01*
X94880663Y-86290187D01*
X94731342Y-86382289D01*
X94607289Y-86506342D01*
X94515187Y-86655663D01*
X94515185Y-86655668D01*
X94460001Y-86822204D01*
X94460000Y-86822205D01*
X94458377Y-86838101D01*
X94431982Y-86902793D01*
X94374802Y-86942945D01*
X94335019Y-86949500D01*
X93520808Y-86949500D01*
X93453769Y-86929815D01*
X93433127Y-86913181D01*
X91474674Y-84954727D01*
X91474673Y-84954726D01*
X91368125Y-84883533D01*
X91249745Y-84834499D01*
X91249742Y-84834498D01*
X91247659Y-84834084D01*
X91124071Y-84809500D01*
X91124069Y-84809500D01*
X90259618Y-84809500D01*
X90192579Y-84789815D01*
X90158900Y-84755408D01*
X90157915Y-84756125D01*
X90030109Y-84580213D01*
X89879786Y-84429890D01*
X89707820Y-84304951D01*
X89518414Y-84208444D01*
X89518413Y-84208443D01*
X89518412Y-84208443D01*
X89316243Y-84142754D01*
X89316241Y-84142753D01*
X89316240Y-84142753D01*
X89140810Y-84114968D01*
X89106287Y-84109500D01*
X88893713Y-84109500D01*
X88859190Y-84114968D01*
X88683760Y-84142753D01*
X88481585Y-84208444D01*
X88292179Y-84304951D01*
X88120213Y-84429890D01*
X87969890Y-84580213D01*
X87844951Y-84752179D01*
X87748444Y-84941585D01*
X87748443Y-84941587D01*
X87748443Y-84941588D01*
X87738117Y-84973368D01*
X87682753Y-85143760D01*
X87658349Y-85297844D01*
X87649500Y-85353713D01*
X86250500Y-85353713D01*
X86250500Y-82649986D01*
X110350001Y-82649986D01*
X110360494Y-82752697D01*
X110415641Y-82919119D01*
X110415643Y-82919124D01*
X110507684Y-83068345D01*
X110631654Y-83192315D01*
X110780875Y-83284356D01*
X110780880Y-83284358D01*
X110947302Y-83339505D01*
X110947309Y-83339506D01*
X111050019Y-83349999D01*
X111499999Y-83349999D01*
X111500000Y-83349998D01*
X111500000Y-82437500D01*
X110350001Y-82437500D01*
X110350001Y-82649986D01*
X86250500Y-82649986D01*
X86250500Y-81725013D01*
X110350000Y-81725013D01*
X110350000Y-81937500D01*
X111500000Y-81937500D01*
X112000000Y-81937500D01*
X113149999Y-81937500D01*
X113149999Y-81725028D01*
X113149998Y-81725013D01*
X113139505Y-81622302D01*
X113084358Y-81455880D01*
X113084356Y-81455875D01*
X112992315Y-81306654D01*
X112868345Y-81182684D01*
X112719124Y-81090643D01*
X112719119Y-81090641D01*
X112552697Y-81035494D01*
X112552690Y-81035493D01*
X112449986Y-81025000D01*
X112000000Y-81025000D01*
X112000000Y-81937500D01*
X111500000Y-81937500D01*
X111500000Y-81025000D01*
X111050028Y-81025000D01*
X111050012Y-81025001D01*
X110947302Y-81035494D01*
X110780880Y-81090641D01*
X110780875Y-81090643D01*
X110631654Y-81182684D01*
X110507684Y-81306654D01*
X110415643Y-81455875D01*
X110415641Y-81455880D01*
X110360494Y-81622302D01*
X110360493Y-81622309D01*
X110350000Y-81725013D01*
X86250500Y-81725013D01*
X86250500Y-77424000D01*
X86270185Y-77356961D01*
X86322989Y-77311206D01*
X86374500Y-77300000D01*
X173625500Y-77300000D01*
X173692539Y-77319685D01*
G37*
%TD.AperFunction*%
%TA.AperFunction,Conductor*%
G36*
X115048556Y-96830498D02*
G01*
X115055034Y-96836530D01*
X116523779Y-98305275D01*
X116523782Y-98305277D01*
X116589969Y-98349501D01*
X116630324Y-98376465D01*
X116630330Y-98376467D01*
X116630331Y-98376468D01*
X116661402Y-98389338D01*
X116715806Y-98433179D01*
X116737871Y-98499473D01*
X116737950Y-98503898D01*
X116737950Y-98675267D01*
X116737951Y-98675274D01*
X116744358Y-98734881D01*
X116794652Y-98869726D01*
X116794656Y-98869733D01*
X116880902Y-98984942D01*
X116880905Y-98984945D01*
X116996114Y-99071191D01*
X116996121Y-99071195D01*
X117130967Y-99121489D01*
X117130966Y-99121489D01*
X117137894Y-99122233D01*
X117190577Y-99127898D01*
X118309422Y-99127897D01*
X118369033Y-99121489D01*
X118372535Y-99120183D01*
X118404352Y-99108316D01*
X118447685Y-99100498D01*
X125605500Y-99100498D01*
X125672539Y-99120183D01*
X125718294Y-99172987D01*
X125729500Y-99224498D01*
X125729500Y-100044070D01*
X125743855Y-100116232D01*
X125743855Y-100116234D01*
X125754497Y-100169737D01*
X125754499Y-100169744D01*
X125777593Y-100225499D01*
X125803535Y-100288127D01*
X125857698Y-100369189D01*
X125874726Y-100394673D01*
X125874727Y-100394674D01*
X128355895Y-102875841D01*
X128389380Y-102937164D01*
X128384396Y-103006856D01*
X128342524Y-103062789D01*
X128341103Y-103063837D01*
X128312933Y-103084305D01*
X128312924Y-103084312D01*
X128179312Y-103217924D01*
X128179312Y-103217925D01*
X128179310Y-103217927D01*
X128131610Y-103283579D01*
X128068240Y-103370800D01*
X127982454Y-103539163D01*
X127924059Y-103718881D01*
X127894500Y-103905513D01*
X127894500Y-104094486D01*
X127924059Y-104281118D01*
X127982454Y-104460836D01*
X128048005Y-104589486D01*
X128068240Y-104629199D01*
X128179310Y-104782073D01*
X128312927Y-104915690D01*
X128465801Y-105026760D01*
X128545347Y-105067290D01*
X128634163Y-105112545D01*
X128634165Y-105112545D01*
X128634168Y-105112547D01*
X128730497Y-105143846D01*
X128813881Y-105170940D01*
X129000514Y-105200500D01*
X129000519Y-105200500D01*
X129189486Y-105200500D01*
X129376118Y-105170940D01*
X129555832Y-105112547D01*
X129724199Y-105026760D01*
X129877073Y-104915690D01*
X129957319Y-104835444D01*
X130018642Y-104801959D01*
X130088334Y-104806943D01*
X130132681Y-104835444D01*
X130212927Y-104915690D01*
X130365801Y-105026760D01*
X130445347Y-105067290D01*
X130534163Y-105112545D01*
X130534165Y-105112545D01*
X130534168Y-105112547D01*
X130630497Y-105143846D01*
X130713881Y-105170940D01*
X130900514Y-105200500D01*
X130900519Y-105200500D01*
X131089486Y-105200500D01*
X131276118Y-105170940D01*
X131455832Y-105112547D01*
X131624199Y-105026760D01*
X131777073Y-104915690D01*
X131910690Y-104782073D01*
X131969147Y-104701613D01*
X132024478Y-104658949D01*
X132069465Y-104650500D01*
X132801929Y-104650500D01*
X132868968Y-104670185D01*
X132902245Y-104701613D01*
X132963894Y-104786465D01*
X133008034Y-104847219D01*
X133152786Y-104991971D01*
X133298922Y-105098143D01*
X133318390Y-105112287D01*
X133433503Y-105170940D01*
X133500776Y-105205218D01*
X133500778Y-105205218D01*
X133500781Y-105205220D01*
X133595115Y-105235871D01*
X133695465Y-105268477D01*
X133796557Y-105284488D01*
X133897648Y-105300500D01*
X133897649Y-105300500D01*
X134102351Y-105300500D01*
X134102352Y-105300500D01*
X134304534Y-105268477D01*
X134499219Y-105205220D01*
X134681610Y-105112287D01*
X134816278Y-105014446D01*
X134847213Y-104991971D01*
X134847215Y-104991968D01*
X134847219Y-104991966D01*
X134991966Y-104847219D01*
X134991968Y-104847215D01*
X134991971Y-104847213D01*
X135073607Y-104734849D01*
X135112287Y-104681610D01*
X135205220Y-104499219D01*
X135268477Y-104304534D01*
X135300500Y-104102352D01*
X135300500Y-103897682D01*
X137700000Y-103897682D01*
X137700000Y-104102317D01*
X137732009Y-104304417D01*
X137795244Y-104499031D01*
X137888141Y-104681350D01*
X137888147Y-104681359D01*
X137920523Y-104725921D01*
X137920524Y-104725922D01*
X138600000Y-104046446D01*
X138600000Y-104052661D01*
X138627259Y-104154394D01*
X138679920Y-104245606D01*
X138754394Y-104320080D01*
X138845606Y-104372741D01*
X138947339Y-104400000D01*
X138953553Y-104400000D01*
X138274076Y-105079474D01*
X138318650Y-105111859D01*
X138500968Y-105204755D01*
X138695582Y-105267990D01*
X138897683Y-105300000D01*
X139102317Y-105300000D01*
X139304417Y-105267990D01*
X139499031Y-105204755D01*
X139681349Y-105111859D01*
X139725921Y-105079474D01*
X139046447Y-104400000D01*
X139052661Y-104400000D01*
X139154394Y-104372741D01*
X139245606Y-104320080D01*
X139320080Y-104245606D01*
X139372741Y-104154394D01*
X139400000Y-104052661D01*
X139400000Y-104046448D01*
X140079474Y-104725922D01*
X140079474Y-104725921D01*
X140111859Y-104681349D01*
X140204755Y-104499031D01*
X140267990Y-104304417D01*
X140300000Y-104102317D01*
X140300000Y-103897682D01*
X140267990Y-103695582D01*
X140204755Y-103500968D01*
X140111859Y-103318650D01*
X140079474Y-103274077D01*
X140079474Y-103274076D01*
X139400000Y-103953551D01*
X139400000Y-103947339D01*
X139372741Y-103845606D01*
X139320080Y-103754394D01*
X139245606Y-103679920D01*
X139154394Y-103627259D01*
X139052661Y-103600000D01*
X139046446Y-103600000D01*
X139725922Y-102920524D01*
X139725921Y-102920523D01*
X139681359Y-102888147D01*
X139681350Y-102888141D01*
X139499031Y-102795244D01*
X139304417Y-102732009D01*
X139102317Y-102700000D01*
X138897683Y-102700000D01*
X138695582Y-102732009D01*
X138500968Y-102795244D01*
X138318644Y-102888143D01*
X138274077Y-102920523D01*
X138274077Y-102920524D01*
X138953554Y-103600000D01*
X138947339Y-103600000D01*
X138845606Y-103627259D01*
X138754394Y-103679920D01*
X138679920Y-103754394D01*
X138627259Y-103845606D01*
X138600000Y-103947339D01*
X138600000Y-103953553D01*
X137920524Y-103274077D01*
X137920523Y-103274077D01*
X137888143Y-103318644D01*
X137795244Y-103500968D01*
X137732009Y-103695582D01*
X137700000Y-103897682D01*
X135300500Y-103897682D01*
X135300500Y-103897648D01*
X135288330Y-103820808D01*
X135268477Y-103695465D01*
X135221554Y-103551051D01*
X135205220Y-103500781D01*
X135205218Y-103500778D01*
X135205218Y-103500776D01*
X135171503Y-103434607D01*
X135112287Y-103318390D01*
X135080092Y-103274077D01*
X134991971Y-103152786D01*
X134847217Y-103008032D01*
X134847212Y-103008028D01*
X134701615Y-102902246D01*
X134658949Y-102846916D01*
X134650500Y-102801928D01*
X134650500Y-102520808D01*
X134670185Y-102453769D01*
X134686819Y-102433127D01*
X137045271Y-100074675D01*
X137045276Y-100074670D01*
X137116465Y-99968127D01*
X137165501Y-99849744D01*
X137166543Y-99844505D01*
X137190500Y-99724069D01*
X137190500Y-99013070D01*
X137210185Y-98946031D01*
X137241613Y-98912753D01*
X137387219Y-98806966D01*
X137531966Y-98662219D01*
X137637753Y-98516613D01*
X137642085Y-98513273D01*
X137644358Y-98508297D01*
X137669454Y-98492168D01*
X137693082Y-98473949D01*
X137699755Y-98472695D01*
X137703136Y-98470523D01*
X137738071Y-98465500D01*
X137881929Y-98465500D01*
X137948968Y-98485185D01*
X137982245Y-98516613D01*
X138054054Y-98615449D01*
X138088034Y-98662219D01*
X138232786Y-98806971D01*
X138378383Y-98912751D01*
X138398390Y-98927287D01*
X138510849Y-98984588D01*
X138580776Y-99020218D01*
X138580778Y-99020218D01*
X138580781Y-99020220D01*
X138655535Y-99044509D01*
X138775465Y-99083477D01*
X138876557Y-99099488D01*
X138977648Y-99115500D01*
X138977649Y-99115500D01*
X139182351Y-99115500D01*
X139182352Y-99115500D01*
X139384534Y-99083477D01*
X139579219Y-99020220D01*
X139579222Y-99020218D01*
X139583852Y-99018714D01*
X139584281Y-99020035D01*
X139647514Y-99013236D01*
X139709994Y-99044509D01*
X139745648Y-99104597D01*
X139749500Y-99135266D01*
X139749500Y-99464070D01*
X139771857Y-99576459D01*
X139771857Y-99576468D01*
X139771859Y-99576468D01*
X139774499Y-99589745D01*
X139823533Y-99708125D01*
X139849424Y-99746873D01*
X139886486Y-99802342D01*
X139894726Y-99814673D01*
X144795327Y-104715274D01*
X144891447Y-104779499D01*
X144891448Y-104779499D01*
X144891449Y-104779500D01*
X144901873Y-104786465D01*
X145020256Y-104835501D01*
X145020260Y-104835501D01*
X145020261Y-104835502D01*
X145145928Y-104860500D01*
X145145931Y-104860500D01*
X150861929Y-104860500D01*
X150928968Y-104880185D01*
X150962245Y-104911613D01*
X151056714Y-105041638D01*
X151068034Y-105057219D01*
X151212786Y-105201971D01*
X151362974Y-105311087D01*
X151378390Y-105322287D01*
X151457864Y-105362781D01*
X151471080Y-105369515D01*
X151521876Y-105417490D01*
X151538671Y-105485311D01*
X151516134Y-105551446D01*
X151471080Y-105590485D01*
X151378386Y-105637715D01*
X151212786Y-105758028D01*
X151068028Y-105902786D01*
X150947715Y-106068386D01*
X150854781Y-106250776D01*
X150791522Y-106445465D01*
X150759500Y-106647648D01*
X150759500Y-106852351D01*
X150791522Y-107054534D01*
X150834623Y-107187181D01*
X150836618Y-107257023D01*
X150800538Y-107316856D01*
X150737837Y-107347684D01*
X150716692Y-107349500D01*
X144435929Y-107349500D01*
X144324780Y-107371610D01*
X144310256Y-107374499D01*
X144310255Y-107374499D01*
X144191875Y-107423533D01*
X144191866Y-107423538D01*
X144085331Y-107494723D01*
X144085327Y-107494726D01*
X134186631Y-117393421D01*
X134125308Y-117426906D01*
X134055616Y-117421922D01*
X134051497Y-117420301D01*
X134038126Y-117414762D01*
X134038119Y-117414760D01*
X134038117Y-117414759D01*
X133826598Y-117358083D01*
X133790314Y-117353306D01*
X133609497Y-117329500D01*
X133609490Y-117329500D01*
X133390510Y-117329500D01*
X133390502Y-117329500D01*
X133189505Y-117355963D01*
X133173402Y-117358083D01*
X133128699Y-117370060D01*
X132961884Y-117414758D01*
X132871957Y-117452008D01*
X132759572Y-117498560D01*
X132759569Y-117498561D01*
X132759561Y-117498565D01*
X132569929Y-117608049D01*
X132396201Y-117741355D01*
X132396194Y-117741361D01*
X132241361Y-117896194D01*
X132241355Y-117896201D01*
X132108049Y-118069929D01*
X131998565Y-118259561D01*
X131998560Y-118259573D01*
X131914758Y-118461884D01*
X131858084Y-118673399D01*
X131858082Y-118673410D01*
X131829500Y-118890502D01*
X131829500Y-119109497D01*
X131853306Y-119290314D01*
X131858083Y-119326598D01*
X131858084Y-119326600D01*
X131914757Y-119538112D01*
X131914758Y-119538115D01*
X131914759Y-119538117D01*
X131981420Y-119699049D01*
X131988889Y-119768516D01*
X131957614Y-119830995D01*
X131897526Y-119866648D01*
X131866859Y-119870500D01*
X130483229Y-119870500D01*
X130416190Y-119850815D01*
X130395548Y-119834181D01*
X130138873Y-119577506D01*
X130105388Y-119516183D01*
X130106779Y-119457731D01*
X130141917Y-119326598D01*
X130170500Y-119109490D01*
X130170500Y-118890510D01*
X130141917Y-118673402D01*
X130085241Y-118461883D01*
X130001440Y-118259572D01*
X129974656Y-118213181D01*
X129891950Y-118069929D01*
X129758644Y-117896201D01*
X129758638Y-117896194D01*
X129603805Y-117741361D01*
X129603798Y-117741355D01*
X129430070Y-117608049D01*
X129240438Y-117498565D01*
X129240433Y-117498562D01*
X129240428Y-117498560D01*
X129055410Y-117421922D01*
X129038115Y-117414758D01*
X128932357Y-117386421D01*
X128826598Y-117358083D01*
X128790314Y-117353306D01*
X128609497Y-117329500D01*
X128609490Y-117329500D01*
X128390510Y-117329500D01*
X128390502Y-117329500D01*
X128189505Y-117355963D01*
X128173402Y-117358083D01*
X128128699Y-117370060D01*
X127961884Y-117414758D01*
X127871957Y-117452008D01*
X127759572Y-117498560D01*
X127759569Y-117498561D01*
X127759561Y-117498565D01*
X127569929Y-117608049D01*
X127396201Y-117741355D01*
X127396194Y-117741361D01*
X127241361Y-117896194D01*
X127241355Y-117896201D01*
X127108049Y-118069929D01*
X127040170Y-118187500D01*
X126989603Y-118235716D01*
X126932783Y-118249500D01*
X114962229Y-118249500D01*
X114895190Y-118229815D01*
X114874548Y-118213181D01*
X112031264Y-115369896D01*
X111686819Y-115025451D01*
X111653334Y-114964128D01*
X111650500Y-114937770D01*
X111650500Y-114147682D01*
X112450000Y-114147682D01*
X112450000Y-114352317D01*
X112482009Y-114554417D01*
X112545244Y-114749031D01*
X112638141Y-114931350D01*
X112638147Y-114931359D01*
X112670523Y-114975921D01*
X112670524Y-114975922D01*
X113350000Y-114296446D01*
X113350000Y-114302661D01*
X113377259Y-114404394D01*
X113429920Y-114495606D01*
X113504394Y-114570080D01*
X113595606Y-114622741D01*
X113697339Y-114650000D01*
X113703553Y-114650000D01*
X113024076Y-115329474D01*
X113068650Y-115361859D01*
X113250968Y-115454755D01*
X113445582Y-115517990D01*
X113647683Y-115550000D01*
X113852317Y-115550000D01*
X114054417Y-115517990D01*
X114249031Y-115454755D01*
X114431349Y-115361859D01*
X114475921Y-115329474D01*
X113796447Y-114650000D01*
X113802661Y-114650000D01*
X113904394Y-114622741D01*
X113995606Y-114570080D01*
X114070080Y-114495606D01*
X114122741Y-114404394D01*
X114150000Y-114302661D01*
X114150000Y-114296448D01*
X114829474Y-114975922D01*
X114829474Y-114975921D01*
X114861859Y-114931349D01*
X114954755Y-114749031D01*
X115017990Y-114554417D01*
X115050000Y-114352317D01*
X115050000Y-114147682D01*
X115017990Y-113945582D01*
X114954755Y-113750968D01*
X114861859Y-113568650D01*
X114829474Y-113524077D01*
X114829474Y-113524076D01*
X114150000Y-114203551D01*
X114150000Y-114197339D01*
X114122741Y-114095606D01*
X114070080Y-114004394D01*
X113995606Y-113929920D01*
X113904394Y-113877259D01*
X113802661Y-113850000D01*
X113796446Y-113850000D01*
X114475922Y-113170524D01*
X114475921Y-113170523D01*
X114431359Y-113138147D01*
X114431350Y-113138141D01*
X114249031Y-113045244D01*
X114054417Y-112982009D01*
X113852317Y-112950000D01*
X113647683Y-112950000D01*
X113445582Y-112982009D01*
X113250968Y-113045244D01*
X113068644Y-113138143D01*
X113024077Y-113170523D01*
X113024077Y-113170524D01*
X113703554Y-113850000D01*
X113697339Y-113850000D01*
X113595606Y-113877259D01*
X113504394Y-113929920D01*
X113429920Y-114004394D01*
X113377259Y-114095606D01*
X113350000Y-114197339D01*
X113350000Y-114203553D01*
X112670524Y-113524077D01*
X112670523Y-113524077D01*
X112638143Y-113568644D01*
X112545244Y-113750968D01*
X112482009Y-113945582D01*
X112450000Y-114147682D01*
X111650500Y-114147682D01*
X111650500Y-111147682D01*
X112450000Y-111147682D01*
X112450000Y-111352317D01*
X112482009Y-111554417D01*
X112545244Y-111749031D01*
X112638141Y-111931350D01*
X112638147Y-111931359D01*
X112670523Y-111975921D01*
X112670524Y-111975922D01*
X113350000Y-111296446D01*
X113350000Y-111302661D01*
X113377259Y-111404394D01*
X113429920Y-111495606D01*
X113504394Y-111570080D01*
X113595606Y-111622741D01*
X113697339Y-111650000D01*
X113703553Y-111650000D01*
X113024076Y-112329474D01*
X113068650Y-112361859D01*
X113250968Y-112454755D01*
X113445582Y-112517990D01*
X113647683Y-112550000D01*
X113852317Y-112550000D01*
X114054417Y-112517990D01*
X114249031Y-112454755D01*
X114431349Y-112361859D01*
X114475921Y-112329474D01*
X113796447Y-111650000D01*
X113802661Y-111650000D01*
X113904394Y-111622741D01*
X113995606Y-111570080D01*
X114070080Y-111495606D01*
X114122741Y-111404394D01*
X114150000Y-111302661D01*
X114150000Y-111296448D01*
X114829474Y-111975922D01*
X114829474Y-111975921D01*
X114861859Y-111931349D01*
X114954755Y-111749031D01*
X115017990Y-111554417D01*
X115050000Y-111352317D01*
X115050000Y-111147682D01*
X115017990Y-110945582D01*
X114954755Y-110750968D01*
X114861859Y-110568650D01*
X114829474Y-110524077D01*
X114829474Y-110524076D01*
X114150000Y-111203551D01*
X114150000Y-111197339D01*
X114122741Y-111095606D01*
X114070080Y-111004394D01*
X113995606Y-110929920D01*
X113904394Y-110877259D01*
X113802661Y-110850000D01*
X113796446Y-110850000D01*
X114475922Y-110170524D01*
X114475921Y-110170523D01*
X114431359Y-110138147D01*
X114431350Y-110138141D01*
X114249031Y-110045244D01*
X114054417Y-109982009D01*
X113852317Y-109950000D01*
X113647683Y-109950000D01*
X113445582Y-109982009D01*
X113250968Y-110045244D01*
X113068644Y-110138143D01*
X113024077Y-110170523D01*
X113024077Y-110170524D01*
X113703554Y-110850000D01*
X113697339Y-110850000D01*
X113595606Y-110877259D01*
X113504394Y-110929920D01*
X113429920Y-111004394D01*
X113377259Y-111095606D01*
X113350000Y-111197339D01*
X113350000Y-111203553D01*
X112670524Y-110524077D01*
X112670523Y-110524077D01*
X112638143Y-110568644D01*
X112545244Y-110750968D01*
X112482009Y-110945582D01*
X112450000Y-111147682D01*
X111650500Y-111147682D01*
X111650500Y-105774500D01*
X111670185Y-105707461D01*
X111722989Y-105661706D01*
X111774500Y-105650500D01*
X116673920Y-105650500D01*
X116771462Y-105631096D01*
X116818913Y-105621658D01*
X116955495Y-105565084D01*
X117020334Y-105521760D01*
X117078416Y-105482952D01*
X121522908Y-101038458D01*
X121563130Y-101011582D01*
X121702863Y-100953703D01*
X121842162Y-100860626D01*
X121960626Y-100742162D01*
X122053703Y-100602863D01*
X122117816Y-100448082D01*
X122150500Y-100283767D01*
X122150500Y-100116233D01*
X122117816Y-99951918D01*
X122053703Y-99797137D01*
X122004881Y-99724070D01*
X121960626Y-99657837D01*
X121842162Y-99539373D01*
X121702860Y-99446295D01*
X121548082Y-99382184D01*
X121548074Y-99382182D01*
X121383771Y-99349500D01*
X121383767Y-99349500D01*
X121216233Y-99349500D01*
X121216228Y-99349500D01*
X121051925Y-99382182D01*
X121051917Y-99382184D01*
X120897139Y-99446295D01*
X120757837Y-99539373D01*
X120639373Y-99657837D01*
X120546295Y-99797139D01*
X120488420Y-99936862D01*
X120461540Y-99977090D01*
X116325451Y-104113181D01*
X116264128Y-104146666D01*
X116237770Y-104149500D01*
X111262229Y-104149500D01*
X111195190Y-104129815D01*
X111174548Y-104113181D01*
X109073421Y-102012052D01*
X109073414Y-102012046D01*
X108999729Y-101962812D01*
X108999729Y-101962813D01*
X108950491Y-101929913D01*
X108813917Y-101873343D01*
X108813907Y-101873340D01*
X108668920Y-101844500D01*
X108668918Y-101844500D01*
X107748625Y-101844500D01*
X107681586Y-101824815D01*
X107660944Y-101808181D01*
X107532075Y-101679312D01*
X107532073Y-101679310D01*
X107379199Y-101568240D01*
X107378037Y-101567648D01*
X107210836Y-101482454D01*
X107031118Y-101424059D01*
X106844486Y-101394500D01*
X106844481Y-101394500D01*
X106655519Y-101394500D01*
X106655514Y-101394500D01*
X106468881Y-101424059D01*
X106289163Y-101482454D01*
X106120800Y-101568240D01*
X106053222Y-101617339D01*
X105967927Y-101679310D01*
X105967925Y-101679312D01*
X105967924Y-101679312D01*
X105834312Y-101812924D01*
X105834312Y-101812925D01*
X105834310Y-101812927D01*
X105825979Y-101824394D01*
X105723240Y-101965800D01*
X105637454Y-102134163D01*
X105579059Y-102313881D01*
X105549500Y-102500513D01*
X105549500Y-102682769D01*
X105529815Y-102749808D01*
X105513181Y-102770450D01*
X103232048Y-105051583D01*
X103211818Y-105081861D01*
X103191315Y-105112547D01*
X103149919Y-105174499D01*
X103149912Y-105174511D01*
X103093343Y-105311082D01*
X103093340Y-105311092D01*
X103064500Y-105456079D01*
X103064500Y-105564582D01*
X103044815Y-105631621D01*
X103013385Y-105664900D01*
X102967787Y-105698028D01*
X102967782Y-105698032D01*
X102823028Y-105842786D01*
X102702715Y-106008386D01*
X102609781Y-106190776D01*
X102546522Y-106385465D01*
X102514500Y-106587648D01*
X102514500Y-106792351D01*
X102546522Y-106994534D01*
X102609781Y-107189223D01*
X102673061Y-107313414D01*
X102691447Y-107349500D01*
X102702715Y-107371613D01*
X102823028Y-107537213D01*
X102967786Y-107681971D01*
X103085980Y-107767842D01*
X103133390Y-107802287D01*
X103224840Y-107848883D01*
X103226080Y-107849515D01*
X103276876Y-107897490D01*
X103293671Y-107965311D01*
X103271134Y-108031446D01*
X103226080Y-108070485D01*
X103133386Y-108117715D01*
X102967786Y-108238028D01*
X102823028Y-108382786D01*
X102702715Y-108548386D01*
X102609781Y-108730776D01*
X102546522Y-108925465D01*
X102514500Y-109127648D01*
X102514500Y-109332351D01*
X102546522Y-109534534D01*
X102609781Y-109729223D01*
X102649139Y-109806466D01*
X102692522Y-109891610D01*
X102702715Y-109911613D01*
X102823028Y-110077213D01*
X102967786Y-110221971D01*
X103095964Y-110315096D01*
X103133390Y-110342287D01*
X103224840Y-110388883D01*
X103226080Y-110389515D01*
X103276876Y-110437490D01*
X103293671Y-110505311D01*
X103271134Y-110571446D01*
X103226080Y-110610485D01*
X103133386Y-110657715D01*
X102967786Y-110778028D01*
X102823034Y-110922780D01*
X102806551Y-110945468D01*
X102717246Y-111068386D01*
X102661918Y-111111051D01*
X102616929Y-111119500D01*
X101340808Y-111119500D01*
X101273769Y-111099815D01*
X101253127Y-111083181D01*
X98894674Y-108724727D01*
X98894673Y-108724726D01*
X98894669Y-108724723D01*
X98788127Y-108653535D01*
X98669744Y-108604499D01*
X98669738Y-108604497D01*
X98544071Y-108579500D01*
X98544069Y-108579500D01*
X97393071Y-108579500D01*
X97326032Y-108559815D01*
X97292754Y-108528386D01*
X97186966Y-108382781D01*
X97042219Y-108238034D01*
X97042217Y-108238032D01*
X97042212Y-108238028D01*
X96948051Y-108169616D01*
X96905385Y-108114286D01*
X96899406Y-108044673D01*
X96932012Y-107982878D01*
X96981933Y-107951592D01*
X97064117Y-107924359D01*
X97064124Y-107924356D01*
X97213345Y-107832315D01*
X97337315Y-107708345D01*
X97429356Y-107559124D01*
X97429358Y-107559119D01*
X97484505Y-107392697D01*
X97484506Y-107392690D01*
X97494999Y-107289986D01*
X97495000Y-107289973D01*
X97495000Y-106940000D01*
X96510686Y-106940000D01*
X96515080Y-106935606D01*
X96567741Y-106844394D01*
X96595000Y-106742661D01*
X96595000Y-106637339D01*
X96567741Y-106535606D01*
X96515080Y-106444394D01*
X96510686Y-106440000D01*
X97494999Y-106440000D01*
X97494999Y-106090028D01*
X97494998Y-106090013D01*
X97484505Y-105987302D01*
X97429358Y-105820880D01*
X97429356Y-105820875D01*
X97337315Y-105671654D01*
X97213345Y-105547684D01*
X97064124Y-105455643D01*
X97064119Y-105455641D01*
X96897697Y-105400494D01*
X96897690Y-105400493D01*
X96794986Y-105390000D01*
X96445000Y-105390000D01*
X96445000Y-106374314D01*
X96440606Y-106369920D01*
X96349394Y-106317259D01*
X96247661Y-106290000D01*
X96142339Y-106290000D01*
X96040606Y-106317259D01*
X95949394Y-106369920D01*
X95945000Y-106374314D01*
X95945000Y-105390000D01*
X95595028Y-105390000D01*
X95595012Y-105390001D01*
X95492302Y-105400494D01*
X95325880Y-105455641D01*
X95325875Y-105455643D01*
X95176654Y-105547684D01*
X95112181Y-105612158D01*
X95050858Y-105645643D01*
X94981166Y-105640659D01*
X94925233Y-105598787D01*
X94900816Y-105533323D01*
X94900500Y-105524477D01*
X94900500Y-103820808D01*
X94920185Y-103753769D01*
X94936819Y-103733127D01*
X98733127Y-99936819D01*
X98794450Y-99903334D01*
X98820808Y-99900500D01*
X109314071Y-99900500D01*
X109398615Y-99883682D01*
X109439744Y-99875501D01*
X109558127Y-99826465D01*
X109612318Y-99790256D01*
X109664669Y-99755277D01*
X111583129Y-97836817D01*
X111644452Y-97803332D01*
X111670810Y-97800498D01*
X112695255Y-97800498D01*
X112699968Y-97801881D01*
X112704773Y-97800864D01*
X112733166Y-97811630D01*
X112762294Y-97820183D01*
X112765509Y-97823893D01*
X112770104Y-97825636D01*
X112788172Y-97850048D01*
X112808049Y-97872987D01*
X112809548Y-97878929D01*
X112811671Y-97881797D01*
X112814995Y-97900514D01*
X112818985Y-97916325D01*
X112819255Y-97920412D01*
X112819255Y-98025272D01*
X112825663Y-98084883D01*
X112831078Y-98099403D01*
X112832277Y-98117540D01*
X112828463Y-98134623D01*
X112829710Y-98152085D01*
X112827403Y-98159943D01*
X112826155Y-98165224D01*
X112819754Y-98224753D01*
X112819754Y-98272598D01*
X112853465Y-98272598D01*
X112920504Y-98292283D01*
X112933328Y-98301741D01*
X112944208Y-98310901D01*
X112962208Y-98334946D01*
X113057458Y-98406250D01*
X113060179Y-98408541D01*
X113077600Y-98434821D01*
X113096498Y-98460066D01*
X113096759Y-98463721D01*
X113098785Y-98466777D01*
X113099232Y-98498304D01*
X113101482Y-98529757D01*
X113099724Y-98532974D01*
X113099777Y-98536639D01*
X113083107Y-98563406D01*
X113067996Y-98591080D01*
X113064779Y-98592836D01*
X113062842Y-98595948D01*
X113034347Y-98609453D01*
X113006673Y-98624565D01*
X113001230Y-98625149D01*
X112999705Y-98625873D01*
X112997344Y-98625567D01*
X112980316Y-98627398D01*
X112819754Y-98627398D01*
X112819754Y-98675242D01*
X112826155Y-98734770D01*
X112826157Y-98734777D01*
X112876399Y-98869484D01*
X112876403Y-98869491D01*
X112962563Y-98984585D01*
X112962566Y-98984588D01*
X113077660Y-99070748D01*
X113077667Y-99070752D01*
X113212374Y-99120994D01*
X113212381Y-99120996D01*
X113271909Y-99127397D01*
X113271926Y-99127398D01*
X113653904Y-99127398D01*
X113653904Y-98601899D01*
X113656454Y-98593213D01*
X113655166Y-98584252D01*
X113666144Y-98560211D01*
X113673589Y-98534860D01*
X113680429Y-98528932D01*
X113684191Y-98520696D01*
X113706425Y-98506406D01*
X113726393Y-98489105D01*
X113736907Y-98486817D01*
X113742969Y-98482922D01*
X113777900Y-98477899D01*
X113884705Y-98477899D01*
X113951743Y-98497584D01*
X113997498Y-98550388D01*
X114008704Y-98601899D01*
X114008704Y-99127398D01*
X114390682Y-99127398D01*
X114390698Y-99127397D01*
X114450226Y-99120996D01*
X114450233Y-99120994D01*
X114584940Y-99070752D01*
X114584947Y-99070748D01*
X114700041Y-98984588D01*
X114700044Y-98984585D01*
X114786204Y-98869491D01*
X114786208Y-98869484D01*
X114836450Y-98734777D01*
X114836452Y-98734770D01*
X114842853Y-98675242D01*
X114842854Y-98675225D01*
X114842854Y-98627398D01*
X114682292Y-98627398D01*
X114656122Y-98619713D01*
X114629183Y-98615449D01*
X114623087Y-98610013D01*
X114615253Y-98607713D01*
X114597395Y-98587104D01*
X114577035Y-98568949D01*
X114574845Y-98561080D01*
X114569498Y-98554909D01*
X114565616Y-98527910D01*
X114558305Y-98501636D01*
X114560716Y-98493834D01*
X114559554Y-98485751D01*
X114570883Y-98460941D01*
X114578939Y-98434883D01*
X114586385Y-98426997D01*
X114588579Y-98422195D01*
X114602429Y-98408541D01*
X114605149Y-98406250D01*
X114700400Y-98334946D01*
X114718399Y-98310901D01*
X114729280Y-98301741D01*
X114748767Y-98293173D01*
X114765808Y-98280417D01*
X114786121Y-98276751D01*
X114793241Y-98273622D01*
X114798688Y-98274484D01*
X114809143Y-98272598D01*
X114842854Y-98272598D01*
X114842854Y-98224770D01*
X114842853Y-98224753D01*
X114836452Y-98165225D01*
X114834667Y-98157668D01*
X114837024Y-98157110D01*
X114832893Y-98099356D01*
X114836126Y-98088346D01*
X114836942Y-98084890D01*
X114836945Y-98084883D01*
X114843354Y-98025273D01*
X114843353Y-97574728D01*
X114836945Y-97515117D01*
X114836945Y-97515116D01*
X114835162Y-97507572D01*
X114837342Y-97507056D01*
X114833153Y-97448669D01*
X114835889Y-97439349D01*
X114836943Y-97434887D01*
X114836943Y-97434886D01*
X114836945Y-97434881D01*
X114843354Y-97375271D01*
X114843353Y-96924726D01*
X114843353Y-96924211D01*
X114863037Y-96857172D01*
X114915841Y-96811417D01*
X114985000Y-96801473D01*
X115048556Y-96830498D01*
G37*
%TD.AperFunction*%
%TA.AperFunction,Conductor*%
G36*
X120404808Y-97270185D02*
G01*
X120425450Y-97286819D01*
X120461539Y-97322908D01*
X120488419Y-97363136D01*
X120546295Y-97502860D01*
X120615617Y-97606607D01*
X120636495Y-97673285D01*
X120618010Y-97740665D01*
X120566032Y-97787355D01*
X120512515Y-97799498D01*
X118886049Y-97799498D01*
X118881336Y-97798114D01*
X118876532Y-97799132D01*
X118848142Y-97788367D01*
X118819010Y-97779813D01*
X118815794Y-97776101D01*
X118811201Y-97774360D01*
X118793135Y-97749952D01*
X118773255Y-97727009D01*
X118771755Y-97721065D01*
X118769634Y-97718200D01*
X118766310Y-97699491D01*
X118762319Y-97683673D01*
X118762049Y-97679586D01*
X118762049Y-97574728D01*
X118755641Y-97515117D01*
X118750222Y-97500590D01*
X118749025Y-97482459D01*
X118752835Y-97465387D01*
X118751586Y-97447940D01*
X118753895Y-97440075D01*
X118755148Y-97434773D01*
X118761549Y-97375242D01*
X118761550Y-97375225D01*
X118761550Y-97374500D01*
X118761597Y-97374338D01*
X118761727Y-97371919D01*
X118761905Y-97371928D01*
X118761906Y-97371923D01*
X118762009Y-97371934D01*
X118762298Y-97371949D01*
X118781235Y-97307461D01*
X118834039Y-97261706D01*
X118885550Y-97250500D01*
X120337769Y-97250500D01*
X120404808Y-97270185D01*
G37*
%TD.AperFunction*%
%TA.AperFunction,Conductor*%
G36*
X112226231Y-91400185D02*
G01*
X112246873Y-91416819D01*
X114813181Y-93983127D01*
X114846666Y-94044450D01*
X114849500Y-94070808D01*
X114849500Y-95828948D01*
X114829815Y-95895987D01*
X114777011Y-95941742D01*
X114707853Y-95951686D01*
X114651189Y-95928214D01*
X114585189Y-95878806D01*
X114585182Y-95878802D01*
X114450336Y-95828508D01*
X114450337Y-95828508D01*
X114390737Y-95822101D01*
X114390735Y-95822100D01*
X114390727Y-95822100D01*
X114390718Y-95822100D01*
X113271883Y-95822100D01*
X113271877Y-95822101D01*
X113212270Y-95828508D01*
X113176952Y-95841682D01*
X113133619Y-95849500D01*
X110820807Y-95849500D01*
X110753768Y-95829815D01*
X110733126Y-95813181D01*
X109186819Y-94266873D01*
X109153334Y-94205550D01*
X109150500Y-94179192D01*
X109150500Y-92877792D01*
X109170185Y-92810753D01*
X109222989Y-92764998D01*
X109287707Y-92755303D01*
X109287745Y-92754734D01*
X109290365Y-92754905D01*
X109290705Y-92754855D01*
X109291804Y-92754999D01*
X109749999Y-92754999D01*
X110250000Y-92754999D01*
X110708205Y-92754999D01*
X110818409Y-92740492D01*
X110818421Y-92740488D01*
X110955557Y-92683685D01*
X111073321Y-92593321D01*
X111163685Y-92475557D01*
X111220488Y-92338421D01*
X111220489Y-92338416D01*
X111232130Y-92250000D01*
X110250000Y-92250000D01*
X110250000Y-92754999D01*
X109749999Y-92754999D01*
X109750000Y-92754998D01*
X109750000Y-92124000D01*
X109769685Y-92056961D01*
X109822489Y-92011206D01*
X109874000Y-92000000D01*
X110000000Y-92000000D01*
X110000000Y-91874000D01*
X110019685Y-91806961D01*
X110072489Y-91761206D01*
X110124000Y-91750000D01*
X111232128Y-91750000D01*
X111232129Y-91749998D01*
X111220491Y-91661585D01*
X111220490Y-91661582D01*
X111175080Y-91551953D01*
X111167611Y-91482484D01*
X111198886Y-91420004D01*
X111258975Y-91384352D01*
X111289641Y-91380500D01*
X112159192Y-91380500D01*
X112226231Y-91400185D01*
G37*
%TD.AperFunction*%
%TA.AperFunction,Conductor*%
G36*
X129997231Y-82270185D02*
G01*
X130042986Y-82322989D01*
X130052930Y-82392147D01*
X130023905Y-82455703D01*
X130017873Y-82462181D01*
X128091681Y-84388372D01*
X128030358Y-84421857D01*
X127960666Y-84416873D01*
X127904733Y-84375001D01*
X127880316Y-84309537D01*
X127880000Y-84300691D01*
X127880000Y-84212682D01*
X127847990Y-84010582D01*
X127784755Y-83815968D01*
X127691859Y-83633650D01*
X127659474Y-83589077D01*
X127659474Y-83589076D01*
X126980000Y-84268553D01*
X126980000Y-84262339D01*
X126952741Y-84160606D01*
X126900080Y-84069394D01*
X126825606Y-83994920D01*
X126734394Y-83942259D01*
X126632661Y-83915000D01*
X126626446Y-83915000D01*
X127305922Y-83235524D01*
X127305921Y-83235523D01*
X127261359Y-83203147D01*
X127261350Y-83203141D01*
X127079031Y-83110244D01*
X126884417Y-83047009D01*
X126682317Y-83015000D01*
X126477683Y-83015000D01*
X126275582Y-83047009D01*
X126080968Y-83110244D01*
X125898644Y-83203143D01*
X125854077Y-83235523D01*
X125854077Y-83235524D01*
X126533554Y-83915000D01*
X126527339Y-83915000D01*
X126425606Y-83942259D01*
X126334394Y-83994920D01*
X126259920Y-84069394D01*
X126207259Y-84160606D01*
X126180000Y-84262339D01*
X126180000Y-84268553D01*
X125500524Y-83589077D01*
X125500523Y-83589077D01*
X125468143Y-83633644D01*
X125375244Y-83815968D01*
X125312009Y-84010582D01*
X125280000Y-84212682D01*
X125280000Y-84417317D01*
X125312009Y-84619417D01*
X125375244Y-84814031D01*
X125468141Y-84996350D01*
X125468147Y-84996359D01*
X125500523Y-85040921D01*
X125500524Y-85040922D01*
X126180000Y-84361446D01*
X126180000Y-84367661D01*
X126207259Y-84469394D01*
X126259920Y-84560606D01*
X126334394Y-84635080D01*
X126425606Y-84687741D01*
X126527339Y-84715000D01*
X126533553Y-84715000D01*
X125854076Y-85394474D01*
X125898650Y-85426859D01*
X126080968Y-85519755D01*
X126275582Y-85582990D01*
X126477683Y-85615000D01*
X126682316Y-85615000D01*
X126807302Y-85595203D01*
X126876596Y-85604157D01*
X126930048Y-85649153D01*
X126950688Y-85715904D01*
X126949518Y-85729808D01*
X126950097Y-85729866D01*
X126949500Y-85735928D01*
X126949500Y-88842468D01*
X126929815Y-88909507D01*
X126877011Y-88955262D01*
X126807853Y-88965206D01*
X126787183Y-88960399D01*
X126684425Y-88927011D01*
X126684418Y-88927010D01*
X126482317Y-88895000D01*
X126277683Y-88895000D01*
X126075582Y-88927009D01*
X125880968Y-88990244D01*
X125698644Y-89083143D01*
X125654077Y-89115523D01*
X125654077Y-89115524D01*
X126333553Y-89795000D01*
X126327339Y-89795000D01*
X126225606Y-89822259D01*
X126134394Y-89874920D01*
X126059920Y-89949394D01*
X126007259Y-90040606D01*
X125980000Y-90142339D01*
X125980000Y-90148553D01*
X125300524Y-89469077D01*
X125300523Y-89469077D01*
X125268143Y-89513644D01*
X125175244Y-89695968D01*
X125112009Y-89890582D01*
X125080000Y-90092682D01*
X125080000Y-90297317D01*
X125112009Y-90499417D01*
X125175244Y-90694031D01*
X125268141Y-90876350D01*
X125268147Y-90876359D01*
X125300523Y-90920921D01*
X125300524Y-90920922D01*
X125980000Y-90241446D01*
X125980000Y-90247661D01*
X126007259Y-90349394D01*
X126059920Y-90440606D01*
X126134394Y-90515080D01*
X126225606Y-90567741D01*
X126327339Y-90595000D01*
X126333552Y-90595000D01*
X125654076Y-91274474D01*
X125698650Y-91306859D01*
X125880968Y-91399755D01*
X126075582Y-91462990D01*
X126277683Y-91495000D01*
X126482317Y-91495000D01*
X126684417Y-91462990D01*
X126800493Y-91425274D01*
X126816794Y-91424808D01*
X126832172Y-91419383D01*
X126850998Y-91423831D01*
X126870334Y-91423279D01*
X126884296Y-91431698D01*
X126900169Y-91435449D01*
X126913603Y-91449370D01*
X126930167Y-91459359D01*
X126937843Y-91474491D01*
X126948686Y-91485727D01*
X126960429Y-91519011D01*
X126965533Y-91544669D01*
X126968147Y-91557810D01*
X126974499Y-91589745D01*
X127011440Y-91678927D01*
X127023535Y-91708127D01*
X127092679Y-91811610D01*
X127094726Y-91814673D01*
X127094727Y-91814674D01*
X127630373Y-92350319D01*
X127663858Y-92411642D01*
X127658874Y-92481333D01*
X127617003Y-92537267D01*
X127551538Y-92561684D01*
X127542692Y-92562000D01*
X119142508Y-92562000D01*
X119075469Y-92542315D01*
X119036969Y-92503097D01*
X118992712Y-92431344D01*
X118868656Y-92307288D01*
X118762578Y-92241859D01*
X118719336Y-92215187D01*
X118719331Y-92215185D01*
X118702096Y-92209474D01*
X118552797Y-92160001D01*
X118552795Y-92160000D01*
X118450016Y-92149500D01*
X118450009Y-92149500D01*
X117699730Y-92149500D01*
X117632691Y-92129815D01*
X117612049Y-92113181D01*
X117060548Y-91561680D01*
X117027063Y-91500357D01*
X117032047Y-91430665D01*
X117073919Y-91374732D01*
X117139383Y-91350315D01*
X117148229Y-91349999D01*
X117499999Y-91349999D01*
X118000000Y-91349999D01*
X118449972Y-91349999D01*
X118449986Y-91349998D01*
X118552697Y-91339505D01*
X118719119Y-91284358D01*
X118719124Y-91284356D01*
X118868345Y-91192315D01*
X118992315Y-91068345D01*
X119084356Y-90919124D01*
X119084358Y-90919119D01*
X119139505Y-90752697D01*
X119139506Y-90752690D01*
X119149999Y-90649986D01*
X119150000Y-90649973D01*
X119150000Y-90437500D01*
X118000000Y-90437500D01*
X118000000Y-91349999D01*
X117499999Y-91349999D01*
X117500000Y-91349998D01*
X117500000Y-90437500D01*
X116350001Y-90437500D01*
X116350001Y-90551771D01*
X116330316Y-90618810D01*
X116277512Y-90664565D01*
X116208354Y-90674509D01*
X116144798Y-90645484D01*
X116138320Y-90639452D01*
X115223881Y-89725013D01*
X116350000Y-89725013D01*
X116350000Y-89937500D01*
X117500000Y-89937500D01*
X118000000Y-89937500D01*
X119149999Y-89937500D01*
X119149999Y-89725028D01*
X119149998Y-89725013D01*
X119139505Y-89622302D01*
X119084358Y-89455880D01*
X119084356Y-89455875D01*
X118992315Y-89306654D01*
X118868345Y-89182684D01*
X118719124Y-89090643D01*
X118719119Y-89090641D01*
X118552697Y-89035494D01*
X118552690Y-89035493D01*
X118449986Y-89025000D01*
X118000000Y-89025000D01*
X118000000Y-89937500D01*
X117500000Y-89937500D01*
X117500000Y-89025000D01*
X117050028Y-89025000D01*
X117050012Y-89025001D01*
X116947302Y-89035494D01*
X116780880Y-89090641D01*
X116780875Y-89090643D01*
X116631654Y-89182684D01*
X116507684Y-89306654D01*
X116415643Y-89455875D01*
X116415641Y-89455880D01*
X116360494Y-89622302D01*
X116360493Y-89622309D01*
X116350000Y-89725013D01*
X115223881Y-89725013D01*
X113105913Y-87607045D01*
X113057862Y-87574940D01*
X113025826Y-87553535D01*
X112982995Y-87524916D01*
X112982994Y-87524915D01*
X112982992Y-87524914D01*
X112982990Y-87524913D01*
X112846417Y-87468343D01*
X112846407Y-87468340D01*
X112701420Y-87439500D01*
X112701418Y-87439500D01*
X112111230Y-87439500D01*
X112044191Y-87419815D01*
X111998436Y-87367011D01*
X111988492Y-87297853D01*
X112017517Y-87234297D01*
X112023549Y-87227819D01*
X112332950Y-86918418D01*
X112332952Y-86918416D01*
X112383819Y-86842287D01*
X112415084Y-86795495D01*
X112449852Y-86711557D01*
X112471659Y-86658912D01*
X112494001Y-86546588D01*
X112495160Y-86542356D01*
X112511286Y-86516217D01*
X112525526Y-86488996D01*
X112529703Y-86486367D01*
X112531847Y-86482893D01*
X112546007Y-86476108D01*
X112575753Y-86457391D01*
X112719334Y-86409814D01*
X112868656Y-86317712D01*
X112992712Y-86193656D01*
X113084814Y-86044334D01*
X113139999Y-85877797D01*
X113150500Y-85775009D01*
X113150499Y-85024728D01*
X113170183Y-84957690D01*
X113186813Y-84937053D01*
X114621712Y-83502155D01*
X117750000Y-83502155D01*
X117750000Y-84150000D01*
X118666988Y-84150000D01*
X118634075Y-84207007D01*
X118600000Y-84334174D01*
X118600000Y-84465826D01*
X118634075Y-84592993D01*
X118666988Y-84650000D01*
X117750000Y-84650000D01*
X117750000Y-85297844D01*
X117756401Y-85357372D01*
X117756403Y-85357379D01*
X117806645Y-85492086D01*
X117806649Y-85492093D01*
X117892809Y-85607187D01*
X117892812Y-85607190D01*
X118007906Y-85693350D01*
X118007913Y-85693354D01*
X118142620Y-85743596D01*
X118142627Y-85743598D01*
X118202155Y-85749999D01*
X118202172Y-85750000D01*
X118850000Y-85750000D01*
X118850000Y-84833012D01*
X118907007Y-84865925D01*
X119034174Y-84900000D01*
X119165826Y-84900000D01*
X119292993Y-84865925D01*
X119350000Y-84833012D01*
X119350000Y-85750000D01*
X119997828Y-85750000D01*
X119997844Y-85749999D01*
X120057372Y-85743598D01*
X120057379Y-85743596D01*
X120192086Y-85693354D01*
X120192093Y-85693350D01*
X120307187Y-85607190D01*
X120307190Y-85607187D01*
X120393350Y-85492093D01*
X120393354Y-85492086D01*
X120443596Y-85357379D01*
X120443598Y-85357372D01*
X120449999Y-85297844D01*
X120450000Y-85297827D01*
X120450000Y-84650000D01*
X119533012Y-84650000D01*
X119565925Y-84592993D01*
X119600000Y-84465826D01*
X119600000Y-84334174D01*
X119565925Y-84207007D01*
X119533012Y-84150000D01*
X120450000Y-84150000D01*
X120450000Y-83502172D01*
X120449999Y-83502155D01*
X120443598Y-83442627D01*
X120443597Y-83442623D01*
X120400143Y-83326117D01*
X120400142Y-83326116D01*
X120400142Y-83326114D01*
X120393353Y-83307911D01*
X120393350Y-83307906D01*
X120307190Y-83192812D01*
X120307187Y-83192809D01*
X120192093Y-83106649D01*
X120192086Y-83106645D01*
X120057379Y-83056403D01*
X120057372Y-83056401D01*
X119997844Y-83050000D01*
X119350000Y-83050000D01*
X119350000Y-83966988D01*
X119292993Y-83934075D01*
X119165826Y-83900000D01*
X119034174Y-83900000D01*
X118907007Y-83934075D01*
X118850000Y-83966988D01*
X118850000Y-83050000D01*
X118202155Y-83050000D01*
X118142627Y-83056401D01*
X118142620Y-83056403D01*
X118007913Y-83106645D01*
X118007906Y-83106649D01*
X117892812Y-83192809D01*
X117892809Y-83192812D01*
X117806649Y-83307906D01*
X117806645Y-83307913D01*
X117756403Y-83442620D01*
X117756401Y-83442627D01*
X117750000Y-83502155D01*
X114621712Y-83502155D01*
X115837048Y-82286819D01*
X115898371Y-82253334D01*
X115924729Y-82250500D01*
X129930192Y-82250500D01*
X129997231Y-82270185D01*
G37*
%TD.AperFunction*%
%TA.AperFunction,Conductor*%
G36*
X157024697Y-82065073D02*
G01*
X157045339Y-82081707D01*
X157888526Y-82924893D01*
X157922011Y-82986216D01*
X157923318Y-83031971D01*
X157914500Y-83087647D01*
X157914500Y-83292351D01*
X157942654Y-83470111D01*
X157933699Y-83539405D01*
X157907862Y-83577190D01*
X155171873Y-86313181D01*
X155110550Y-86346666D01*
X155084192Y-86349500D01*
X152931810Y-86349500D01*
X152864771Y-86329815D01*
X152819016Y-86277011D01*
X152809072Y-86207853D01*
X152813879Y-86187182D01*
X152863476Y-86034538D01*
X152863476Y-86034537D01*
X152863477Y-86034534D01*
X152895500Y-85832352D01*
X152895500Y-85627648D01*
X152885781Y-85566286D01*
X152863477Y-85425465D01*
X152834127Y-85335137D01*
X152800220Y-85230781D01*
X152800218Y-85230778D01*
X152800218Y-85230776D01*
X152759286Y-85150444D01*
X152707287Y-85048390D01*
X152692753Y-85028385D01*
X152586971Y-84882786D01*
X152442217Y-84738032D01*
X152442212Y-84738028D01*
X152348051Y-84669616D01*
X152305385Y-84614286D01*
X152299406Y-84544673D01*
X152332012Y-84482878D01*
X152381933Y-84451592D01*
X152464117Y-84424359D01*
X152464124Y-84424356D01*
X152613345Y-84332315D01*
X152737315Y-84208345D01*
X152829356Y-84059124D01*
X152829358Y-84059119D01*
X152884505Y-83892697D01*
X152884506Y-83892690D01*
X152894999Y-83789986D01*
X152895000Y-83789973D01*
X152895000Y-83440000D01*
X151910686Y-83440000D01*
X151915080Y-83435606D01*
X151967741Y-83344394D01*
X151995000Y-83242661D01*
X151995000Y-83137339D01*
X151967741Y-83035606D01*
X151915080Y-82944394D01*
X151910686Y-82940000D01*
X152894999Y-82940000D01*
X152894999Y-82590028D01*
X152894998Y-82590013D01*
X152884505Y-82487302D01*
X152829358Y-82320880D01*
X152829356Y-82320875D01*
X152776070Y-82234485D01*
X152757630Y-82167092D01*
X152778553Y-82100429D01*
X152832195Y-82055659D01*
X152881609Y-82045388D01*
X156957658Y-82045388D01*
X157024697Y-82065073D01*
G37*
%TD.AperFunction*%
%TA.AperFunction,Conductor*%
G36*
X145204803Y-82270185D02*
G01*
X145250558Y-82322989D01*
X145253945Y-82331165D01*
X145256201Y-82337213D01*
X145256206Y-82337223D01*
X145342452Y-82452432D01*
X145342455Y-82452435D01*
X145457664Y-82538681D01*
X145457671Y-82538685D01*
X145492752Y-82551769D01*
X145592517Y-82588979D01*
X145652127Y-82595388D01*
X145652153Y-82595387D01*
X145655453Y-82595566D01*
X145655365Y-82597196D01*
X145716238Y-82614955D01*
X145762084Y-82667679D01*
X145769804Y-82711139D01*
X146453554Y-83394888D01*
X146447339Y-83394888D01*
X146345606Y-83422147D01*
X146254394Y-83474808D01*
X146179920Y-83549282D01*
X146127259Y-83640494D01*
X146100000Y-83742227D01*
X146100000Y-83748441D01*
X145420524Y-83068965D01*
X145420523Y-83068965D01*
X145388143Y-83113532D01*
X145295244Y-83295856D01*
X145232009Y-83490470D01*
X145200000Y-83692570D01*
X145200000Y-83897205D01*
X145232009Y-84099305D01*
X145295244Y-84293919D01*
X145388141Y-84476238D01*
X145388147Y-84476247D01*
X145420523Y-84520809D01*
X145420524Y-84520810D01*
X146100000Y-83841334D01*
X146100000Y-83847549D01*
X146127259Y-83949282D01*
X146179920Y-84040494D01*
X146254394Y-84114968D01*
X146345606Y-84167629D01*
X146447339Y-84194888D01*
X146453553Y-84194888D01*
X145774076Y-84874362D01*
X145775396Y-84891130D01*
X145790343Y-84910513D01*
X145796321Y-84980126D01*
X145763714Y-85041921D01*
X145702875Y-85076278D01*
X145674791Y-85079500D01*
X142050807Y-85079500D01*
X141983768Y-85059815D01*
X141963126Y-85043181D01*
X140695331Y-83775385D01*
X139979033Y-83059087D01*
X139945548Y-82997764D01*
X139950532Y-82928072D01*
X139992404Y-82872139D01*
X140057868Y-82847722D01*
X140079960Y-82848116D01*
X140102127Y-82850500D01*
X141897872Y-82850499D01*
X141957483Y-82844091D01*
X142092331Y-82793796D01*
X142207546Y-82707546D01*
X142293796Y-82592331D01*
X142344091Y-82457483D01*
X142350500Y-82397873D01*
X142350500Y-82374500D01*
X142370185Y-82307461D01*
X142422989Y-82261706D01*
X142474500Y-82250500D01*
X145137764Y-82250500D01*
X145204803Y-82270185D01*
G37*
%TD.AperFunction*%
%TA.AperFunction,Conductor*%
G36*
X150315967Y-82047612D02*
G01*
X150323763Y-82046344D01*
X150349018Y-82057317D01*
X150375430Y-82065073D01*
X150380600Y-82071040D01*
X150387845Y-82074188D01*
X150403159Y-82097074D01*
X150421185Y-82117877D01*
X150422308Y-82125691D01*
X150426701Y-82132256D01*
X150427210Y-82159785D01*
X150431129Y-82187035D01*
X150427881Y-82195994D01*
X150427995Y-82202114D01*
X150413930Y-82234485D01*
X150360643Y-82320875D01*
X150360641Y-82320880D01*
X150305494Y-82487302D01*
X150305493Y-82487309D01*
X150295000Y-82590013D01*
X150295000Y-82940000D01*
X151279314Y-82940000D01*
X151274920Y-82944394D01*
X151222259Y-83035606D01*
X151195000Y-83137339D01*
X151195000Y-83242661D01*
X151222259Y-83344394D01*
X151274920Y-83435606D01*
X151279314Y-83440000D01*
X150295001Y-83440000D01*
X150295001Y-83789986D01*
X150305494Y-83892697D01*
X150360641Y-84059119D01*
X150360643Y-84059124D01*
X150452684Y-84208345D01*
X150576654Y-84332315D01*
X150725875Y-84424356D01*
X150725882Y-84424359D01*
X150808067Y-84451592D01*
X150865512Y-84491364D01*
X150892336Y-84555880D01*
X150880021Y-84624656D01*
X150841949Y-84669616D01*
X150747787Y-84738028D01*
X150747782Y-84738032D01*
X150603034Y-84882780D01*
X150550763Y-84954726D01*
X150497246Y-85028386D01*
X150441918Y-85071051D01*
X150396929Y-85079500D01*
X147325207Y-85079500D01*
X147258168Y-85059815D01*
X147212413Y-85007011D01*
X147202469Y-84937853D01*
X147224768Y-84889024D01*
X147225921Y-84874362D01*
X146546447Y-84194888D01*
X146552661Y-84194888D01*
X146654394Y-84167629D01*
X146745606Y-84114968D01*
X146820080Y-84040494D01*
X146872741Y-83949282D01*
X146900000Y-83847549D01*
X146900000Y-83841336D01*
X147579474Y-84520810D01*
X147579474Y-84520809D01*
X147611859Y-84476237D01*
X147704755Y-84293919D01*
X147767990Y-84099305D01*
X147800000Y-83897205D01*
X147800000Y-83692570D01*
X147767990Y-83490470D01*
X147704755Y-83295856D01*
X147611859Y-83113538D01*
X147579474Y-83068965D01*
X147579474Y-83068964D01*
X146900000Y-83748439D01*
X146900000Y-83742227D01*
X146872741Y-83640494D01*
X146820080Y-83549282D01*
X146745606Y-83474808D01*
X146654394Y-83422147D01*
X146552661Y-83394888D01*
X146546446Y-83394888D01*
X147230931Y-82710403D01*
X147241364Y-82660740D01*
X147290415Y-82610982D01*
X147344637Y-82596936D01*
X147344576Y-82595788D01*
X147344571Y-82595742D01*
X147344573Y-82595741D01*
X147344564Y-82595564D01*
X147347857Y-82595387D01*
X147347872Y-82595387D01*
X147407483Y-82588979D01*
X147542331Y-82538684D01*
X147657546Y-82452434D01*
X147743796Y-82337219D01*
X147794091Y-82202371D01*
X147799062Y-82156130D01*
X147825799Y-82091582D01*
X147883191Y-82051734D01*
X147922351Y-82045388D01*
X150308391Y-82045388D01*
X150315967Y-82047612D01*
G37*
%TD.AperFunction*%
%TD*%
M02*
