%TF.GenerationSoftware,KiCad,Pcbnew,9.0.1-9.0.1-0~ubuntu24.04.1*%
%TF.CreationDate,2025-05-01T18:06:16+02:00*%
%TF.ProjectId,Circuito_LED,43697263-7569-4746-9f5f-4c45442e6b69,rev?*%
%TF.SameCoordinates,Original*%
%TF.FileFunction,Legend,Top*%
%TF.FilePolarity,Positive*%
%FSLAX46Y46*%
G04 Gerber Fmt 4.6, Leading zero omitted, Abs format (unit mm)*
G04 Created by KiCad (PCBNEW 9.0.1-9.0.1-0~ubuntu24.04.1) date 2025-05-01 18:06:16*
%MOMM*%
%LPD*%
G01*
G04 APERTURE LIST*
%ADD10C,0.150000*%
%ADD11C,0.254000*%
%ADD12C,0.120000*%
%ADD13C,0.152400*%
%ADD14C,0.100000*%
%ADD15C,0.200000*%
%ADD16C,0.127000*%
G04 APERTURE END LIST*
D10*
X169938095Y-94302438D02*
X169842857Y-94254819D01*
X169842857Y-94254819D02*
X169700000Y-94254819D01*
X169700000Y-94254819D02*
X169557143Y-94302438D01*
X169557143Y-94302438D02*
X169461905Y-94397676D01*
X169461905Y-94397676D02*
X169414286Y-94492914D01*
X169414286Y-94492914D02*
X169366667Y-94683390D01*
X169366667Y-94683390D02*
X169366667Y-94826247D01*
X169366667Y-94826247D02*
X169414286Y-95016723D01*
X169414286Y-95016723D02*
X169461905Y-95111961D01*
X169461905Y-95111961D02*
X169557143Y-95207200D01*
X169557143Y-95207200D02*
X169700000Y-95254819D01*
X169700000Y-95254819D02*
X169795238Y-95254819D01*
X169795238Y-95254819D02*
X169938095Y-95207200D01*
X169938095Y-95207200D02*
X169985714Y-95159580D01*
X169985714Y-95159580D02*
X169985714Y-94826247D01*
X169985714Y-94826247D02*
X169795238Y-94826247D01*
X170414286Y-95254819D02*
X170414286Y-94254819D01*
X170414286Y-94254819D02*
X170985714Y-95254819D01*
X170985714Y-95254819D02*
X170985714Y-94254819D01*
X171461905Y-95254819D02*
X171461905Y-94254819D01*
X171461905Y-94254819D02*
X171700000Y-94254819D01*
X171700000Y-94254819D02*
X171842857Y-94302438D01*
X171842857Y-94302438D02*
X171938095Y-94397676D01*
X171938095Y-94397676D02*
X171985714Y-94492914D01*
X171985714Y-94492914D02*
X172033333Y-94683390D01*
X172033333Y-94683390D02*
X172033333Y-94826247D01*
X172033333Y-94826247D02*
X171985714Y-95016723D01*
X171985714Y-95016723D02*
X171938095Y-95111961D01*
X171938095Y-95111961D02*
X171842857Y-95207200D01*
X171842857Y-95207200D02*
X171700000Y-95254819D01*
X171700000Y-95254819D02*
X171461905Y-95254819D01*
X115028747Y-100554819D02*
X115028747Y-101364342D01*
X115028747Y-101364342D02*
X115076366Y-101459580D01*
X115076366Y-101459580D02*
X115123985Y-101507200D01*
X115123985Y-101507200D02*
X115219223Y-101554819D01*
X115219223Y-101554819D02*
X115409699Y-101554819D01*
X115409699Y-101554819D02*
X115504937Y-101507200D01*
X115504937Y-101507200D02*
X115552556Y-101459580D01*
X115552556Y-101459580D02*
X115600175Y-101364342D01*
X115600175Y-101364342D02*
X115600175Y-100554819D01*
X116552556Y-100554819D02*
X116076366Y-100554819D01*
X116076366Y-100554819D02*
X116028747Y-101031009D01*
X116028747Y-101031009D02*
X116076366Y-100983390D01*
X116076366Y-100983390D02*
X116171604Y-100935771D01*
X116171604Y-100935771D02*
X116409699Y-100935771D01*
X116409699Y-100935771D02*
X116504937Y-100983390D01*
X116504937Y-100983390D02*
X116552556Y-101031009D01*
X116552556Y-101031009D02*
X116600175Y-101126247D01*
X116600175Y-101126247D02*
X116600175Y-101364342D01*
X116600175Y-101364342D02*
X116552556Y-101459580D01*
X116552556Y-101459580D02*
X116504937Y-101507200D01*
X116504937Y-101507200D02*
X116409699Y-101554819D01*
X116409699Y-101554819D02*
X116171604Y-101554819D01*
X116171604Y-101554819D02*
X116076366Y-101507200D01*
X116076366Y-101507200D02*
X116028747Y-101459580D01*
X114300000Y-94554819D02*
X114300000Y-94792914D01*
X114061905Y-94697676D02*
X114300000Y-94792914D01*
X114300000Y-94792914D02*
X114538095Y-94697676D01*
X114157143Y-94983390D02*
X114300000Y-94792914D01*
X114300000Y-94792914D02*
X114442857Y-94983390D01*
X113600000Y-94954819D02*
X113600000Y-95192914D01*
X113361905Y-95097676D02*
X113600000Y-95192914D01*
X113600000Y-95192914D02*
X113838095Y-95097676D01*
X113457143Y-95383390D02*
X113600000Y-95192914D01*
X113600000Y-95192914D02*
X113742857Y-95383390D01*
X170428333Y-91489580D02*
X170380714Y-91537200D01*
X170380714Y-91537200D02*
X170237857Y-91584819D01*
X170237857Y-91584819D02*
X170142619Y-91584819D01*
X170142619Y-91584819D02*
X169999762Y-91537200D01*
X169999762Y-91537200D02*
X169904524Y-91441961D01*
X169904524Y-91441961D02*
X169856905Y-91346723D01*
X169856905Y-91346723D02*
X169809286Y-91156247D01*
X169809286Y-91156247D02*
X169809286Y-91013390D01*
X169809286Y-91013390D02*
X169856905Y-90822914D01*
X169856905Y-90822914D02*
X169904524Y-90727676D01*
X169904524Y-90727676D02*
X169999762Y-90632438D01*
X169999762Y-90632438D02*
X170142619Y-90584819D01*
X170142619Y-90584819D02*
X170237857Y-90584819D01*
X170237857Y-90584819D02*
X170380714Y-90632438D01*
X170380714Y-90632438D02*
X170428333Y-90680057D01*
X171333095Y-90584819D02*
X170856905Y-90584819D01*
X170856905Y-90584819D02*
X170809286Y-91061009D01*
X170809286Y-91061009D02*
X170856905Y-91013390D01*
X170856905Y-91013390D02*
X170952143Y-90965771D01*
X170952143Y-90965771D02*
X171190238Y-90965771D01*
X171190238Y-90965771D02*
X171285476Y-91013390D01*
X171285476Y-91013390D02*
X171333095Y-91061009D01*
X171333095Y-91061009D02*
X171380714Y-91156247D01*
X171380714Y-91156247D02*
X171380714Y-91394342D01*
X171380714Y-91394342D02*
X171333095Y-91489580D01*
X171333095Y-91489580D02*
X171285476Y-91537200D01*
X171285476Y-91537200D02*
X171190238Y-91584819D01*
X171190238Y-91584819D02*
X170952143Y-91584819D01*
X170952143Y-91584819D02*
X170856905Y-91537200D01*
X170856905Y-91537200D02*
X170809286Y-91489580D01*
X109124819Y-103711666D02*
X108648628Y-104044999D01*
X109124819Y-104283094D02*
X108124819Y-104283094D01*
X108124819Y-104283094D02*
X108124819Y-103902142D01*
X108124819Y-103902142D02*
X108172438Y-103806904D01*
X108172438Y-103806904D02*
X108220057Y-103759285D01*
X108220057Y-103759285D02*
X108315295Y-103711666D01*
X108315295Y-103711666D02*
X108458152Y-103711666D01*
X108458152Y-103711666D02*
X108553390Y-103759285D01*
X108553390Y-103759285D02*
X108601009Y-103806904D01*
X108601009Y-103806904D02*
X108648628Y-103902142D01*
X108648628Y-103902142D02*
X108648628Y-104283094D01*
X108124819Y-103378332D02*
X108124819Y-102759285D01*
X108124819Y-102759285D02*
X108505771Y-103092618D01*
X108505771Y-103092618D02*
X108505771Y-102949761D01*
X108505771Y-102949761D02*
X108553390Y-102854523D01*
X108553390Y-102854523D02*
X108601009Y-102806904D01*
X108601009Y-102806904D02*
X108696247Y-102759285D01*
X108696247Y-102759285D02*
X108934342Y-102759285D01*
X108934342Y-102759285D02*
X109029580Y-102806904D01*
X109029580Y-102806904D02*
X109077200Y-102854523D01*
X109077200Y-102854523D02*
X109124819Y-102949761D01*
X109124819Y-102949761D02*
X109124819Y-103235475D01*
X109124819Y-103235475D02*
X109077200Y-103330713D01*
X109077200Y-103330713D02*
X109029580Y-103378332D01*
X165208333Y-86489580D02*
X165160714Y-86537200D01*
X165160714Y-86537200D02*
X165017857Y-86584819D01*
X165017857Y-86584819D02*
X164922619Y-86584819D01*
X164922619Y-86584819D02*
X164779762Y-86537200D01*
X164779762Y-86537200D02*
X164684524Y-86441961D01*
X164684524Y-86441961D02*
X164636905Y-86346723D01*
X164636905Y-86346723D02*
X164589286Y-86156247D01*
X164589286Y-86156247D02*
X164589286Y-86013390D01*
X164589286Y-86013390D02*
X164636905Y-85822914D01*
X164636905Y-85822914D02*
X164684524Y-85727676D01*
X164684524Y-85727676D02*
X164779762Y-85632438D01*
X164779762Y-85632438D02*
X164922619Y-85584819D01*
X164922619Y-85584819D02*
X165017857Y-85584819D01*
X165017857Y-85584819D02*
X165160714Y-85632438D01*
X165160714Y-85632438D02*
X165208333Y-85680057D01*
X166065476Y-85584819D02*
X165875000Y-85584819D01*
X165875000Y-85584819D02*
X165779762Y-85632438D01*
X165779762Y-85632438D02*
X165732143Y-85680057D01*
X165732143Y-85680057D02*
X165636905Y-85822914D01*
X165636905Y-85822914D02*
X165589286Y-86013390D01*
X165589286Y-86013390D02*
X165589286Y-86394342D01*
X165589286Y-86394342D02*
X165636905Y-86489580D01*
X165636905Y-86489580D02*
X165684524Y-86537200D01*
X165684524Y-86537200D02*
X165779762Y-86584819D01*
X165779762Y-86584819D02*
X165970238Y-86584819D01*
X165970238Y-86584819D02*
X166065476Y-86537200D01*
X166065476Y-86537200D02*
X166113095Y-86489580D01*
X166113095Y-86489580D02*
X166160714Y-86394342D01*
X166160714Y-86394342D02*
X166160714Y-86156247D01*
X166160714Y-86156247D02*
X166113095Y-86061009D01*
X166113095Y-86061009D02*
X166065476Y-86013390D01*
X166065476Y-86013390D02*
X165970238Y-85965771D01*
X165970238Y-85965771D02*
X165779762Y-85965771D01*
X165779762Y-85965771D02*
X165684524Y-86013390D01*
X165684524Y-86013390D02*
X165636905Y-86061009D01*
X165636905Y-86061009D02*
X165589286Y-86156247D01*
X140809523Y-78204819D02*
X140333333Y-78204819D01*
X140333333Y-78204819D02*
X140285714Y-78681009D01*
X140285714Y-78681009D02*
X140333333Y-78633390D01*
X140333333Y-78633390D02*
X140428571Y-78585771D01*
X140428571Y-78585771D02*
X140666666Y-78585771D01*
X140666666Y-78585771D02*
X140761904Y-78633390D01*
X140761904Y-78633390D02*
X140809523Y-78681009D01*
X140809523Y-78681009D02*
X140857142Y-78776247D01*
X140857142Y-78776247D02*
X140857142Y-79014342D01*
X140857142Y-79014342D02*
X140809523Y-79109580D01*
X140809523Y-79109580D02*
X140761904Y-79157200D01*
X140761904Y-79157200D02*
X140666666Y-79204819D01*
X140666666Y-79204819D02*
X140428571Y-79204819D01*
X140428571Y-79204819D02*
X140333333Y-79157200D01*
X140333333Y-79157200D02*
X140285714Y-79109580D01*
X141142857Y-78204819D02*
X141476190Y-79204819D01*
X141476190Y-79204819D02*
X141809523Y-78204819D01*
X165333333Y-111859580D02*
X165285714Y-111907200D01*
X165285714Y-111907200D02*
X165142857Y-111954819D01*
X165142857Y-111954819D02*
X165047619Y-111954819D01*
X165047619Y-111954819D02*
X164904762Y-111907200D01*
X164904762Y-111907200D02*
X164809524Y-111811961D01*
X164809524Y-111811961D02*
X164761905Y-111716723D01*
X164761905Y-111716723D02*
X164714286Y-111526247D01*
X164714286Y-111526247D02*
X164714286Y-111383390D01*
X164714286Y-111383390D02*
X164761905Y-111192914D01*
X164761905Y-111192914D02*
X164809524Y-111097676D01*
X164809524Y-111097676D02*
X164904762Y-111002438D01*
X164904762Y-111002438D02*
X165047619Y-110954819D01*
X165047619Y-110954819D02*
X165142857Y-110954819D01*
X165142857Y-110954819D02*
X165285714Y-111002438D01*
X165285714Y-111002438D02*
X165333333Y-111050057D01*
X166285714Y-111954819D02*
X165714286Y-111954819D01*
X166000000Y-111954819D02*
X166000000Y-110954819D01*
X166000000Y-110954819D02*
X165904762Y-111097676D01*
X165904762Y-111097676D02*
X165809524Y-111192914D01*
X165809524Y-111192914D02*
X165714286Y-111240533D01*
X143404819Y-94766904D02*
X144214342Y-94766904D01*
X144214342Y-94766904D02*
X144309580Y-94719285D01*
X144309580Y-94719285D02*
X144357200Y-94671666D01*
X144357200Y-94671666D02*
X144404819Y-94576428D01*
X144404819Y-94576428D02*
X144404819Y-94385952D01*
X144404819Y-94385952D02*
X144357200Y-94290714D01*
X144357200Y-94290714D02*
X144309580Y-94243095D01*
X144309580Y-94243095D02*
X144214342Y-94195476D01*
X144214342Y-94195476D02*
X143404819Y-94195476D01*
X143404819Y-93814523D02*
X143404819Y-93195476D01*
X143404819Y-93195476D02*
X143785771Y-93528809D01*
X143785771Y-93528809D02*
X143785771Y-93385952D01*
X143785771Y-93385952D02*
X143833390Y-93290714D01*
X143833390Y-93290714D02*
X143881009Y-93243095D01*
X143881009Y-93243095D02*
X143976247Y-93195476D01*
X143976247Y-93195476D02*
X144214342Y-93195476D01*
X144214342Y-93195476D02*
X144309580Y-93243095D01*
X144309580Y-93243095D02*
X144357200Y-93290714D01*
X144357200Y-93290714D02*
X144404819Y-93385952D01*
X144404819Y-93385952D02*
X144404819Y-93671666D01*
X144404819Y-93671666D02*
X144357200Y-93766904D01*
X144357200Y-93766904D02*
X144309580Y-93814523D01*
X155183333Y-96054819D02*
X154850000Y-95578628D01*
X154611905Y-96054819D02*
X154611905Y-95054819D01*
X154611905Y-95054819D02*
X154992857Y-95054819D01*
X154992857Y-95054819D02*
X155088095Y-95102438D01*
X155088095Y-95102438D02*
X155135714Y-95150057D01*
X155135714Y-95150057D02*
X155183333Y-95245295D01*
X155183333Y-95245295D02*
X155183333Y-95388152D01*
X155183333Y-95388152D02*
X155135714Y-95483390D01*
X155135714Y-95483390D02*
X155088095Y-95531009D01*
X155088095Y-95531009D02*
X154992857Y-95578628D01*
X154992857Y-95578628D02*
X154611905Y-95578628D01*
X155659524Y-96054819D02*
X155850000Y-96054819D01*
X155850000Y-96054819D02*
X155945238Y-96007200D01*
X155945238Y-96007200D02*
X155992857Y-95959580D01*
X155992857Y-95959580D02*
X156088095Y-95816723D01*
X156088095Y-95816723D02*
X156135714Y-95626247D01*
X156135714Y-95626247D02*
X156135714Y-95245295D01*
X156135714Y-95245295D02*
X156088095Y-95150057D01*
X156088095Y-95150057D02*
X156040476Y-95102438D01*
X156040476Y-95102438D02*
X155945238Y-95054819D01*
X155945238Y-95054819D02*
X155754762Y-95054819D01*
X155754762Y-95054819D02*
X155659524Y-95102438D01*
X155659524Y-95102438D02*
X155611905Y-95150057D01*
X155611905Y-95150057D02*
X155564286Y-95245295D01*
X155564286Y-95245295D02*
X155564286Y-95483390D01*
X155564286Y-95483390D02*
X155611905Y-95578628D01*
X155611905Y-95578628D02*
X155659524Y-95626247D01*
X155659524Y-95626247D02*
X155754762Y-95673866D01*
X155754762Y-95673866D02*
X155945238Y-95673866D01*
X155945238Y-95673866D02*
X156040476Y-95626247D01*
X156040476Y-95626247D02*
X156088095Y-95578628D01*
X156088095Y-95578628D02*
X156135714Y-95483390D01*
X170233333Y-106459580D02*
X170185714Y-106507200D01*
X170185714Y-106507200D02*
X170042857Y-106554819D01*
X170042857Y-106554819D02*
X169947619Y-106554819D01*
X169947619Y-106554819D02*
X169804762Y-106507200D01*
X169804762Y-106507200D02*
X169709524Y-106411961D01*
X169709524Y-106411961D02*
X169661905Y-106316723D01*
X169661905Y-106316723D02*
X169614286Y-106126247D01*
X169614286Y-106126247D02*
X169614286Y-105983390D01*
X169614286Y-105983390D02*
X169661905Y-105792914D01*
X169661905Y-105792914D02*
X169709524Y-105697676D01*
X169709524Y-105697676D02*
X169804762Y-105602438D01*
X169804762Y-105602438D02*
X169947619Y-105554819D01*
X169947619Y-105554819D02*
X170042857Y-105554819D01*
X170042857Y-105554819D02*
X170185714Y-105602438D01*
X170185714Y-105602438D02*
X170233333Y-105650057D01*
X170614286Y-105650057D02*
X170661905Y-105602438D01*
X170661905Y-105602438D02*
X170757143Y-105554819D01*
X170757143Y-105554819D02*
X170995238Y-105554819D01*
X170995238Y-105554819D02*
X171090476Y-105602438D01*
X171090476Y-105602438D02*
X171138095Y-105650057D01*
X171138095Y-105650057D02*
X171185714Y-105745295D01*
X171185714Y-105745295D02*
X171185714Y-105840533D01*
X171185714Y-105840533D02*
X171138095Y-105983390D01*
X171138095Y-105983390D02*
X170566667Y-106554819D01*
X170566667Y-106554819D02*
X171185714Y-106554819D01*
X107628333Y-106784819D02*
X107295000Y-106308628D01*
X107056905Y-106784819D02*
X107056905Y-105784819D01*
X107056905Y-105784819D02*
X107437857Y-105784819D01*
X107437857Y-105784819D02*
X107533095Y-105832438D01*
X107533095Y-105832438D02*
X107580714Y-105880057D01*
X107580714Y-105880057D02*
X107628333Y-105975295D01*
X107628333Y-105975295D02*
X107628333Y-106118152D01*
X107628333Y-106118152D02*
X107580714Y-106213390D01*
X107580714Y-106213390D02*
X107533095Y-106261009D01*
X107533095Y-106261009D02*
X107437857Y-106308628D01*
X107437857Y-106308628D02*
X107056905Y-106308628D01*
X108485476Y-106118152D02*
X108485476Y-106784819D01*
X108247381Y-105737200D02*
X108009286Y-106451485D01*
X108009286Y-106451485D02*
X108628333Y-106451485D01*
X96507142Y-86224819D02*
X96173809Y-85748628D01*
X95935714Y-86224819D02*
X95935714Y-85224819D01*
X95935714Y-85224819D02*
X96316666Y-85224819D01*
X96316666Y-85224819D02*
X96411904Y-85272438D01*
X96411904Y-85272438D02*
X96459523Y-85320057D01*
X96459523Y-85320057D02*
X96507142Y-85415295D01*
X96507142Y-85415295D02*
X96507142Y-85558152D01*
X96507142Y-85558152D02*
X96459523Y-85653390D01*
X96459523Y-85653390D02*
X96411904Y-85701009D01*
X96411904Y-85701009D02*
X96316666Y-85748628D01*
X96316666Y-85748628D02*
X95935714Y-85748628D01*
X97459523Y-86224819D02*
X96888095Y-86224819D01*
X97173809Y-86224819D02*
X97173809Y-85224819D01*
X97173809Y-85224819D02*
X97078571Y-85367676D01*
X97078571Y-85367676D02*
X96983333Y-85462914D01*
X96983333Y-85462914D02*
X96888095Y-85510533D01*
X98411904Y-86224819D02*
X97840476Y-86224819D01*
X98126190Y-86224819D02*
X98126190Y-85224819D01*
X98126190Y-85224819D02*
X98030952Y-85367676D01*
X98030952Y-85367676D02*
X97935714Y-85462914D01*
X97935714Y-85462914D02*
X97840476Y-85510533D01*
X118338095Y-81402438D02*
X118242857Y-81354819D01*
X118242857Y-81354819D02*
X118100000Y-81354819D01*
X118100000Y-81354819D02*
X117957143Y-81402438D01*
X117957143Y-81402438D02*
X117861905Y-81497676D01*
X117861905Y-81497676D02*
X117814286Y-81592914D01*
X117814286Y-81592914D02*
X117766667Y-81783390D01*
X117766667Y-81783390D02*
X117766667Y-81926247D01*
X117766667Y-81926247D02*
X117814286Y-82116723D01*
X117814286Y-82116723D02*
X117861905Y-82211961D01*
X117861905Y-82211961D02*
X117957143Y-82307200D01*
X117957143Y-82307200D02*
X118100000Y-82354819D01*
X118100000Y-82354819D02*
X118195238Y-82354819D01*
X118195238Y-82354819D02*
X118338095Y-82307200D01*
X118338095Y-82307200D02*
X118385714Y-82259580D01*
X118385714Y-82259580D02*
X118385714Y-81926247D01*
X118385714Y-81926247D02*
X118195238Y-81926247D01*
X118814286Y-82354819D02*
X118814286Y-81354819D01*
X118814286Y-81354819D02*
X119385714Y-82354819D01*
X119385714Y-82354819D02*
X119385714Y-81354819D01*
X119861905Y-82354819D02*
X119861905Y-81354819D01*
X119861905Y-81354819D02*
X120100000Y-81354819D01*
X120100000Y-81354819D02*
X120242857Y-81402438D01*
X120242857Y-81402438D02*
X120338095Y-81497676D01*
X120338095Y-81497676D02*
X120385714Y-81592914D01*
X120385714Y-81592914D02*
X120433333Y-81783390D01*
X120433333Y-81783390D02*
X120433333Y-81926247D01*
X120433333Y-81926247D02*
X120385714Y-82116723D01*
X120385714Y-82116723D02*
X120338095Y-82211961D01*
X120338095Y-82211961D02*
X120242857Y-82307200D01*
X120242857Y-82307200D02*
X120100000Y-82354819D01*
X120100000Y-82354819D02*
X119861905Y-82354819D01*
X128437142Y-82424580D02*
X128389523Y-82472200D01*
X128389523Y-82472200D02*
X128246666Y-82519819D01*
X128246666Y-82519819D02*
X128151428Y-82519819D01*
X128151428Y-82519819D02*
X128008571Y-82472200D01*
X128008571Y-82472200D02*
X127913333Y-82376961D01*
X127913333Y-82376961D02*
X127865714Y-82281723D01*
X127865714Y-82281723D02*
X127818095Y-82091247D01*
X127818095Y-82091247D02*
X127818095Y-81948390D01*
X127818095Y-81948390D02*
X127865714Y-81757914D01*
X127865714Y-81757914D02*
X127913333Y-81662676D01*
X127913333Y-81662676D02*
X128008571Y-81567438D01*
X128008571Y-81567438D02*
X128151428Y-81519819D01*
X128151428Y-81519819D02*
X128246666Y-81519819D01*
X128246666Y-81519819D02*
X128389523Y-81567438D01*
X128389523Y-81567438D02*
X128437142Y-81615057D01*
X129389523Y-82519819D02*
X128818095Y-82519819D01*
X129103809Y-82519819D02*
X129103809Y-81519819D01*
X129103809Y-81519819D02*
X129008571Y-81662676D01*
X129008571Y-81662676D02*
X128913333Y-81757914D01*
X128913333Y-81757914D02*
X128818095Y-81805533D01*
X130246666Y-81853152D02*
X130246666Y-82519819D01*
X130008571Y-81472200D02*
X129770476Y-82186485D01*
X129770476Y-82186485D02*
X130389523Y-82186485D01*
X148684819Y-91592857D02*
X148208628Y-91926190D01*
X148684819Y-92164285D02*
X147684819Y-92164285D01*
X147684819Y-92164285D02*
X147684819Y-91783333D01*
X147684819Y-91783333D02*
X147732438Y-91688095D01*
X147732438Y-91688095D02*
X147780057Y-91640476D01*
X147780057Y-91640476D02*
X147875295Y-91592857D01*
X147875295Y-91592857D02*
X148018152Y-91592857D01*
X148018152Y-91592857D02*
X148113390Y-91640476D01*
X148113390Y-91640476D02*
X148161009Y-91688095D01*
X148161009Y-91688095D02*
X148208628Y-91783333D01*
X148208628Y-91783333D02*
X148208628Y-92164285D01*
X148684819Y-90640476D02*
X148684819Y-91211904D01*
X148684819Y-90926190D02*
X147684819Y-90926190D01*
X147684819Y-90926190D02*
X147827676Y-91021428D01*
X147827676Y-91021428D02*
X147922914Y-91116666D01*
X147922914Y-91116666D02*
X147970533Y-91211904D01*
X147684819Y-90021428D02*
X147684819Y-89926190D01*
X147684819Y-89926190D02*
X147732438Y-89830952D01*
X147732438Y-89830952D02*
X147780057Y-89783333D01*
X147780057Y-89783333D02*
X147875295Y-89735714D01*
X147875295Y-89735714D02*
X148065771Y-89688095D01*
X148065771Y-89688095D02*
X148303866Y-89688095D01*
X148303866Y-89688095D02*
X148494342Y-89735714D01*
X148494342Y-89735714D02*
X148589580Y-89783333D01*
X148589580Y-89783333D02*
X148637200Y-89830952D01*
X148637200Y-89830952D02*
X148684819Y-89926190D01*
X148684819Y-89926190D02*
X148684819Y-90021428D01*
X148684819Y-90021428D02*
X148637200Y-90116666D01*
X148637200Y-90116666D02*
X148589580Y-90164285D01*
X148589580Y-90164285D02*
X148494342Y-90211904D01*
X148494342Y-90211904D02*
X148303866Y-90259523D01*
X148303866Y-90259523D02*
X148065771Y-90259523D01*
X148065771Y-90259523D02*
X147875295Y-90211904D01*
X147875295Y-90211904D02*
X147780057Y-90164285D01*
X147780057Y-90164285D02*
X147732438Y-90116666D01*
X147732438Y-90116666D02*
X147684819Y-90021428D01*
X146333333Y-79109580D02*
X146285714Y-79157200D01*
X146285714Y-79157200D02*
X146142857Y-79204819D01*
X146142857Y-79204819D02*
X146047619Y-79204819D01*
X146047619Y-79204819D02*
X145904762Y-79157200D01*
X145904762Y-79157200D02*
X145809524Y-79061961D01*
X145809524Y-79061961D02*
X145761905Y-78966723D01*
X145761905Y-78966723D02*
X145714286Y-78776247D01*
X145714286Y-78776247D02*
X145714286Y-78633390D01*
X145714286Y-78633390D02*
X145761905Y-78442914D01*
X145761905Y-78442914D02*
X145809524Y-78347676D01*
X145809524Y-78347676D02*
X145904762Y-78252438D01*
X145904762Y-78252438D02*
X146047619Y-78204819D01*
X146047619Y-78204819D02*
X146142857Y-78204819D01*
X146142857Y-78204819D02*
X146285714Y-78252438D01*
X146285714Y-78252438D02*
X146333333Y-78300057D01*
X146666667Y-78204819D02*
X147333333Y-78204819D01*
X147333333Y-78204819D02*
X146904762Y-79204819D01*
X99243095Y-103814819D02*
X99243095Y-104624342D01*
X99243095Y-104624342D02*
X99290714Y-104719580D01*
X99290714Y-104719580D02*
X99338333Y-104767200D01*
X99338333Y-104767200D02*
X99433571Y-104814819D01*
X99433571Y-104814819D02*
X99624047Y-104814819D01*
X99624047Y-104814819D02*
X99719285Y-104767200D01*
X99719285Y-104767200D02*
X99766904Y-104719580D01*
X99766904Y-104719580D02*
X99814523Y-104624342D01*
X99814523Y-104624342D02*
X99814523Y-103814819D01*
X100243095Y-103910057D02*
X100290714Y-103862438D01*
X100290714Y-103862438D02*
X100385952Y-103814819D01*
X100385952Y-103814819D02*
X100624047Y-103814819D01*
X100624047Y-103814819D02*
X100719285Y-103862438D01*
X100719285Y-103862438D02*
X100766904Y-103910057D01*
X100766904Y-103910057D02*
X100814523Y-104005295D01*
X100814523Y-104005295D02*
X100814523Y-104100533D01*
X100814523Y-104100533D02*
X100766904Y-104243390D01*
X100766904Y-104243390D02*
X100195476Y-104814819D01*
X100195476Y-104814819D02*
X100814523Y-104814819D01*
D11*
X146979047Y-101395270D02*
X146858095Y-101334794D01*
X146858095Y-101334794D02*
X146737142Y-101213842D01*
X146737142Y-101213842D02*
X146555714Y-101032413D01*
X146555714Y-101032413D02*
X146434761Y-100971937D01*
X146434761Y-100971937D02*
X146313809Y-100971937D01*
X146374285Y-101274318D02*
X146253333Y-101213842D01*
X146253333Y-101213842D02*
X146132380Y-101092889D01*
X146132380Y-101092889D02*
X146071904Y-100850984D01*
X146071904Y-100850984D02*
X146071904Y-100427651D01*
X146071904Y-100427651D02*
X146132380Y-100185746D01*
X146132380Y-100185746D02*
X146253333Y-100064794D01*
X146253333Y-100064794D02*
X146374285Y-100004318D01*
X146374285Y-100004318D02*
X146616190Y-100004318D01*
X146616190Y-100004318D02*
X146737142Y-100064794D01*
X146737142Y-100064794D02*
X146858095Y-100185746D01*
X146858095Y-100185746D02*
X146918571Y-100427651D01*
X146918571Y-100427651D02*
X146918571Y-100850984D01*
X146918571Y-100850984D02*
X146858095Y-101092889D01*
X146858095Y-101092889D02*
X146737142Y-101213842D01*
X146737142Y-101213842D02*
X146616190Y-101274318D01*
X146616190Y-101274318D02*
X146374285Y-101274318D01*
X148007142Y-100004318D02*
X147765237Y-100004318D01*
X147765237Y-100004318D02*
X147644285Y-100064794D01*
X147644285Y-100064794D02*
X147583809Y-100125270D01*
X147583809Y-100125270D02*
X147462856Y-100306699D01*
X147462856Y-100306699D02*
X147402380Y-100548603D01*
X147402380Y-100548603D02*
X147402380Y-101032413D01*
X147402380Y-101032413D02*
X147462856Y-101153365D01*
X147462856Y-101153365D02*
X147523333Y-101213842D01*
X147523333Y-101213842D02*
X147644285Y-101274318D01*
X147644285Y-101274318D02*
X147886190Y-101274318D01*
X147886190Y-101274318D02*
X148007142Y-101213842D01*
X148007142Y-101213842D02*
X148067618Y-101153365D01*
X148067618Y-101153365D02*
X148128095Y-101032413D01*
X148128095Y-101032413D02*
X148128095Y-100730032D01*
X148128095Y-100730032D02*
X148067618Y-100609080D01*
X148067618Y-100609080D02*
X148007142Y-100548603D01*
X148007142Y-100548603D02*
X147886190Y-100488127D01*
X147886190Y-100488127D02*
X147644285Y-100488127D01*
X147644285Y-100488127D02*
X147523333Y-100548603D01*
X147523333Y-100548603D02*
X147462856Y-100609080D01*
X147462856Y-100609080D02*
X147402380Y-100730032D01*
D10*
X135892142Y-86689819D02*
X135558809Y-86213628D01*
X135320714Y-86689819D02*
X135320714Y-85689819D01*
X135320714Y-85689819D02*
X135701666Y-85689819D01*
X135701666Y-85689819D02*
X135796904Y-85737438D01*
X135796904Y-85737438D02*
X135844523Y-85785057D01*
X135844523Y-85785057D02*
X135892142Y-85880295D01*
X135892142Y-85880295D02*
X135892142Y-86023152D01*
X135892142Y-86023152D02*
X135844523Y-86118390D01*
X135844523Y-86118390D02*
X135796904Y-86166009D01*
X135796904Y-86166009D02*
X135701666Y-86213628D01*
X135701666Y-86213628D02*
X135320714Y-86213628D01*
X136844523Y-86689819D02*
X136273095Y-86689819D01*
X136558809Y-86689819D02*
X136558809Y-85689819D01*
X136558809Y-85689819D02*
X136463571Y-85832676D01*
X136463571Y-85832676D02*
X136368333Y-85927914D01*
X136368333Y-85927914D02*
X136273095Y-85975533D01*
X137701666Y-86023152D02*
X137701666Y-86689819D01*
X137463571Y-85642200D02*
X137225476Y-86356485D01*
X137225476Y-86356485D02*
X137844523Y-86356485D01*
X111083333Y-116609580D02*
X111035714Y-116657200D01*
X111035714Y-116657200D02*
X110892857Y-116704819D01*
X110892857Y-116704819D02*
X110797619Y-116704819D01*
X110797619Y-116704819D02*
X110654762Y-116657200D01*
X110654762Y-116657200D02*
X110559524Y-116561961D01*
X110559524Y-116561961D02*
X110511905Y-116466723D01*
X110511905Y-116466723D02*
X110464286Y-116276247D01*
X110464286Y-116276247D02*
X110464286Y-116133390D01*
X110464286Y-116133390D02*
X110511905Y-115942914D01*
X110511905Y-115942914D02*
X110559524Y-115847676D01*
X110559524Y-115847676D02*
X110654762Y-115752438D01*
X110654762Y-115752438D02*
X110797619Y-115704819D01*
X110797619Y-115704819D02*
X110892857Y-115704819D01*
X110892857Y-115704819D02*
X111035714Y-115752438D01*
X111035714Y-115752438D02*
X111083333Y-115800057D01*
X111416667Y-115704819D02*
X112035714Y-115704819D01*
X112035714Y-115704819D02*
X111702381Y-116085771D01*
X111702381Y-116085771D02*
X111845238Y-116085771D01*
X111845238Y-116085771D02*
X111940476Y-116133390D01*
X111940476Y-116133390D02*
X111988095Y-116181009D01*
X111988095Y-116181009D02*
X112035714Y-116276247D01*
X112035714Y-116276247D02*
X112035714Y-116514342D01*
X112035714Y-116514342D02*
X111988095Y-116609580D01*
X111988095Y-116609580D02*
X111940476Y-116657200D01*
X111940476Y-116657200D02*
X111845238Y-116704819D01*
X111845238Y-116704819D02*
X111559524Y-116704819D01*
X111559524Y-116704819D02*
X111464286Y-116657200D01*
X111464286Y-116657200D02*
X111416667Y-116609580D01*
X113959580Y-84392857D02*
X114007200Y-84440476D01*
X114007200Y-84440476D02*
X114054819Y-84583333D01*
X114054819Y-84583333D02*
X114054819Y-84678571D01*
X114054819Y-84678571D02*
X114007200Y-84821428D01*
X114007200Y-84821428D02*
X113911961Y-84916666D01*
X113911961Y-84916666D02*
X113816723Y-84964285D01*
X113816723Y-84964285D02*
X113626247Y-85011904D01*
X113626247Y-85011904D02*
X113483390Y-85011904D01*
X113483390Y-85011904D02*
X113292914Y-84964285D01*
X113292914Y-84964285D02*
X113197676Y-84916666D01*
X113197676Y-84916666D02*
X113102438Y-84821428D01*
X113102438Y-84821428D02*
X113054819Y-84678571D01*
X113054819Y-84678571D02*
X113054819Y-84583333D01*
X113054819Y-84583333D02*
X113102438Y-84440476D01*
X113102438Y-84440476D02*
X113150057Y-84392857D01*
X114054819Y-83440476D02*
X114054819Y-84011904D01*
X114054819Y-83726190D02*
X113054819Y-83726190D01*
X113054819Y-83726190D02*
X113197676Y-83821428D01*
X113197676Y-83821428D02*
X113292914Y-83916666D01*
X113292914Y-83916666D02*
X113340533Y-84011904D01*
X113054819Y-82583333D02*
X113054819Y-82773809D01*
X113054819Y-82773809D02*
X113102438Y-82869047D01*
X113102438Y-82869047D02*
X113150057Y-82916666D01*
X113150057Y-82916666D02*
X113292914Y-83011904D01*
X113292914Y-83011904D02*
X113483390Y-83059523D01*
X113483390Y-83059523D02*
X113864342Y-83059523D01*
X113864342Y-83059523D02*
X113959580Y-83011904D01*
X113959580Y-83011904D02*
X114007200Y-82964285D01*
X114007200Y-82964285D02*
X114054819Y-82869047D01*
X114054819Y-82869047D02*
X114054819Y-82678571D01*
X114054819Y-82678571D02*
X114007200Y-82583333D01*
X114007200Y-82583333D02*
X113959580Y-82535714D01*
X113959580Y-82535714D02*
X113864342Y-82488095D01*
X113864342Y-82488095D02*
X113626247Y-82488095D01*
X113626247Y-82488095D02*
X113531009Y-82535714D01*
X113531009Y-82535714D02*
X113483390Y-82583333D01*
X113483390Y-82583333D02*
X113435771Y-82678571D01*
X113435771Y-82678571D02*
X113435771Y-82869047D01*
X113435771Y-82869047D02*
X113483390Y-82964285D01*
X113483390Y-82964285D02*
X113531009Y-83011904D01*
X113531009Y-83011904D02*
X113626247Y-83059523D01*
X130457142Y-102454819D02*
X130123809Y-101978628D01*
X129885714Y-102454819D02*
X129885714Y-101454819D01*
X129885714Y-101454819D02*
X130266666Y-101454819D01*
X130266666Y-101454819D02*
X130361904Y-101502438D01*
X130361904Y-101502438D02*
X130409523Y-101550057D01*
X130409523Y-101550057D02*
X130457142Y-101645295D01*
X130457142Y-101645295D02*
X130457142Y-101788152D01*
X130457142Y-101788152D02*
X130409523Y-101883390D01*
X130409523Y-101883390D02*
X130361904Y-101931009D01*
X130361904Y-101931009D02*
X130266666Y-101978628D01*
X130266666Y-101978628D02*
X129885714Y-101978628D01*
X131409523Y-102454819D02*
X130838095Y-102454819D01*
X131123809Y-102454819D02*
X131123809Y-101454819D01*
X131123809Y-101454819D02*
X131028571Y-101597676D01*
X131028571Y-101597676D02*
X130933333Y-101692914D01*
X130933333Y-101692914D02*
X130838095Y-101740533D01*
X131742857Y-101454819D02*
X132361904Y-101454819D01*
X132361904Y-101454819D02*
X132028571Y-101835771D01*
X132028571Y-101835771D02*
X132171428Y-101835771D01*
X132171428Y-101835771D02*
X132266666Y-101883390D01*
X132266666Y-101883390D02*
X132314285Y-101931009D01*
X132314285Y-101931009D02*
X132361904Y-102026247D01*
X132361904Y-102026247D02*
X132361904Y-102264342D01*
X132361904Y-102264342D02*
X132314285Y-102359580D01*
X132314285Y-102359580D02*
X132266666Y-102407200D01*
X132266666Y-102407200D02*
X132171428Y-102454819D01*
X132171428Y-102454819D02*
X131885714Y-102454819D01*
X131885714Y-102454819D02*
X131790476Y-102407200D01*
X131790476Y-102407200D02*
X131742857Y-102359580D01*
X143204819Y-119595238D02*
X142728628Y-119928571D01*
X143204819Y-120166666D02*
X142204819Y-120166666D01*
X142204819Y-120166666D02*
X142204819Y-119785714D01*
X142204819Y-119785714D02*
X142252438Y-119690476D01*
X142252438Y-119690476D02*
X142300057Y-119642857D01*
X142300057Y-119642857D02*
X142395295Y-119595238D01*
X142395295Y-119595238D02*
X142538152Y-119595238D01*
X142538152Y-119595238D02*
X142633390Y-119642857D01*
X142633390Y-119642857D02*
X142681009Y-119690476D01*
X142681009Y-119690476D02*
X142728628Y-119785714D01*
X142728628Y-119785714D02*
X142728628Y-120166666D01*
X142204819Y-119309523D02*
X143204819Y-118976190D01*
X143204819Y-118976190D02*
X142204819Y-118642857D01*
X142300057Y-118357142D02*
X142252438Y-118309523D01*
X142252438Y-118309523D02*
X142204819Y-118214285D01*
X142204819Y-118214285D02*
X142204819Y-117976190D01*
X142204819Y-117976190D02*
X142252438Y-117880952D01*
X142252438Y-117880952D02*
X142300057Y-117833333D01*
X142300057Y-117833333D02*
X142395295Y-117785714D01*
X142395295Y-117785714D02*
X142490533Y-117785714D01*
X142490533Y-117785714D02*
X142633390Y-117833333D01*
X142633390Y-117833333D02*
X143204819Y-118404761D01*
X143204819Y-118404761D02*
X143204819Y-117785714D01*
X155108095Y-111054819D02*
X155108095Y-111864342D01*
X155108095Y-111864342D02*
X155155714Y-111959580D01*
X155155714Y-111959580D02*
X155203333Y-112007200D01*
X155203333Y-112007200D02*
X155298571Y-112054819D01*
X155298571Y-112054819D02*
X155489047Y-112054819D01*
X155489047Y-112054819D02*
X155584285Y-112007200D01*
X155584285Y-112007200D02*
X155631904Y-111959580D01*
X155631904Y-111959580D02*
X155679523Y-111864342D01*
X155679523Y-111864342D02*
X155679523Y-111054819D01*
X156679523Y-112054819D02*
X156108095Y-112054819D01*
X156393809Y-112054819D02*
X156393809Y-111054819D01*
X156393809Y-111054819D02*
X156298571Y-111197676D01*
X156298571Y-111197676D02*
X156203333Y-111292914D01*
X156203333Y-111292914D02*
X156108095Y-111340533D01*
X167204819Y-119595238D02*
X166728628Y-119928571D01*
X167204819Y-120166666D02*
X166204819Y-120166666D01*
X166204819Y-120166666D02*
X166204819Y-119785714D01*
X166204819Y-119785714D02*
X166252438Y-119690476D01*
X166252438Y-119690476D02*
X166300057Y-119642857D01*
X166300057Y-119642857D02*
X166395295Y-119595238D01*
X166395295Y-119595238D02*
X166538152Y-119595238D01*
X166538152Y-119595238D02*
X166633390Y-119642857D01*
X166633390Y-119642857D02*
X166681009Y-119690476D01*
X166681009Y-119690476D02*
X166728628Y-119785714D01*
X166728628Y-119785714D02*
X166728628Y-120166666D01*
X166204819Y-119309523D02*
X167204819Y-118976190D01*
X167204819Y-118976190D02*
X166204819Y-118642857D01*
X167204819Y-117785714D02*
X167204819Y-118357142D01*
X167204819Y-118071428D02*
X166204819Y-118071428D01*
X166204819Y-118071428D02*
X166347676Y-118166666D01*
X166347676Y-118166666D02*
X166442914Y-118261904D01*
X166442914Y-118261904D02*
X166490533Y-118357142D01*
X96407142Y-91324819D02*
X96073809Y-90848628D01*
X95835714Y-91324819D02*
X95835714Y-90324819D01*
X95835714Y-90324819D02*
X96216666Y-90324819D01*
X96216666Y-90324819D02*
X96311904Y-90372438D01*
X96311904Y-90372438D02*
X96359523Y-90420057D01*
X96359523Y-90420057D02*
X96407142Y-90515295D01*
X96407142Y-90515295D02*
X96407142Y-90658152D01*
X96407142Y-90658152D02*
X96359523Y-90753390D01*
X96359523Y-90753390D02*
X96311904Y-90801009D01*
X96311904Y-90801009D02*
X96216666Y-90848628D01*
X96216666Y-90848628D02*
X95835714Y-90848628D01*
X97359523Y-91324819D02*
X96788095Y-91324819D01*
X97073809Y-91324819D02*
X97073809Y-90324819D01*
X97073809Y-90324819D02*
X96978571Y-90467676D01*
X96978571Y-90467676D02*
X96883333Y-90562914D01*
X96883333Y-90562914D02*
X96788095Y-90610533D01*
X97740476Y-90420057D02*
X97788095Y-90372438D01*
X97788095Y-90372438D02*
X97883333Y-90324819D01*
X97883333Y-90324819D02*
X98121428Y-90324819D01*
X98121428Y-90324819D02*
X98216666Y-90372438D01*
X98216666Y-90372438D02*
X98264285Y-90420057D01*
X98264285Y-90420057D02*
X98311904Y-90515295D01*
X98311904Y-90515295D02*
X98311904Y-90610533D01*
X98311904Y-90610533D02*
X98264285Y-90753390D01*
X98264285Y-90753390D02*
X97692857Y-91324819D01*
X97692857Y-91324819D02*
X98311904Y-91324819D01*
X104890476Y-86062295D02*
X104890476Y-86709914D01*
X104890476Y-86709914D02*
X104928571Y-86786104D01*
X104928571Y-86786104D02*
X104966666Y-86824200D01*
X104966666Y-86824200D02*
X105042857Y-86862295D01*
X105042857Y-86862295D02*
X105195238Y-86862295D01*
X105195238Y-86862295D02*
X105271428Y-86824200D01*
X105271428Y-86824200D02*
X105309523Y-86786104D01*
X105309523Y-86786104D02*
X105347619Y-86709914D01*
X105347619Y-86709914D02*
X105347619Y-86062295D01*
X105766666Y-86862295D02*
X105919047Y-86862295D01*
X105919047Y-86862295D02*
X105995237Y-86824200D01*
X105995237Y-86824200D02*
X106033333Y-86786104D01*
X106033333Y-86786104D02*
X106109523Y-86671819D01*
X106109523Y-86671819D02*
X106147618Y-86519438D01*
X106147618Y-86519438D02*
X106147618Y-86214676D01*
X106147618Y-86214676D02*
X106109523Y-86138485D01*
X106109523Y-86138485D02*
X106071428Y-86100390D01*
X106071428Y-86100390D02*
X105995237Y-86062295D01*
X105995237Y-86062295D02*
X105842856Y-86062295D01*
X105842856Y-86062295D02*
X105766666Y-86100390D01*
X105766666Y-86100390D02*
X105728571Y-86138485D01*
X105728571Y-86138485D02*
X105690475Y-86214676D01*
X105690475Y-86214676D02*
X105690475Y-86405152D01*
X105690475Y-86405152D02*
X105728571Y-86481342D01*
X105728571Y-86481342D02*
X105766666Y-86519438D01*
X105766666Y-86519438D02*
X105842856Y-86557533D01*
X105842856Y-86557533D02*
X105995237Y-86557533D01*
X105995237Y-86557533D02*
X106071428Y-86519438D01*
X106071428Y-86519438D02*
X106109523Y-86481342D01*
X106109523Y-86481342D02*
X106147618Y-86405152D01*
X162000000Y-96454819D02*
X162190476Y-96454819D01*
X162190476Y-96454819D02*
X162285714Y-96502438D01*
X162285714Y-96502438D02*
X162380952Y-96597676D01*
X162380952Y-96597676D02*
X162428571Y-96788152D01*
X162428571Y-96788152D02*
X162428571Y-97121485D01*
X162428571Y-97121485D02*
X162380952Y-97311961D01*
X162380952Y-97311961D02*
X162285714Y-97407200D01*
X162285714Y-97407200D02*
X162190476Y-97454819D01*
X162190476Y-97454819D02*
X162000000Y-97454819D01*
X162000000Y-97454819D02*
X161904762Y-97407200D01*
X161904762Y-97407200D02*
X161809524Y-97311961D01*
X161809524Y-97311961D02*
X161761905Y-97121485D01*
X161761905Y-97121485D02*
X161761905Y-96788152D01*
X161761905Y-96788152D02*
X161809524Y-96597676D01*
X161809524Y-96597676D02*
X161904762Y-96502438D01*
X161904762Y-96502438D02*
X162000000Y-96454819D01*
X162857143Y-96454819D02*
X162857143Y-97264342D01*
X162857143Y-97264342D02*
X162904762Y-97359580D01*
X162904762Y-97359580D02*
X162952381Y-97407200D01*
X162952381Y-97407200D02*
X163047619Y-97454819D01*
X163047619Y-97454819D02*
X163238095Y-97454819D01*
X163238095Y-97454819D02*
X163333333Y-97407200D01*
X163333333Y-97407200D02*
X163380952Y-97359580D01*
X163380952Y-97359580D02*
X163428571Y-97264342D01*
X163428571Y-97264342D02*
X163428571Y-96454819D01*
X163761905Y-96454819D02*
X164333333Y-96454819D01*
X164047619Y-97454819D02*
X164047619Y-96454819D01*
X111083333Y-109609580D02*
X111035714Y-109657200D01*
X111035714Y-109657200D02*
X110892857Y-109704819D01*
X110892857Y-109704819D02*
X110797619Y-109704819D01*
X110797619Y-109704819D02*
X110654762Y-109657200D01*
X110654762Y-109657200D02*
X110559524Y-109561961D01*
X110559524Y-109561961D02*
X110511905Y-109466723D01*
X110511905Y-109466723D02*
X110464286Y-109276247D01*
X110464286Y-109276247D02*
X110464286Y-109133390D01*
X110464286Y-109133390D02*
X110511905Y-108942914D01*
X110511905Y-108942914D02*
X110559524Y-108847676D01*
X110559524Y-108847676D02*
X110654762Y-108752438D01*
X110654762Y-108752438D02*
X110797619Y-108704819D01*
X110797619Y-108704819D02*
X110892857Y-108704819D01*
X110892857Y-108704819D02*
X111035714Y-108752438D01*
X111035714Y-108752438D02*
X111083333Y-108800057D01*
X111940476Y-109038152D02*
X111940476Y-109704819D01*
X111702381Y-108657200D02*
X111464286Y-109371485D01*
X111464286Y-109371485D02*
X112083333Y-109371485D01*
X135857142Y-106609580D02*
X135809523Y-106657200D01*
X135809523Y-106657200D02*
X135666666Y-106704819D01*
X135666666Y-106704819D02*
X135571428Y-106704819D01*
X135571428Y-106704819D02*
X135428571Y-106657200D01*
X135428571Y-106657200D02*
X135333333Y-106561961D01*
X135333333Y-106561961D02*
X135285714Y-106466723D01*
X135285714Y-106466723D02*
X135238095Y-106276247D01*
X135238095Y-106276247D02*
X135238095Y-106133390D01*
X135238095Y-106133390D02*
X135285714Y-105942914D01*
X135285714Y-105942914D02*
X135333333Y-105847676D01*
X135333333Y-105847676D02*
X135428571Y-105752438D01*
X135428571Y-105752438D02*
X135571428Y-105704819D01*
X135571428Y-105704819D02*
X135666666Y-105704819D01*
X135666666Y-105704819D02*
X135809523Y-105752438D01*
X135809523Y-105752438D02*
X135857142Y-105800057D01*
X136809523Y-106704819D02*
X136238095Y-106704819D01*
X136523809Y-106704819D02*
X136523809Y-105704819D01*
X136523809Y-105704819D02*
X136428571Y-105847676D01*
X136428571Y-105847676D02*
X136333333Y-105942914D01*
X136333333Y-105942914D02*
X136238095Y-105990533D01*
X137142857Y-105704819D02*
X137761904Y-105704819D01*
X137761904Y-105704819D02*
X137428571Y-106085771D01*
X137428571Y-106085771D02*
X137571428Y-106085771D01*
X137571428Y-106085771D02*
X137666666Y-106133390D01*
X137666666Y-106133390D02*
X137714285Y-106181009D01*
X137714285Y-106181009D02*
X137761904Y-106276247D01*
X137761904Y-106276247D02*
X137761904Y-106514342D01*
X137761904Y-106514342D02*
X137714285Y-106609580D01*
X137714285Y-106609580D02*
X137666666Y-106657200D01*
X137666666Y-106657200D02*
X137571428Y-106704819D01*
X137571428Y-106704819D02*
X137285714Y-106704819D01*
X137285714Y-106704819D02*
X137190476Y-106657200D01*
X137190476Y-106657200D02*
X137142857Y-106609580D01*
X166004761Y-98154819D02*
X165671428Y-97678628D01*
X165433333Y-98154819D02*
X165433333Y-97154819D01*
X165433333Y-97154819D02*
X165814285Y-97154819D01*
X165814285Y-97154819D02*
X165909523Y-97202438D01*
X165909523Y-97202438D02*
X165957142Y-97250057D01*
X165957142Y-97250057D02*
X166004761Y-97345295D01*
X166004761Y-97345295D02*
X166004761Y-97488152D01*
X166004761Y-97488152D02*
X165957142Y-97583390D01*
X165957142Y-97583390D02*
X165909523Y-97631009D01*
X165909523Y-97631009D02*
X165814285Y-97678628D01*
X165814285Y-97678628D02*
X165433333Y-97678628D01*
X166290476Y-97154819D02*
X166623809Y-98154819D01*
X166623809Y-98154819D02*
X166957142Y-97154819D01*
X167195238Y-97154819D02*
X167814285Y-97154819D01*
X167814285Y-97154819D02*
X167480952Y-97535771D01*
X167480952Y-97535771D02*
X167623809Y-97535771D01*
X167623809Y-97535771D02*
X167719047Y-97583390D01*
X167719047Y-97583390D02*
X167766666Y-97631009D01*
X167766666Y-97631009D02*
X167814285Y-97726247D01*
X167814285Y-97726247D02*
X167814285Y-97964342D01*
X167814285Y-97964342D02*
X167766666Y-98059580D01*
X167766666Y-98059580D02*
X167719047Y-98107200D01*
X167719047Y-98107200D02*
X167623809Y-98154819D01*
X167623809Y-98154819D02*
X167338095Y-98154819D01*
X167338095Y-98154819D02*
X167242857Y-98107200D01*
X167242857Y-98107200D02*
X167195238Y-98059580D01*
X87561905Y-82907200D02*
X87704762Y-82954819D01*
X87704762Y-82954819D02*
X87942857Y-82954819D01*
X87942857Y-82954819D02*
X88038095Y-82907200D01*
X88038095Y-82907200D02*
X88085714Y-82859580D01*
X88085714Y-82859580D02*
X88133333Y-82764342D01*
X88133333Y-82764342D02*
X88133333Y-82669104D01*
X88133333Y-82669104D02*
X88085714Y-82573866D01*
X88085714Y-82573866D02*
X88038095Y-82526247D01*
X88038095Y-82526247D02*
X87942857Y-82478628D01*
X87942857Y-82478628D02*
X87752381Y-82431009D01*
X87752381Y-82431009D02*
X87657143Y-82383390D01*
X87657143Y-82383390D02*
X87609524Y-82335771D01*
X87609524Y-82335771D02*
X87561905Y-82240533D01*
X87561905Y-82240533D02*
X87561905Y-82145295D01*
X87561905Y-82145295D02*
X87609524Y-82050057D01*
X87609524Y-82050057D02*
X87657143Y-82002438D01*
X87657143Y-82002438D02*
X87752381Y-81954819D01*
X87752381Y-81954819D02*
X87990476Y-81954819D01*
X87990476Y-81954819D02*
X88133333Y-82002438D01*
X89133333Y-82859580D02*
X89085714Y-82907200D01*
X89085714Y-82907200D02*
X88942857Y-82954819D01*
X88942857Y-82954819D02*
X88847619Y-82954819D01*
X88847619Y-82954819D02*
X88704762Y-82907200D01*
X88704762Y-82907200D02*
X88609524Y-82811961D01*
X88609524Y-82811961D02*
X88561905Y-82716723D01*
X88561905Y-82716723D02*
X88514286Y-82526247D01*
X88514286Y-82526247D02*
X88514286Y-82383390D01*
X88514286Y-82383390D02*
X88561905Y-82192914D01*
X88561905Y-82192914D02*
X88609524Y-82097676D01*
X88609524Y-82097676D02*
X88704762Y-82002438D01*
X88704762Y-82002438D02*
X88847619Y-81954819D01*
X88847619Y-81954819D02*
X88942857Y-81954819D01*
X88942857Y-81954819D02*
X89085714Y-82002438D01*
X89085714Y-82002438D02*
X89133333Y-82050057D01*
X89514286Y-82669104D02*
X89990476Y-82669104D01*
X89419048Y-82954819D02*
X89752381Y-81954819D01*
X89752381Y-81954819D02*
X90085714Y-82954819D01*
X90419048Y-82954819D02*
X90419048Y-81954819D01*
X90419048Y-81954819D02*
X90990476Y-82954819D01*
X90990476Y-82954819D02*
X90990476Y-81954819D01*
X119959580Y-92392857D02*
X120007200Y-92440476D01*
X120007200Y-92440476D02*
X120054819Y-92583333D01*
X120054819Y-92583333D02*
X120054819Y-92678571D01*
X120054819Y-92678571D02*
X120007200Y-92821428D01*
X120007200Y-92821428D02*
X119911961Y-92916666D01*
X119911961Y-92916666D02*
X119816723Y-92964285D01*
X119816723Y-92964285D02*
X119626247Y-93011904D01*
X119626247Y-93011904D02*
X119483390Y-93011904D01*
X119483390Y-93011904D02*
X119292914Y-92964285D01*
X119292914Y-92964285D02*
X119197676Y-92916666D01*
X119197676Y-92916666D02*
X119102438Y-92821428D01*
X119102438Y-92821428D02*
X119054819Y-92678571D01*
X119054819Y-92678571D02*
X119054819Y-92583333D01*
X119054819Y-92583333D02*
X119102438Y-92440476D01*
X119102438Y-92440476D02*
X119150057Y-92392857D01*
X120054819Y-91440476D02*
X120054819Y-92011904D01*
X120054819Y-91726190D02*
X119054819Y-91726190D01*
X119054819Y-91726190D02*
X119197676Y-91821428D01*
X119197676Y-91821428D02*
X119292914Y-91916666D01*
X119292914Y-91916666D02*
X119340533Y-92011904D01*
X119054819Y-90535714D02*
X119054819Y-91011904D01*
X119054819Y-91011904D02*
X119531009Y-91059523D01*
X119531009Y-91059523D02*
X119483390Y-91011904D01*
X119483390Y-91011904D02*
X119435771Y-90916666D01*
X119435771Y-90916666D02*
X119435771Y-90678571D01*
X119435771Y-90678571D02*
X119483390Y-90583333D01*
X119483390Y-90583333D02*
X119531009Y-90535714D01*
X119531009Y-90535714D02*
X119626247Y-90488095D01*
X119626247Y-90488095D02*
X119864342Y-90488095D01*
X119864342Y-90488095D02*
X119959580Y-90535714D01*
X119959580Y-90535714D02*
X120007200Y-90583333D01*
X120007200Y-90583333D02*
X120054819Y-90678571D01*
X120054819Y-90678571D02*
X120054819Y-90916666D01*
X120054819Y-90916666D02*
X120007200Y-91011904D01*
X120007200Y-91011904D02*
X119959580Y-91059523D01*
X154643095Y-80314819D02*
X154643095Y-81124342D01*
X154643095Y-81124342D02*
X154690714Y-81219580D01*
X154690714Y-81219580D02*
X154738333Y-81267200D01*
X154738333Y-81267200D02*
X154833571Y-81314819D01*
X154833571Y-81314819D02*
X155024047Y-81314819D01*
X155024047Y-81314819D02*
X155119285Y-81267200D01*
X155119285Y-81267200D02*
X155166904Y-81219580D01*
X155166904Y-81219580D02*
X155214523Y-81124342D01*
X155214523Y-81124342D02*
X155214523Y-80314819D01*
X155595476Y-80314819D02*
X156262142Y-80314819D01*
X156262142Y-80314819D02*
X155833571Y-81314819D01*
X87690476Y-98431009D02*
X87357143Y-98431009D01*
X87357143Y-98954819D02*
X87357143Y-97954819D01*
X87357143Y-97954819D02*
X87833333Y-97954819D01*
X88785714Y-98954819D02*
X88452381Y-98478628D01*
X88214286Y-98954819D02*
X88214286Y-97954819D01*
X88214286Y-97954819D02*
X88595238Y-97954819D01*
X88595238Y-97954819D02*
X88690476Y-98002438D01*
X88690476Y-98002438D02*
X88738095Y-98050057D01*
X88738095Y-98050057D02*
X88785714Y-98145295D01*
X88785714Y-98145295D02*
X88785714Y-98288152D01*
X88785714Y-98288152D02*
X88738095Y-98383390D01*
X88738095Y-98383390D02*
X88690476Y-98431009D01*
X88690476Y-98431009D02*
X88595238Y-98478628D01*
X88595238Y-98478628D02*
X88214286Y-98478628D01*
X89166667Y-98669104D02*
X89642857Y-98669104D01*
X89071429Y-98954819D02*
X89404762Y-97954819D01*
X89404762Y-97954819D02*
X89738095Y-98954819D01*
X90071429Y-98954819D02*
X90071429Y-97954819D01*
X90071429Y-97954819D02*
X90404762Y-98669104D01*
X90404762Y-98669104D02*
X90738095Y-97954819D01*
X90738095Y-97954819D02*
X90738095Y-98954819D01*
X91214286Y-98431009D02*
X91547619Y-98431009D01*
X91690476Y-98954819D02*
X91214286Y-98954819D01*
X91214286Y-98954819D02*
X91214286Y-97954819D01*
X91214286Y-97954819D02*
X91690476Y-97954819D01*
X165699761Y-79084819D02*
X165366428Y-78608628D01*
X165128333Y-79084819D02*
X165128333Y-78084819D01*
X165128333Y-78084819D02*
X165509285Y-78084819D01*
X165509285Y-78084819D02*
X165604523Y-78132438D01*
X165604523Y-78132438D02*
X165652142Y-78180057D01*
X165652142Y-78180057D02*
X165699761Y-78275295D01*
X165699761Y-78275295D02*
X165699761Y-78418152D01*
X165699761Y-78418152D02*
X165652142Y-78513390D01*
X165652142Y-78513390D02*
X165604523Y-78561009D01*
X165604523Y-78561009D02*
X165509285Y-78608628D01*
X165509285Y-78608628D02*
X165128333Y-78608628D01*
X165985476Y-78084819D02*
X166318809Y-79084819D01*
X166318809Y-79084819D02*
X166652142Y-78084819D01*
X167414047Y-78418152D02*
X167414047Y-79084819D01*
X167175952Y-78037200D02*
X166937857Y-78751485D01*
X166937857Y-78751485D02*
X167556904Y-78751485D01*
D12*
%TO.C,GND*%
X166570000Y-95910000D02*
X166570000Y-96030000D01*
X166570000Y-96030000D02*
X169230000Y-96030000D01*
X167900000Y-93370000D02*
X169230000Y-93370000D01*
X169230000Y-93370000D02*
X169230000Y-94700000D01*
X169230000Y-95910000D02*
X169230000Y-96030000D01*
D13*
%TO.C,U5*%
X114215852Y-99176799D02*
X117365452Y-99176799D01*
X117365452Y-95773199D02*
X114215852Y-95773199D01*
D12*
%TO.C,C5*%
X161755000Y-92250000D02*
X161755000Y-90010000D01*
X168995000Y-90010000D02*
X161755000Y-90010000D01*
X168995000Y-92250000D02*
X161755000Y-92250000D01*
X168995000Y-92250000D02*
X168995000Y-90010000D01*
%TO.C,R3*%
X106000641Y-102915095D02*
G75*
G02*
X107450000Y-103012133I749359J320095D01*
G01*
%TO.C,C6*%
X161755000Y-87010000D02*
X161755000Y-89250000D01*
X161755000Y-87010000D02*
X168995000Y-87010000D01*
X161755000Y-89250000D02*
X168995000Y-89250000D01*
X168995000Y-87010000D02*
X168995000Y-89250000D01*
%TO.C,5V*%
X139670000Y-80290000D02*
X139670000Y-80170000D01*
X139670000Y-82830000D02*
X139670000Y-81500000D01*
X141000000Y-82830000D02*
X139670000Y-82830000D01*
X142330000Y-80170000D02*
X139670000Y-80170000D01*
X142330000Y-80290000D02*
X142330000Y-80170000D01*
%TO.C,C1*%
X161940000Y-110330000D02*
X161940000Y-108090000D01*
X169180000Y-108090000D02*
X161940000Y-108090000D01*
X169180000Y-110330000D02*
X161940000Y-110330000D01*
X169180000Y-110330000D02*
X169180000Y-108090000D01*
%TO.C,U3*%
X125050000Y-91355000D02*
X125050000Y-96655000D01*
X125050000Y-96655000D02*
X142950000Y-96655000D01*
X142950000Y-91355000D02*
X125050000Y-91355000D01*
X142950000Y-93005000D02*
X142950000Y-91355000D01*
X142950000Y-96655000D02*
X142950000Y-95005000D01*
X142950000Y-95005000D02*
G75*
G02*
X142950000Y-93005000I0J1000000D01*
G01*
%TO.C,R9*%
X156077064Y-97090000D02*
X154622936Y-97090000D01*
X156077064Y-98910000D02*
X154622936Y-98910000D01*
%TO.C,C2*%
X161940000Y-105090000D02*
X161940000Y-107330000D01*
X161940000Y-105090000D02*
X169180000Y-105090000D01*
X161940000Y-107330000D02*
X169180000Y-107330000D01*
X169180000Y-105090000D02*
X169180000Y-107330000D01*
%TO.C,R4*%
X107165095Y-108999359D02*
G75*
G02*
X107262133Y-107550000I-320095J749359D01*
G01*
%TO.C,R11*%
X96422936Y-86690000D02*
X97877064Y-86690000D01*
X96422936Y-88510000D02*
X97877064Y-88510000D01*
%TO.C,GND*%
X117770000Y-85610000D02*
X117770000Y-85730000D01*
X117770000Y-85730000D02*
X120430000Y-85730000D01*
X119100000Y-83070000D02*
X120430000Y-83070000D01*
X120430000Y-83070000D02*
X120430000Y-84400000D01*
X120430000Y-85610000D02*
X120430000Y-85730000D01*
%TO.C,C14*%
X125460000Y-83195000D02*
X125460000Y-85435000D01*
X125460000Y-83195000D02*
X132700000Y-83195000D01*
X125460000Y-85435000D02*
X132700000Y-85435000D01*
X132700000Y-83195000D02*
X132700000Y-85435000D01*
%TO.C,R10*%
X145490000Y-90222936D02*
X145490000Y-91677064D01*
X147310000Y-90222936D02*
X147310000Y-91677064D01*
%TO.C,C7*%
X145460000Y-82784888D02*
X143931000Y-82784888D01*
X145460000Y-82824888D02*
X143935000Y-82824888D01*
X145460000Y-82864888D02*
X143940000Y-82864888D01*
X145460000Y-82904888D02*
X143945000Y-82904888D01*
X145460000Y-82944888D02*
X143951000Y-82944888D01*
X145460000Y-82984888D02*
X143957000Y-82984888D01*
X145460000Y-83024888D02*
X143964000Y-83024888D01*
X145460000Y-83064888D02*
X143972000Y-83064888D01*
X145460000Y-83104888D02*
X143981000Y-83104888D01*
X145460000Y-83144888D02*
X143990000Y-83144888D01*
X145460000Y-83184888D02*
X143999000Y-83184888D01*
X145460000Y-83224888D02*
X144010000Y-83224888D01*
X145460000Y-83264888D02*
X144021000Y-83264888D01*
X145460000Y-83304888D02*
X144033000Y-83304888D01*
X145460000Y-83344888D02*
X144045000Y-83344888D01*
X145460000Y-83384888D02*
X144058000Y-83384888D01*
X145460000Y-83424888D02*
X144072000Y-83424888D01*
X145460000Y-83464888D02*
X144087000Y-83464888D01*
X145460000Y-83504888D02*
X144102000Y-83504888D01*
X145460000Y-83544888D02*
X144118000Y-83544888D01*
X145460000Y-83584888D02*
X144135000Y-83584888D01*
X145460000Y-83624888D02*
X144153000Y-83624888D01*
X145460000Y-83664888D02*
X144171000Y-83664888D01*
X145460000Y-83704888D02*
X144191000Y-83704888D01*
X145460000Y-83744888D02*
X144211000Y-83744888D01*
X145460000Y-83784888D02*
X144232000Y-83784888D01*
X145460000Y-83824888D02*
X144254000Y-83824888D01*
X145460000Y-83864888D02*
X144277000Y-83864888D01*
X145460000Y-83904888D02*
X144301000Y-83904888D01*
X145460000Y-83944888D02*
X144325000Y-83944888D01*
X145460000Y-83984888D02*
X144351000Y-83984888D01*
X145460000Y-84024888D02*
X144378000Y-84024888D01*
X145460000Y-84064888D02*
X144406000Y-84064888D01*
X145460000Y-84104888D02*
X144435000Y-84104888D01*
X145460000Y-84144888D02*
X144465000Y-84144888D01*
X145460000Y-84184888D02*
X144497000Y-84184888D01*
X145460000Y-84224888D02*
X144530000Y-84224888D01*
X145460000Y-84264888D02*
X144564000Y-84264888D01*
X145460000Y-84304888D02*
X144599000Y-84304888D01*
X145460000Y-84344888D02*
X144636000Y-84344888D01*
X145460000Y-84384888D02*
X144675000Y-84384888D01*
X145460000Y-84424888D02*
X144715000Y-84424888D01*
X145460000Y-84464888D02*
X144757000Y-84464888D01*
X145460000Y-84504888D02*
X144801000Y-84504888D01*
X145460000Y-84544888D02*
X144848000Y-84544888D01*
X145460000Y-84584888D02*
X144896000Y-84584888D01*
X145460000Y-84624888D02*
X144947000Y-84624888D01*
X145460000Y-84664888D02*
X145001000Y-84664888D01*
X145460000Y-84704888D02*
X145057000Y-84704888D01*
X145460000Y-84744888D02*
X145117000Y-84744888D01*
X145460000Y-84784888D02*
X145181000Y-84784888D01*
X145460000Y-84824888D02*
X145249000Y-84824888D01*
X146783000Y-85144888D02*
X146217000Y-85144888D01*
X147017000Y-85104888D02*
X145983000Y-85104888D01*
X147177000Y-85064888D02*
X145823000Y-85064888D01*
X147305000Y-85024888D02*
X145695000Y-85024888D01*
X147414000Y-84984888D02*
X145586000Y-84984888D01*
X147511000Y-84944888D02*
X145489000Y-84944888D01*
X147598000Y-84904888D02*
X145402000Y-84904888D01*
X147677000Y-84864888D02*
X145323000Y-84864888D01*
X147751000Y-84824888D02*
X147540000Y-84824888D01*
X147819000Y-84784888D02*
X147540000Y-84784888D01*
X147883000Y-84744888D02*
X147540000Y-84744888D01*
X147943000Y-84704888D02*
X147540000Y-84704888D01*
X147975000Y-79740113D02*
X147975000Y-80240113D01*
X147999000Y-84664888D02*
X147540000Y-84664888D01*
X148053000Y-84624888D02*
X147540000Y-84624888D01*
X148104000Y-84584888D02*
X147540000Y-84584888D01*
X148152000Y-84544888D02*
X147540000Y-84544888D01*
X148199000Y-84504888D02*
X147540000Y-84504888D01*
X148225000Y-79990113D02*
X147725000Y-79990113D01*
X148243000Y-84464888D02*
X147540000Y-84464888D01*
X148285000Y-84424888D02*
X147540000Y-84424888D01*
X148325000Y-84384888D02*
X147540000Y-84384888D01*
X148364000Y-84344888D02*
X147540000Y-84344888D01*
X148401000Y-84304888D02*
X147540000Y-84304888D01*
X148436000Y-84264888D02*
X147540000Y-84264888D01*
X148470000Y-84224888D02*
X147540000Y-84224888D01*
X148503000Y-84184888D02*
X147540000Y-84184888D01*
X148535000Y-84144888D02*
X147540000Y-84144888D01*
X148565000Y-84104888D02*
X147540000Y-84104888D01*
X148594000Y-84064888D02*
X147540000Y-84064888D01*
X148622000Y-84024888D02*
X147540000Y-84024888D01*
X148649000Y-83984888D02*
X147540000Y-83984888D01*
X148675000Y-83944888D02*
X147540000Y-83944888D01*
X148699000Y-83904888D02*
X147540000Y-83904888D01*
X148723000Y-83864888D02*
X147540000Y-83864888D01*
X148746000Y-83824888D02*
X147540000Y-83824888D01*
X148768000Y-83784888D02*
X147540000Y-83784888D01*
X148789000Y-83744888D02*
X147540000Y-83744888D01*
X148809000Y-83704888D02*
X147540000Y-83704888D01*
X148829000Y-83664888D02*
X147540000Y-83664888D01*
X148847000Y-83624888D02*
X147540000Y-83624888D01*
X148865000Y-83584888D02*
X147540000Y-83584888D01*
X148882000Y-83544888D02*
X147540000Y-83544888D01*
X148898000Y-83504888D02*
X147540000Y-83504888D01*
X148913000Y-83464888D02*
X147540000Y-83464888D01*
X148928000Y-83424888D02*
X147540000Y-83424888D01*
X148942000Y-83384888D02*
X147540000Y-83384888D01*
X148955000Y-83344888D02*
X147540000Y-83344888D01*
X148967000Y-83304888D02*
X147540000Y-83304888D01*
X148979000Y-83264888D02*
X147540000Y-83264888D01*
X148990000Y-83224888D02*
X147540000Y-83224888D01*
X149001000Y-83184888D02*
X147540000Y-83184888D01*
X149010000Y-83144888D02*
X147540000Y-83144888D01*
X149019000Y-83104888D02*
X147540000Y-83104888D01*
X149028000Y-83064888D02*
X147540000Y-83064888D01*
X149036000Y-83024888D02*
X147540000Y-83024888D01*
X149043000Y-82984888D02*
X147540000Y-82984888D01*
X149049000Y-82944888D02*
X147540000Y-82944888D01*
X149055000Y-82904888D02*
X147540000Y-82904888D01*
X149060000Y-82864888D02*
X147540000Y-82864888D01*
X149065000Y-82824888D02*
X147540000Y-82824888D01*
X149069000Y-82784888D02*
X147540000Y-82784888D01*
X149072000Y-82744888D02*
X143928000Y-82744888D01*
X149075000Y-82704888D02*
X143925000Y-82704888D01*
X149077000Y-82664888D02*
X143923000Y-82664888D01*
X149079000Y-82624888D02*
X143921000Y-82624888D01*
X149080000Y-82544888D02*
X143920000Y-82544888D01*
X149080000Y-82584888D02*
X143920000Y-82584888D01*
X149120000Y-82544888D02*
G75*
G02*
X143880000Y-82544888I-2620000J0D01*
G01*
X143880000Y-82544888D02*
G75*
G02*
X149120000Y-82544888I2620000J0D01*
G01*
%TO.C,U2*%
X97355000Y-105360000D02*
X97355000Y-115640000D01*
X97355000Y-115640000D02*
X102655000Y-115640000D01*
X99005000Y-105360000D02*
X97355000Y-105360000D01*
X102655000Y-105360000D02*
X101005000Y-105360000D01*
X102655000Y-115640000D02*
X102655000Y-105360000D01*
X101005000Y-105360000D02*
G75*
G02*
X99005000Y-105360000I-1000000J0D01*
G01*
D14*
%TO.C,Q6*%
X145825000Y-94550000D02*
X148326000Y-94550000D01*
X145825000Y-95300000D02*
X145825000Y-94550000D01*
X145825000Y-98300000D02*
X145825000Y-99050000D01*
X145825000Y-99050000D02*
X148326000Y-99050000D01*
D15*
X150113000Y-95200000D02*
X150113000Y-95200000D01*
X150113000Y-95400000D02*
X150113000Y-95400000D01*
X150113000Y-95200000D02*
G75*
G02*
X150113000Y-95400000I0J-100000D01*
G01*
X150113000Y-95400000D02*
G75*
G02*
X150113000Y-95200000I0J100000D01*
G01*
D12*
%TO.C,R14*%
X137164905Y-83565641D02*
G75*
G02*
X137067867Y-85015000I320095J-749359D01*
G01*
%TO.C,C3*%
X107630000Y-115370000D02*
X107630000Y-113130000D01*
X114870000Y-113130000D02*
X107630000Y-113130000D01*
X114870000Y-115370000D02*
X107630000Y-115370000D01*
X114870000Y-115370000D02*
X114870000Y-113130000D01*
%TO.C,C16*%
X110840000Y-83038748D02*
X110840000Y-84461252D01*
X112660000Y-83038748D02*
X112660000Y-84461252D01*
%TO.C,R13*%
X129415095Y-104749359D02*
G75*
G02*
X129512133Y-103300000I-320095J749359D01*
G01*
%TO.C,RV2*%
X125390000Y-112890000D02*
X125390000Y-120610000D01*
X137110000Y-120610000D02*
X129890000Y-120610000D01*
X141610000Y-112890000D02*
X125390000Y-112890000D01*
X141610000Y-112890000D02*
X141610000Y-120610000D01*
X141610000Y-120610000D02*
X125390000Y-120610000D01*
%TO.C,U1*%
X153220000Y-100340000D02*
X153220000Y-110620000D01*
X153220000Y-110620000D02*
X158520000Y-110620000D01*
X154870000Y-100340000D02*
X153220000Y-100340000D01*
X158520000Y-100340000D02*
X156870000Y-100340000D01*
X158520000Y-110620000D02*
X158520000Y-100340000D01*
X156870000Y-100340000D02*
G75*
G02*
X154870000Y-100340000I-1000000J0D01*
G01*
%TO.C,RV1*%
X149390000Y-112890000D02*
X149390000Y-120610000D01*
X161110000Y-120610000D02*
X153890000Y-120610000D01*
X165610000Y-112890000D02*
X149390000Y-112890000D01*
X165610000Y-112890000D02*
X165610000Y-120610000D01*
X165610000Y-120610000D02*
X149390000Y-120610000D01*
%TO.C,R12*%
X96322936Y-91790000D02*
X97777064Y-91790000D01*
X96322936Y-93610000D02*
X97777064Y-93610000D01*
D16*
%TO.C,U9*%
X105290000Y-92575000D02*
X109190000Y-92575000D01*
X109190000Y-87615000D02*
X105290000Y-87615000D01*
D15*
X102895000Y-88190000D02*
G75*
G02*
X102695000Y-88190000I-100000J0D01*
G01*
X102695000Y-88190000D02*
G75*
G02*
X102895000Y-88190000I100000J0D01*
G01*
D12*
%TO.C,OUT*%
X161770000Y-95910000D02*
X161770000Y-96030000D01*
X161770000Y-96030000D02*
X164430000Y-96030000D01*
X163100000Y-93370000D02*
X164430000Y-93370000D01*
X164430000Y-93370000D02*
X164430000Y-94700000D01*
X164430000Y-95910000D02*
X164430000Y-96030000D01*
%TO.C,C4*%
X107630000Y-110130000D02*
X107630000Y-112370000D01*
X107630000Y-110130000D02*
X114870000Y-110130000D01*
X107630000Y-112370000D02*
X114870000Y-112370000D01*
X114870000Y-110130000D02*
X114870000Y-112370000D01*
%TO.C,C13*%
X132880000Y-105120000D02*
X132880000Y-102880000D01*
X140120000Y-102880000D02*
X132880000Y-102880000D01*
X140120000Y-105120000D02*
X132880000Y-105120000D01*
X140120000Y-105120000D02*
X140120000Y-102880000D01*
%TO.C,RV3*%
X161725000Y-103520000D02*
X161725000Y-98470000D01*
X171475000Y-98470000D02*
X161725000Y-98470000D01*
X171475000Y-103520000D02*
X161725000Y-103520000D01*
X171475000Y-103520000D02*
X171475000Y-98470000D01*
%TO.C,SCAN*%
X87670000Y-86730000D02*
X87670000Y-84130000D01*
X87670000Y-89330000D02*
X87670000Y-88000000D01*
X89000000Y-89330000D02*
X87670000Y-89330000D01*
X90330000Y-84130000D02*
X87670000Y-84130000D01*
X90330000Y-86730000D02*
X87670000Y-86730000D01*
X90330000Y-86730000D02*
X90330000Y-84130000D01*
%TO.C,C15*%
X116840000Y-91038748D02*
X116840000Y-92461252D01*
X118660000Y-91038748D02*
X118660000Y-92461252D01*
%TO.C,U7*%
X152755000Y-81860000D02*
X152755000Y-92140000D01*
X152755000Y-92140000D02*
X158055000Y-92140000D01*
X154405000Y-81860000D02*
X152755000Y-81860000D01*
X158055000Y-81860000D02*
X156405000Y-81860000D01*
X158055000Y-92140000D02*
X158055000Y-81860000D01*
X156405000Y-81860000D02*
G75*
G02*
X154405000Y-81860000I-1000000J0D01*
G01*
%TO.C,FRAME*%
X87695000Y-93980000D02*
X87695000Y-91380000D01*
X87695000Y-96580000D02*
X87695000Y-95250000D01*
X89025000Y-96580000D02*
X87695000Y-96580000D01*
X90355000Y-91380000D02*
X87695000Y-91380000D01*
X90355000Y-93980000D02*
X87695000Y-93980000D01*
X90355000Y-93980000D02*
X90355000Y-91380000D01*
%TO.C,RV4*%
X161460000Y-84650000D02*
X161460000Y-79600000D01*
X171210000Y-79600000D02*
X161460000Y-79600000D01*
X171210000Y-84650000D02*
X161460000Y-84650000D01*
X171210000Y-84650000D02*
X171210000Y-79600000D01*
%TD*%
M02*
